STARTFONT 2.1
COMMENT
COMMENT Converted from OpenType font "Ubuntu-BI.otf" by "otf2bdf 3.0".
COMMENT
FONT -FreeType-Ubuntu-Bold-I-Normal--17-120-100-100-P-106-ISO10646-1
SIZE 12 100 100
FONTBOUNDINGBOX 63 20 -4 -4
STARTPROPERTIES 19
FOUNDRY "FreeType"
FAMILY_NAME "Ubuntu"
WEIGHT_NAME "Bold"
SLANT "I"
SETWIDTH_NAME "Normal"
ADD_STYLE_NAME ""
PIXEL_SIZE 17
POINT_SIZE 120
RESOLUTION_X 100
RESOLUTION_Y 100
SPACING "P"
AVERAGE_WIDTH 106
CHARSET_REGISTRY "ISO10646"
CHARSET_ENCODING "1"
FONT_ASCENT 15
FONT_DESCENT 3
COPYRIGHT "Copyright 2011 Canonical Ltd.  Licensed under the Ubuntu Font Licence 1.0"
_OTF_FONTFILE "Ubuntu-BI.otf"
_OTF_PSNAME "Ubuntu-BoldItalic"
ENDPROPERTIES
CHARS 1194
STARTCHAR 0000
ENCODING 0
SWIDTH 0 0
DWIDTH 0 0
BBX 0 0 0 0
BITMAP
ENDCHAR
STARTCHAR 0008
ENCODING 8
SWIDTH 0 0
DWIDTH 0 0
BBX 0 0 0 0
BITMAP
ENDCHAR
STARTCHAR 0009
ENCODING 9
SWIDTH 240 0
DWIDTH 4 0
BBX 0 0 0 0
BITMAP
ENDCHAR
STARTCHAR 000D
ENCODING 13
SWIDTH 240 0
DWIDTH 4 0
BBX 0 0 0 0
BITMAP
ENDCHAR
STARTCHAR 001D
ENCODING 29
SWIDTH 0 0
DWIDTH 0 0
BBX 0 0 0 0
BITMAP
ENDCHAR
STARTCHAR 0020
ENCODING 32
SWIDTH 240 0
DWIDTH 4 0
BBX 0 0 0 0
BITMAP
ENDCHAR
STARTCHAR 0021
ENCODING 33
SWIDTH 300 0
DWIDTH 5 0
BBX 6 12 1 0
BITMAP
1C
18
38
38
38
30
30
70
00
60
E0
E0
ENDCHAR
STARTCHAR 0022
ENCODING 34
SWIDTH 480 0
DWIDTH 8 0
BBX 7 5 3 8
BITMAP
6E
EE
EC
CC
CC
ENDCHAR
STARTCHAR 0023
ENCODING 35
SWIDTH 660 0
DWIDTH 11 0
BBX 11 12 1 0
BITMAP
0660
0660
0CC0
3FE0
7FE0
1980
3B80
7FC0
FFC0
6600
6600
CC00
ENDCHAR
STARTCHAR 0024
ENCODING 36
SWIDTH 540 0
DWIDTH 9 0
BBX 9 15 1 -2
BITMAP
0300
0600
1F80
3F80
3000
3000
3C00
1E00
0700
0300
4700
FF00
7C00
3800
3000
ENDCHAR
STARTCHAR 0025
ENCODING 37
SWIDTH 900 0
DWIDTH 15 0
BBX 13 12 2 0
BITMAP
3830
7C60
CCE0
CDC0
CD80
FB00
66F0
0ED8
1D98
1998
31B0
61E0
ENDCHAR
STARTCHAR 0026
ENCODING 38
SWIDTH 660 0
DWIDTH 11 0
BBX 11 12 1 0
BITMAP
0700
1F80
1980
1980
1B80
1E00
3EE0
66C0
E3C0
E380
7FC0
7EC0
ENDCHAR
STARTCHAR 0027
ENCODING 39
SWIDTH 300 0
DWIDTH 5 0
BBX 3 5 3 8
BITMAP
60
E0
E0
C0
C0
ENDCHAR
STARTCHAR 0028
ENCODING 40
SWIDTH 360 0
DWIDTH 6 0
BBX 6 16 2 -3
BITMAP
0C
1C
38
30
70
60
E0
E0
C0
C0
C0
C0
C0
C0
E0
40
ENDCHAR
STARTCHAR 0029
ENCODING 41
SWIDTH 360 0
DWIDTH 6 0
BBX 6 16 0 -3
BITMAP
08
1C
0C
0C
0C
0C
0C
0C
1C
1C
18
38
30
60
E0
C0
ENDCHAR
STARTCHAR 002A
ENCODING 42
SWIDTH 480 0
DWIDTH 8 0
BBX 7 7 2 5
BITMAP
18
18
56
FE
38
6C
2C
ENDCHAR
STARTCHAR 002B
ENCODING 43
SWIDTH 540 0
DWIDTH 9 0
BBX 8 8 2 1
BITMAP
1C
18
18
FF
FF
38
30
30
ENDCHAR
STARTCHAR 002C
ENCODING 44
SWIDTH 240 0
DWIDTH 4 0
BBX 4 6 0 -3
BITMAP
70
70
70
60
E0
40
ENDCHAR
STARTCHAR 002D
ENCODING 45
SWIDTH 360 0
DWIDTH 6 0
BBX 5 2 1 4
BITMAP
78
F8
ENDCHAR
STARTCHAR 002E
ENCODING 46
SWIDTH 240 0
DWIDTH 4 0
BBX 3 3 1 0
BITMAP
60
E0
E0
ENDCHAR
STARTCHAR 002F
ENCODING 47
SWIDTH 420 0
DWIDTH 7 0
BBX 11 16 -1 -3
BITMAP
0060
00C0
01C0
0180
0380
0300
0700
0E00
0C00
1C00
1800
3800
3000
7000
E000
C000
ENDCHAR
STARTCHAR 0030
ENCODING 48
SWIDTH 540 0
DWIDTH 9 0
BBX 8 12 2 0
BITMAP
0E
3F
73
63
E3
C3
C3
C7
C6
CE
FC
78
ENDCHAR
STARTCHAR 0031
ENCODING 49
SWIDTH 540 0
DWIDTH 9 0
BBX 6 12 3 0
BITMAP
04
1C
7C
FC
18
18
18
38
38
30
30
70
ENDCHAR
STARTCHAR 0032
ENCODING 50
SWIDTH 540 0
DWIDTH 9 0
BBX 9 12 1 0
BITMAP
0F00
3F80
1B80
0180
0380
0700
0E00
1C00
3800
7000
FF00
FF00
ENDCHAR
STARTCHAR 0033
ENCODING 51
SWIDTH 540 0
DWIDTH 9 0
BBX 9 12 1 0
BITMAP
0E00
3F80
1380
0180
0380
1F00
1F00
0300
0300
0300
FF00
FC00
ENDCHAR
STARTCHAR 0034
ENCODING 52
SWIDTH 540 0
DWIDTH 9 0
BBX 10 12 1 0
BITMAP
01C0
0380
0780
0D80
1B80
3B00
7300
7F80
FF80
0600
0600
0600
ENDCHAR
STARTCHAR 0035
ENCODING 53
SWIDTH 540 0
DWIDTH 9 0
BBX 10 12 1 0
BITMAP
0FC0
1FC0
1F80
1800
3800
3E00
3F00
0300
0300
0300
FF00
FE00
ENDCHAR
STARTCHAR 0036
ENCODING 54
SWIDTH 540 0
DWIDTH 9 0
BBX 9 12 2 0
BITMAP
0380
1F80
3C00
7000
6000
FE00
FF00
C700
C700
C700
FE00
7C00
ENDCHAR
STARTCHAR 0037
ENCODING 55
SWIDTH 540 0
DWIDTH 9 0
BBX 9 12 2 0
BITMAP
7F80
7F80
7F80
0700
0E00
1C00
1800
3800
3000
7000
6000
E000
ENDCHAR
STARTCHAR 0038
ENCODING 56
SWIDTH 540 0
DWIDTH 9 0
BBX 8 12 2 0
BITMAP
1E
3F
73
63
73
3E
7E
E6
C7
C6
FE
7C
ENDCHAR
STARTCHAR 0039
ENCODING 57
SWIDTH 540 0
DWIDTH 9 0
BBX 9 12 1 0
BITMAP
0E00
3F80
3B80
7180
7180
7180
3F80
1F80
0300
0E00
7C00
F000
ENDCHAR
STARTCHAR 003A
ENCODING 58
SWIDTH 240 0
DWIDTH 4 0
BBX 4 9 1 0
BITMAP
30
70
70
00
00
00
60
E0
E0
ENDCHAR
STARTCHAR 003B
ENCODING 59
SWIDTH 240 0
DWIDTH 4 0
BBX 5 12 0 -3
BITMAP
18
38
38
00
00
00
70
70
70
60
E0
40
ENDCHAR
STARTCHAR 003C
ENCODING 60
SWIDTH 540 0
DWIDTH 9 0
BBX 8 8 2 1
BITMAP
01
0F
7E
F0
E0
78
1E
04
ENDCHAR
STARTCHAR 003D
ENCODING 61
SWIDTH 540 0
DWIDTH 9 0
BBX 9 6 1 2
BITMAP
3F80
7F80
0000
0000
7F00
FF00
ENDCHAR
STARTCHAR 003E
ENCODING 62
SWIDTH 540 0
DWIDTH 9 0
BBX 9 8 1 1
BITMAP
2000
7800
1E00
0780
0F00
3E00
F000
C000
ENDCHAR
STARTCHAR 003F
ENCODING 63
SWIDTH 420 0
DWIDTH 7 0
BBX 7 12 2 0
BITMAP
3C
7E
4E
06
0E
1C
70
60
00
60
E0
E0
ENDCHAR
STARTCHAR 0040
ENCODING 64
SWIDTH 960 0
DWIDTH 16 0
BBX 14 15 2 -3
BITMAP
03E0
1FF8
381C
718C
67EC
CEEC
DCCC
D8CC
D8CC
DDD8
CFF0
C440
6000
3F80
0F00
ENDCHAR
STARTCHAR 0041
ENCODING 65
SWIDTH 720 0
DWIDTH 12 0
BBX 10 12 1 0
BITMAP
0380
0380
0780
0F80
0DC0
1DC0
19C0
3FC0
7FC0
60C0
E0C0
C0C0
ENDCHAR
STARTCHAR 0042
ENCODING 66
SWIDTH 660 0
DWIDTH 11 0
BBX 11 12 1 0
BITMAP
0F00
1FC0
39E0
38E0
38C0
3F80
3FC0
71C0
71C0
61C0
7F80
FF00
ENDCHAR
STARTCHAR 0043
ENCODING 67
SWIDTH 660 0
DWIDTH 11 0
BBX 10 12 2 0
BITMAP
0780
1FC0
3CC0
7000
6000
E000
E000
E000
E000
F000
7F00
3F00
ENDCHAR
STARTCHAR 0044
ENCODING 68
SWIDTH 720 0
DWIDTH 12 0
BBX 12 12 1 0
BITMAP
0F00
1FC0
3FE0
38E0
3870
3070
3060
70E0
70E0
63C0
7F80
FE00
ENDCHAR
STARTCHAR 0045
ENCODING 69
SWIDTH 600 0
DWIDTH 10 0
BBX 11 12 1 0
BITMAP
1FE0
1FC0
1FC0
3800
3800
3F80
3F80
7000
7000
6000
7F80
FF00
ENDCHAR
STARTCHAR 0046
ENCODING 70
SWIDTH 600 0
DWIDTH 10 0
BBX 10 12 1 0
BITMAP
1FC0
1FC0
1FC0
3800
3800
3F80
3F00
7000
7000
6000
6000
E000
ENDCHAR
STARTCHAR 0047
ENCODING 71
SWIDTH 660 0
DWIDTH 11 0
BBX 10 12 2 0
BITMAP
0780
1FC0
3CC0
7000
6000
E000
E1C0
E180
E180
F380
7F80
3F00
ENDCHAR
STARTCHAR 0048
ENCODING 72
SWIDTH 720 0
DWIDTH 12 0
BBX 12 12 1 0
BITMAP
1C30
1870
1870
3870
3860
3FE0
3FE0
70E0
70C0
60C0
61C0
E1C0
ENDCHAR
STARTCHAR 0049
ENCODING 73
SWIDTH 300 0
DWIDTH 5 0
BBX 6 12 1 0
BITMAP
1C
18
18
38
38
30
30
70
70
60
60
E0
ENDCHAR
STARTCHAR 004A
ENCODING 74
SWIDTH 540 0
DWIDTH 9 0
BBX 9 12 1 0
BITMAP
0380
0380
0380
0300
0700
0700
0700
0600
0E00
8E00
FC00
F800
ENDCHAR
STARTCHAR 004B
ENCODING 75
SWIDTH 660 0
DWIDTH 11 0
BBX 12 12 1 0
BITMAP
1C70
18E0
19C0
3B80
3F00
3E00
3E00
7E00
7700
6380
6380
E1C0
ENDCHAR
STARTCHAR 004C
ENCODING 76
SWIDTH 540 0
DWIDTH 9 0
BBX 8 12 1 0
BITMAP
1C
18
18
38
38
30
30
70
70
60
7F
FF
ENDCHAR
STARTCHAR 004D
ENCODING 77
SWIDTH 900 0
DWIDTH 15 0
BBX 14 12 1 0
BITMAP
0C0C
1C1C
1C1C
1E3C
3E7C
367C
36D8
7798
6798
6738
E338
E038
ENDCHAR
STARTCHAR 004E
ENCODING 78
SWIDTH 720 0
DWIDTH 12 0
BBX 13 12 1 0
BITMAP
1838
1C38
1C30
3E70
3E70
3770
3360
73E0
71E0
61E0
61C0
E0C0
ENDCHAR
STARTCHAR 004F
ENCODING 79
SWIDTH 780 0
DWIDTH 13 0
BBX 11 12 2 0
BITMAP
0700
1FC0
3DE0
70E0
6060
E060
E0E0
E0E0
E0C0
E1C0
7F80
3F00
ENDCHAR
STARTCHAR 0050
ENCODING 80
SWIDTH 660 0
DWIDTH 11 0
BBX 11 12 1 0
BITMAP
0F00
1FC0
1FE0
38E0
38E0
31C0
3FC0
7F00
7000
6000
6000
E000
ENDCHAR
STARTCHAR 0051
ENCODING 81
SWIDTH 780 0
DWIDTH 13 0
BBX 11 15 2 -3
BITMAP
0700
1FC0
3DE0
70E0
6060
E060
E0E0
E0E0
E0C0
E1C0
7F80
3F00
0C00
0F80
0700
ENDCHAR
STARTCHAR 0052
ENCODING 82
SWIDTH 660 0
DWIDTH 11 0
BBX 11 12 1 0
BITMAP
0F00
1FC0
1FC0
38E0
38E0
31C0
3F80
7F00
7300
6380
6380
E180
ENDCHAR
STARTCHAR 0053
ENCODING 83
SWIDTH 540 0
DWIDTH 9 0
BBX 9 12 1 0
BITMAP
0F00
3F80
3980
7000
3800
3C00
1F00
0700
0300
0700
FF00
FE00
ENDCHAR
STARTCHAR 0054
ENCODING 84
SWIDTH 600 0
DWIDTH 10 0
BBX 10 12 2 0
BITMAP
7FC0
7FC0
FFC0
0C00
1C00
1C00
1800
1800
3800
3800
3800
3000
ENDCHAR
STARTCHAR 0055
ENCODING 85
SWIDTH 660 0
DWIDTH 11 0
BBX 11 12 2 0
BITMAP
30E0
30E0
70C0
70C0
61C0
61C0
E180
E180
E380
E380
FF00
7E00
ENDCHAR
STARTCHAR 0056
ENCODING 86
SWIDTH 660 0
DWIDTH 11 0
BBX 11 12 3 0
BITMAP
E0E0
E1C0
E1C0
E380
E380
E700
6600
6E00
6C00
7C00
7800
7000
ENDCHAR
STARTCHAR 0057
ENCODING 87
SWIDTH 960 0
DWIDTH 16 0
BBX 15 12 3 0
BITMAP
C00E
C00E
C31C
C71C
C718
CF38
DB30
DBF0
F3E0
F1E0
E1C0
E1C0
ENDCHAR
STARTCHAR 0058
ENCODING 88
SWIDTH 660 0
DWIDTH 11 0
BBX 12 12 1 0
BITMAP
3870
18E0
1CC0
0DC0
0F80
0F00
0F00
1F00
3B80
7380
6180
E1C0
ENDCHAR
STARTCHAR 0059
ENCODING 89
SWIDTH 660 0
DWIDTH 11 0
BBX 10 12 3 0
BITMAP
E1C0
E180
E380
6700
7E00
7C00
3C00
3800
3800
3000
7000
7000
ENDCHAR
STARTCHAR 005A
ENCODING 90
SWIDTH 660 0
DWIDTH 11 0
BBX 11 12 1 0
BITMAP
1FE0
1FE0
3FE0
0380
0700
0E00
0C00
1800
3800
7000
FF80
FF80
ENDCHAR
STARTCHAR 005B
ENCODING 91
SWIDTH 360 0
DWIDTH 6 0
BBX 8 16 1 -3
BITMAP
1F
1E
18
18
38
30
30
30
70
60
60
60
E0
C0
F0
F0
ENDCHAR
STARTCHAR 005C
ENCODING 92
SWIDTH 420 0
DWIDTH 7 0
BBX 4 16 3 -3
BITMAP
C0
C0
C0
C0
C0
C0
E0
E0
E0
60
60
60
60
60
60
70
ENDCHAR
STARTCHAR 005D
ENCODING 93
SWIDTH 360 0
DWIDTH 6 0
BBX 8 16 0 -3
BITMAP
1F
1E
06
06
0E
0C
0C
0C
1C
18
18
18
38
30
F0
F0
ENDCHAR
STARTCHAR 005E
ENCODING 94
SWIDTH 540 0
DWIDTH 9 0
BBX 8 7 2 5
BITMAP
0C
1E
1E
36
77
E3
43
ENDCHAR
STARTCHAR 005F
ENCODING 95
SWIDTH 480 0
DWIDTH 8 0
BBX 8 2 0 -3
BITMAP
FF
FF
ENDCHAR
STARTCHAR 0060
ENCODING 96
SWIDTH 240 0
DWIDTH 4 0
BBX 3 3 3 10
BITMAP
C0
E0
60
ENDCHAR
STARTCHAR 0061
ENCODING 97
SWIDTH 600 0
DWIDTH 10 0
BBX 8 9 2 0
BITMAP
1F
7F
73
E7
C7
C6
C6
FE
7F
ENDCHAR
STARTCHAR 0062
ENCODING 98
SWIDTH 600 0
DWIDTH 10 0
BBX 9 13 1 0
BITMAP
1C00
1800
1800
3800
3F00
3F80
3380
7180
7180
6380
6700
FF00
FC00
ENDCHAR
STARTCHAR 0063
ENCODING 99
SWIDTH 480 0
DWIDTH 8 0
BBX 7 9 2 0
BITMAP
1E
7E
E0
E0
C0
C0
E0
FC
7C
ENDCHAR
STARTCHAR 0064
ENCODING 100
SWIDTH 600 0
DWIDTH 10 0
BBX 10 13 2 0
BITMAP
01C0
0180
0180
0380
1F80
7F00
7300
E700
C700
C600
C600
FE00
7F00
ENDCHAR
STARTCHAR 0065
ENCODING 101
SWIDTH 540 0
DWIDTH 9 0
BBX 8 9 2 0
BITMAP
1E
7E
67
C7
FE
F8
C0
FC
7C
ENDCHAR
STARTCHAR 0066
ENCODING 102
SWIDTH 420 0
DWIDTH 7 0
BBX 10 16 0 -3
BITMAP
03C0
0FC0
0E00
1C00
1F80
1F00
1800
1800
3800
3800
3000
3000
7000
6000
E000
C000
ENDCHAR
STARTCHAR 0067
ENCODING 103
SWIDTH 540 0
DWIDTH 9 0
BBX 9 12 1 -3
BITMAP
0F80
3F80
7180
7380
6380
6300
7F00
7F00
0700
0600
FE00
F800
ENDCHAR
STARTCHAR 0068
ENCODING 104
SWIDTH 540 0
DWIDTH 9 0
BBX 9 13 1 0
BITMAP
1C00
1800
1800
3800
3F00
3F80
3380
7380
7380
6300
6300
6700
E700
ENDCHAR
STARTCHAR 0069
ENCODING 105
SWIDTH 300 0
DWIDTH 5 0
BBX 6 13 1 0
BITMAP
18
1C
18
00
38
30
30
70
70
60
60
60
E0
ENDCHAR
STARTCHAR 006A
ENCODING 106
SWIDTH 300 0
DWIDTH 5 0
BBX 8 16 -1 -3
BITMAP
06
07
06
00
0E
0E
0C
0C
1C
1C
18
18
38
38
F0
E0
ENDCHAR
STARTCHAR 006B
ENCODING 107
SWIDTH 540 0
DWIDTH 9 0
BBX 10 13 1 0
BITMAP
1C00
1800
1800
3800
39C0
3380
3700
7E00
7C00
6E00
6E00
6700
E700
ENDCHAR
STARTCHAR 006C
ENCODING 108
SWIDTH 300 0
DWIDTH 5 0
BBX 4 13 2 0
BITMAP
30
30
30
70
70
60
60
E0
E0
C0
C0
E0
E0
ENDCHAR
STARTCHAR 006D
ENCODING 109
SWIDTH 840 0
DWIDTH 14 0
BBX 13 9 1 0
BITMAP
1E70
3FF8
3398
7398
7398
6318
6338
6738
E730
ENDCHAR
STARTCHAR 006E
ENCODING 110
SWIDTH 540 0
DWIDTH 9 0
BBX 9 9 1 0
BITMAP
1F00
3F80
3380
7380
7380
6300
6300
6700
E700
ENDCHAR
STARTCHAR 006F
ENCODING 111
SWIDTH 600 0
DWIDTH 10 0
BBX 8 9 2 0
BITMAP
1E
7F
E7
E3
C3
C7
C6
FE
7C
ENDCHAR
STARTCHAR 0070
ENCODING 112
SWIDTH 600 0
DWIDTH 10 0
BBX 9 12 1 -3
BITMAP
3F00
3F80
3380
7180
7180
6380
6300
7F00
FC00
E000
C000
C000
ENDCHAR
STARTCHAR 0071
ENCODING 113
SWIDTH 600 0
DWIDTH 10 0
BBX 8 12 2 -3
BITMAP
1F
7F
73
E7
C7
C6
C6
FE
7E
0C
0C
1C
ENDCHAR
STARTCHAR 0072
ENCODING 114
SWIDTH 420 0
DWIDTH 7 0
BBX 8 9 1 0
BITMAP
1F
3E
30
70
70
60
60
60
E0
ENDCHAR
STARTCHAR 0073
ENCODING 115
SWIDTH 480 0
DWIDTH 8 0
BBX 8 9 1 0
BITMAP
1F
3E
70
70
3C
0E
0E
FE
FC
ENDCHAR
STARTCHAR 0074
ENCODING 116
SWIDTH 420 0
DWIDTH 7 0
BBX 6 11 2 0
BITMAP
70
70
7C
7C
E0
E0
C0
C0
C0
F8
F8
ENDCHAR
STARTCHAR 0075
ENCODING 117
SWIDTH 600 0
DWIDTH 10 0
BBX 8 9 2 0
BITMAP
63
63
E7
E7
C6
C6
C6
FE
FE
ENDCHAR
STARTCHAR 0076
ENCODING 118
SWIDTH 540 0
DWIDTH 9 0
BBX 9 9 2 0
BITMAP
E380
E300
E700
E600
EE00
7C00
7800
7800
7000
ENDCHAR
STARTCHAR 0077
ENCODING 119
SWIDTH 840 0
DWIDTH 14 0
BBX 13 9 2 0
BITMAP
E318
E738
E730
EF70
EF60
7BE0
7BC0
73C0
6380
ENDCHAR
STARTCHAR 0078
ENCODING 120
SWIDTH 540 0
DWIDTH 9 0
BBX 9 9 1 0
BITMAP
7180
3380
3F00
1E00
1C00
3E00
3E00
6600
C700
ENDCHAR
STARTCHAR 0079
ENCODING 121
SWIDTH 540 0
DWIDTH 9 0
BBX 10 12 0 -3
BITMAP
38C0
39C0
39C0
1980
1B80
1B00
1F00
1E00
0C00
1C00
F800
F000
ENDCHAR
STARTCHAR 007A
ENCODING 122
SWIDTH 540 0
DWIDTH 9 0
BBX 9 9 1 0
BITMAP
3F80
3F80
0700
0E00
1C00
3800
7000
FE00
FE00
ENDCHAR
STARTCHAR 007B
ENCODING 123
SWIDTH 360 0
DWIDTH 6 0
BBX 8 16 1 -3
BITMAP
07
0F
0C
1C
1C
18
38
70
F0
30
30
70
70
60
78
38
ENDCHAR
STARTCHAR 007C
ENCODING 124
SWIDTH 300 0
DWIDTH 5 0
BBX 6 16 1 -3
BITMAP
1C
18
18
18
38
30
30
30
70
60
60
60
E0
C0
C0
C0
ENDCHAR
STARTCHAR 007D
ENCODING 125
SWIDTH 360 0
DWIDTH 6 0
BBX 8 16 -1 -3
BITMAP
0E
0E
06
06
06
0E
0E
07
0F
1C
1C
18
18
38
70
E0
ENDCHAR
STARTCHAR 007E
ENCODING 126
SWIDTH 540 0
DWIDTH 9 0
BBX 8 4 2 3
BITMAP
70
FB
FE
8C
ENDCHAR
STARTCHAR 00A0
ENCODING 160
SWIDTH 240 0
DWIDTH 4 0
BBX 0 0 0 0
BITMAP
ENDCHAR
STARTCHAR 00A1
ENCODING 161
SWIDTH 300 0
DWIDTH 5 0
BBX 5 12 1 -3
BITMAP
30
38
30
00
30
70
60
60
E0
E0
E0
C0
ENDCHAR
STARTCHAR 00A2
ENCODING 162
SWIDTH 540 0
DWIDTH 9 0
BBX 8 14 2 -2
BITMAP
06
06
0E
1F
3F
70
60
E0
E0
7C
7E
38
30
30
ENDCHAR
STARTCHAR 00A3
ENCODING 163
SWIDTH 540 0
DWIDTH 9 0
BBX 9 12 2 0
BITMAP
0700
1F80
1C00
3800
3000
FE00
FE00
7000
6000
6000
FE00
FE00
ENDCHAR
STARTCHAR 00A4
ENCODING 164
SWIDTH 540 0
DWIDTH 9 0
BBX 8 8 2 2
BITMAP
42
FF
7E
E6
E6
66
FF
C3
ENDCHAR
STARTCHAR 00A5
ENCODING 165
SWIDTH 540 0
DWIDTH 9 0
BBX 10 12 2 0
BITMAP
60C0
61C0
7380
7700
3600
3C00
FF00
3800
3800
FE00
3000
7000
ENDCHAR
STARTCHAR 00A6
ENCODING 166
SWIDTH 300 0
DWIDTH 5 0
BBX 5 16 1 -3
BITMAP
18
18
18
38
38
30
30
00
00
60
60
E0
E0
C0
C0
C0
ENDCHAR
STARTCHAR 00A7
ENCODING 167
SWIDTH 540 0
DWIDTH 9 0
BBX 9 14 1 -2
BITMAP
0F00
1F80
3800
3800
1E00
7700
6300
6300
7E00
1C00
0E00
8E00
FC00
F800
ENDCHAR
STARTCHAR 00A8
ENCODING 168
SWIDTH 540 0
DWIDTH 9 0
BBX 6 3 4 10
BITMAP
40
CC
CC
ENDCHAR
STARTCHAR 00A9
ENCODING 169
SWIDTH 780 0
DWIDTH 13 0
BBX 12 12 2 0
BITMAP
0F00
3FC0
60C0
4F60
DF20
D830
D830
DD20
CF60
6060
39C0
1F80
ENDCHAR
STARTCHAR 00AA
ENCODING 170
SWIDTH 480 0
DWIDTH 8 0
BBX 6 7 3 5
BITMAP
3C
7C
CC
88
98
F8
68
ENDCHAR
STARTCHAR 00AB
ENCODING 171
SWIDTH 600 0
DWIDTH 10 0
BBX 9 8 2 1
BITMAP
1000
3980
7300
E700
CE00
E600
6700
6300
ENDCHAR
STARTCHAR 00AC
ENCODING 172
SWIDTH 540 0
DWIDTH 9 0
BBX 8 6 2 1
BITMAP
FF
FF
06
06
06
0E
ENDCHAR
STARTCHAR 00AD
ENCODING 173
SWIDTH 360 0
DWIDTH 6 0
BBX 5 2 1 4
BITMAP
78
F8
ENDCHAR
STARTCHAR 00AE
ENCODING 174
SWIDTH 780 0
DWIDTH 13 0
BBX 12 12 2 0
BITMAP
0F00
3FC0
60C0
4E60
CF20
CB30
CF30
CB20
C960
6060
39C0
1F80
ENDCHAR
STARTCHAR 00AF
ENCODING 175
SWIDTH 360 0
DWIDTH 6 0
BBX 5 2 3 10
BITMAP
F8
F8
ENDCHAR
STARTCHAR 00B0
ENCODING 176
SWIDTH 360 0
DWIDTH 6 0
BBX 5 5 3 8
BITMAP
70
F8
98
F8
70
ENDCHAR
STARTCHAR 00B1
ENCODING 177
SWIDTH 540 0
DWIDTH 9 0
BBX 9 10 1 0
BITMAP
0600
0600
3F80
7F80
7F80
0C00
1C00
0000
FF00
FF00
ENDCHAR
STARTCHAR 00B2
ENCODING 178
SWIDTH 360 0
DWIDTH 6 0
BBX 5 7 2 5
BITMAP
30
78
18
38
60
F8
F8
ENDCHAR
STARTCHAR 00B3
ENCODING 179
SWIDTH 360 0
DWIDTH 6 0
BBX 5 7 2 5
BITMAP
78
78
18
30
18
98
F0
ENDCHAR
STARTCHAR 00B4
ENCODING 180
SWIDTH 300 0
DWIDTH 5 0
BBX 3 3 3 10
BITMAP
20
60
C0
ENDCHAR
STARTCHAR 00B5
ENCODING 181
SWIDTH 660 0
DWIDTH 11 0
BBX 10 12 1 -3
BITMAP
39C0
39C0
3180
3180
7380
7380
7300
7F80
FF80
E000
C000
C000
ENDCHAR
STARTCHAR 00B6
ENCODING 182
SWIDTH 720 0
DWIDTH 12 0
BBX 10 15 3 -3
BITMAP
0F80
7FC0
FD80
FD80
F980
FB80
FB00
7B00
3300
3700
7600
7600
6600
6E00
6E00
ENDCHAR
STARTCHAR 00B7
ENCODING 183
SWIDTH 240 0
DWIDTH 4 0
BBX 3 3 2 3
BITMAP
E0
E0
C0
ENDCHAR
STARTCHAR 00B8
ENCODING 184
SWIDTH 300 0
DWIDTH 5 0
BBX 4 4 0 -4
BITMAP
20
30
F0
E0
ENDCHAR
STARTCHAR 00B9
ENCODING 185
SWIDTH 360 0
DWIDTH 6 0
BBX 4 7 3 5
BITMAP
30
F0
E0
60
60
60
40
ENDCHAR
STARTCHAR 00BA
ENCODING 186
SWIDTH 420 0
DWIDTH 7 0
BBX 7 7 2 5
BITMAP
1C
7C
66
C6
CC
FC
78
ENDCHAR
STARTCHAR 00BB
ENCODING 187
SWIDTH 600 0
DWIDTH 10 0
BBX 10 8 1 1
BITMAP
0100
3300
3380
3980
39C0
7380
6700
C600
ENDCHAR
STARTCHAR 00BC
ENCODING 188
SWIDTH 900 0
DWIDTH 15 0
BBX 13 12 2 0
BITMAP
1830
7060
F0C0
31C0
3180
6318
6670
0EF0
0CB0
19F0
31F0
7020
ENDCHAR
STARTCHAR 00BD
ENCODING 189
SWIDTH 900 0
DWIDTH 15 0
BBX 12 12 3 0
BITMAP
30E0
E1C0
E180
6300
6700
4EE0
CDF0
1830
3060
71C0
61F0
C3E0
ENDCHAR
STARTCHAR 00BE
ENCODING 190
SWIDTH 900 0
DWIDTH 15 0
BBX 14 12 1 0
BITMAP
3818
3C30
0C70
3860
0CC0
4D8C
FB9C
0328
0648
0CFC
1CF8
1810
ENDCHAR
STARTCHAR 00BF
ENCODING 191
SWIDTH 420 0
DWIDTH 7 0
BBX 7 12 1 -3
BITMAP
04
0E
0E
00
0C
1C
38
70
C0
C0
FC
FC
ENDCHAR
STARTCHAR 00C0
ENCODING 192
SWIDTH 720 0
DWIDTH 12 0
BBX 10 16 1 0
BITMAP
0200
0700
0180
0000
0380
0380
0780
0F80
0DC0
1DC0
19C0
3FC0
7FC0
60C0
E0C0
C0C0
ENDCHAR
STARTCHAR 00C1
ENCODING 193
SWIDTH 720 0
DWIDTH 12 0
BBX 10 16 1 0
BITMAP
0080
01C0
0380
0000
0380
0380
0780
0F80
0DC0
1DC0
19C0
3FC0
7FC0
60C0
E0C0
C0C0
ENDCHAR
STARTCHAR 00C2
ENCODING 194
SWIDTH 720 0
DWIDTH 12 0
BBX 10 16 1 0
BITMAP
0080
0180
03C0
0040
0380
0380
0780
0F80
0DC0
1DC0
19C0
3FC0
7FC0
60C0
E0C0
C0C0
ENDCHAR
STARTCHAR 00C3
ENCODING 195
SWIDTH 720 0
DWIDTH 12 0
BBX 11 15 1 0
BITMAP
03E0
07C0
0000
0380
0380
0780
0F80
0DC0
1DC0
19C0
3FC0
7FC0
60C0
E0C0
C0C0
ENDCHAR
STARTCHAR 00C4
ENCODING 196
SWIDTH 720 0
DWIDTH 12 0
BBX 11 15 1 0
BITMAP
0760
0660
0000
0380
0380
0780
0F80
0DC0
1DC0
19C0
3FC0
7FC0
60C0
E0C0
C0C0
ENDCHAR
STARTCHAR 00C5
ENCODING 197
SWIDTH 720 0
DWIDTH 12 0
BBX 10 15 1 0
BITMAP
0180
03C0
0240
0380
0380
0780
0F80
0DC0
1DC0
19C0
3FC0
7FC0
60C0
E0C0
C0C0
ENDCHAR
STARTCHAR 00C6
ENCODING 198
SWIDTH 960 0
DWIDTH 16 0
BBX 18 12 0 0
BITMAP
003FC0
007FC0
00FF80
01B000
03B000
077F00
0E7F00
0FE000
1FE000
38E000
70FF00
E0FF00
ENDCHAR
STARTCHAR 00C7
ENCODING 199
SWIDTH 660 0
DWIDTH 11 0
BBX 10 16 2 -4
BITMAP
0780
1FC0
3CC0
7000
6000
E000
E000
E000
E000
F000
7F00
3F00
1800
1800
3800
3000
ENDCHAR
STARTCHAR 00C8
ENCODING 200
SWIDTH 600 0
DWIDTH 10 0
BBX 11 16 1 0
BITMAP
0200
0600
0300
0100
1FE0
1FC0
1FC0
3800
3800
3F80
3F80
7000
7000
6000
7F80
FF00
ENDCHAR
STARTCHAR 00C9
ENCODING 201
SWIDTH 600 0
DWIDTH 10 0
BBX 11 16 1 0
BITMAP
0080
01C0
0300
0000
1FE0
1FC0
1FC0
3800
3800
3F80
3F80
7000
7000
6000
7F80
FF00
ENDCHAR
STARTCHAR 00CA
ENCODING 202
SWIDTH 600 0
DWIDTH 10 0
BBX 11 16 1 0
BITMAP
0100
0380
06C0
0000
1FE0
1FC0
1FC0
3800
3800
3F80
3F80
7000
7000
6000
7F80
FF00
ENDCHAR
STARTCHAR 00CB
ENCODING 203
SWIDTH 600 0
DWIDTH 10 0
BBX 11 15 1 0
BITMAP
0EC0
0CC0
0000
1FE0
1FC0
1FC0
3800
3800
3F80
3F80
7000
7000
6000
7F80
FF00
ENDCHAR
STARTCHAR 00CC
ENCODING 204
SWIDTH 300 0
DWIDTH 5 0
BBX 6 16 1 0
BITMAP
10
38
18
08
1C
18
18
38
38
30
30
70
70
60
60
E0
ENDCHAR
STARTCHAR 00CD
ENCODING 205
SWIDTH 300 0
DWIDTH 5 0
BBX 7 16 1 0
BITMAP
04
0E
1C
00
1C
18
18
38
38
30
30
70
70
60
60
E0
ENDCHAR
STARTCHAR 00CE
ENCODING 206
SWIDTH 300 0
DWIDTH 5 0
BBX 7 16 1 0
BITMAP
04
0C
3E
00
1C
18
18
38
38
30
30
70
70
60
60
E0
ENDCHAR
STARTCHAR 00CF
ENCODING 207
SWIDTH 300 0
DWIDTH 5 0
BBX 8 15 1 0
BITMAP
33
33
00
1C
18
18
38
38
30
30
70
70
60
60
E0
ENDCHAR
STARTCHAR 00D0
ENCODING 208
SWIDTH 720 0
DWIDTH 12 0
BBX 12 12 1 0
BITMAP
0F00
1FC0
3FE0
38E0
3870
FC70
FC60
70E0
70E0
63C0
7F80
FE00
ENDCHAR
STARTCHAR 00D1
ENCODING 209
SWIDTH 720 0
DWIDTH 12 0
BBX 13 15 1 0
BITMAP
03E0
07E0
0000
1838
1C38
1C30
3E70
3E70
3770
3360
73E0
71E0
61E0
61C0
E0C0
ENDCHAR
STARTCHAR 00D2
ENCODING 210
SWIDTH 780 0
DWIDTH 13 0
BBX 11 16 2 0
BITMAP
0200
0700
0180
0000
0700
1FC0
3DE0
70E0
6060
E060
E0E0
E0E0
E0C0
E1C0
7F80
3F00
ENDCHAR
STARTCHAR 00D3
ENCODING 211
SWIDTH 780 0
DWIDTH 13 0
BBX 11 16 2 0
BITMAP
0100
0380
0700
0000
0700
1FC0
3DE0
70E0
6060
E060
E0E0
E0E0
E0C0
E1C0
7F80
3F00
ENDCHAR
STARTCHAR 00D4
ENCODING 212
SWIDTH 780 0
DWIDTH 13 0
BBX 11 16 2 0
BITMAP
0100
0300
0780
0080
0700
1FC0
3DE0
70E0
6060
E060
E0E0
E0E0
E0C0
E1C0
7F80
3F00
ENDCHAR
STARTCHAR 00D5
ENCODING 213
SWIDTH 780 0
DWIDTH 13 0
BBX 11 15 2 0
BITMAP
07C0
0F80
0000
0700
1FC0
3DE0
70E0
6060
E060
E0E0
E0E0
E0C0
E1C0
7F80
3F00
ENDCHAR
STARTCHAR 00D6
ENCODING 214
SWIDTH 780 0
DWIDTH 13 0
BBX 11 15 2 0
BITMAP
0CC0
0CC0
0000
0700
1FC0
3DE0
70E0
6060
E060
E0E0
E0E0
E0C0
E1C0
7F80
3F00
ENDCHAR
STARTCHAR 00D7
ENCODING 215
SWIDTH 540 0
DWIDTH 9 0
BBX 8 7 2 2
BITMAP
67
7E
3C
3C
EC
CE
80
ENDCHAR
STARTCHAR 00D8
ENCODING 216
SWIDTH 780 0
DWIDTH 13 0
BBX 11 12 2 -1
BITMAP
0720
1FE0
39E0
71E0
6360
E660
ECE0
FCE0
F8C0
F1C0
7F80
FF00
ENDCHAR
STARTCHAR 00D9
ENCODING 217
SWIDTH 660 0
DWIDTH 11 0
BBX 11 16 2 0
BITMAP
0400
0E00
0600
0200
30E0
30E0
70C0
70C0
61C0
61C0
E180
E180
E380
E380
FF00
7E00
ENDCHAR
STARTCHAR 00DA
ENCODING 218
SWIDTH 660 0
DWIDTH 11 0
BBX 11 16 2 0
BITMAP
0100
0380
0600
0000
30E0
30E0
70C0
70C0
61C0
61C0
E180
E180
E380
E380
FF00
7E00
ENDCHAR
STARTCHAR 00DB
ENCODING 219
SWIDTH 660 0
DWIDTH 11 0
BBX 11 15 2 1
BITMAP
0700
0F80
0000
30E0
30E0
70C0
70C0
61C0
61C0
E180
E180
E380
E380
FF00
7E00
ENDCHAR
STARTCHAR 00DC
ENCODING 220
SWIDTH 660 0
DWIDTH 11 0
BBX 11 15 2 0
BITMAP
0DC0
0DC0
0000
30E0
30E0
70C0
70C0
61C0
61C0
E180
E180
E380
E380
FF00
7E00
ENDCHAR
STARTCHAR 00DD
ENCODING 221
SWIDTH 660 0
DWIDTH 11 0
BBX 10 16 3 0
BITMAP
0200
0600
0C00
0800
E1C0
E180
E380
6700
7E00
7C00
3C00
3800
3800
3000
7000
7000
ENDCHAR
STARTCHAR 00DE
ENCODING 222
SWIDTH 660 0
DWIDTH 11 0
BBX 11 12 1 0
BITMAP
1C00
1800
1F80
3FC0
39C0
30E0
30C0
73C0
7F80
7E00
6000
E000
ENDCHAR
STARTCHAR 00DF
ENCODING 223
SWIDTH 660 0
DWIDTH 11 0
BBX 11 16 0 -3
BITMAP
03C0
0FE0
0E60
1C60
1CC0
1980
1B80
1BC0
39E0
30E0
3060
37E0
77C0
6000
E000
C000
ENDCHAR
STARTCHAR 00E0
ENCODING 224
SWIDTH 600 0
DWIDTH 10 0
BBX 8 13 2 0
BITMAP
0C
0E
03
00
1F
7F
73
E7
C7
C6
C6
FE
7F
ENDCHAR
STARTCHAR 00E1
ENCODING 225
SWIDTH 600 0
DWIDTH 10 0
BBX 8 13 2 0
BITMAP
02
06
0C
00
1F
7F
73
E7
C7
C6
C6
FE
7F
ENDCHAR
STARTCHAR 00E2
ENCODING 226
SWIDTH 600 0
DWIDTH 10 0
BBX 8 13 2 0
BITMAP
04
0E
1B
00
1F
7F
73
E7
C7
C6
C6
FE
7F
ENDCHAR
STARTCHAR 00E3
ENCODING 227
SWIDTH 600 0
DWIDTH 10 0
BBX 9 12 2 1
BITMAP
1F80
1700
0000
1F00
7F00
7300
E700
C700
C600
C600
FE00
7F00
ENDCHAR
STARTCHAR 00E4
ENCODING 228
SWIDTH 600 0
DWIDTH 10 0
BBX 8 13 2 0
BITMAP
11
3B
33
00
1F
7F
73
E7
C7
C6
C6
FE
7F
ENDCHAR
STARTCHAR 00E5
ENCODING 229
SWIDTH 600 0
DWIDTH 10 0
BBX 8 14 2 0
BITMAP
04
0E
0A
0E
00
1F
7F
73
E7
C7
C6
C6
FE
7F
ENDCHAR
STARTCHAR 00E6
ENCODING 230
SWIDTH 840 0
DWIDTH 14 0
BBX 13 9 2 0
BITMAP
7CF0
7FF8
0718
1F38
7FF0
C7C0
CE00
FFE0
FBE0
ENDCHAR
STARTCHAR 00E7
ENCODING 231
SWIDTH 480 0
DWIDTH 8 0
BBX 7 13 2 -4
BITMAP
1E
7E
E0
E0
C0
C0
E0
FC
7C
30
30
F0
60
ENDCHAR
STARTCHAR 00E8
ENCODING 232
SWIDTH 540 0
DWIDTH 9 0
BBX 8 13 2 0
BITMAP
18
1C
06
00
1E
7E
67
C7
FE
F8
C0
FC
7C
ENDCHAR
STARTCHAR 00E9
ENCODING 233
SWIDTH 540 0
DWIDTH 9 0
BBX 8 13 2 0
BITMAP
04
0E
18
00
1E
7E
67
C7
FE
F8
C0
FC
7C
ENDCHAR
STARTCHAR 00EA
ENCODING 234
SWIDTH 540 0
DWIDTH 9 0
BBX 8 13 2 0
BITMAP
04
0E
1B
00
1E
7E
67
C7
FE
F8
C0
FC
7C
ENDCHAR
STARTCHAR 00EB
ENCODING 235
SWIDTH 540 0
DWIDTH 9 0
BBX 9 13 2 0
BITMAP
1100
3B80
1B00
0000
1E00
7E00
6700
C700
FE00
F800
C000
FC00
7C00
ENDCHAR
STARTCHAR 00EC
ENCODING 236
SWIDTH 300 0
DWIDTH 5 0
BBX 5 13 1 0
BITMAP
20
30
18
00
38
30
30
70
70
60
60
60
E0
ENDCHAR
STARTCHAR 00ED
ENCODING 237
SWIDTH 300 0
DWIDTH 5 0
BBX 6 13 1 0
BITMAP
0C
1C
30
00
38
30
30
70
70
60
60
60
E0
ENDCHAR
STARTCHAR 00EE
ENCODING 238
SWIDTH 300 0
DWIDTH 5 0
BBX 6 13 1 0
BITMAP
08
3C
6C
00
38
30
30
70
70
60
60
60
E0
ENDCHAR
STARTCHAR 00EF
ENCODING 239
SWIDTH 300 0
DWIDTH 5 0
BBX 7 13 1 0
BITMAP
20
66
66
00
38
30
30
70
70
60
60
60
E0
ENDCHAR
STARTCHAR 00F0
ENCODING 240
SWIDTH 600 0
DWIDTH 10 0
BBX 10 13 2 0
BITMAP
0400
0FC0
0F80
0F00
0300
3F00
7F00
E300
C300
C700
C700
FE00
7C00
ENDCHAR
STARTCHAR 00F1
ENCODING 241
SWIDTH 540 0
DWIDTH 9 0
BBX 9 12 1 1
BITMAP
0F80
0B00
0000
1F00
3F80
3380
7380
7380
6300
6300
6700
E700
ENDCHAR
STARTCHAR 00F2
ENCODING 242
SWIDTH 600 0
DWIDTH 10 0
BBX 8 13 2 0
BITMAP
18
1C
0C
00
1E
7F
E7
E3
C3
C7
C6
FE
7C
ENDCHAR
STARTCHAR 00F3
ENCODING 243
SWIDTH 600 0
DWIDTH 10 0
BBX 8 13 2 0
BITMAP
06
0E
1C
00
1E
7F
E7
E3
C3
C7
C6
FE
7C
ENDCHAR
STARTCHAR 00F4
ENCODING 244
SWIDTH 600 0
DWIDTH 10 0
BBX 8 13 2 0
BITMAP
04
0E
1B
00
1E
7F
E7
E3
C3
C7
C6
FE
7C
ENDCHAR
STARTCHAR 00F5
ENCODING 245
SWIDTH 600 0
DWIDTH 10 0
BBX 8 12 2 1
BITMAP
3F
36
00
1E
7F
E7
E3
C3
C7
C6
FE
7C
ENDCHAR
STARTCHAR 00F6
ENCODING 246
SWIDTH 600 0
DWIDTH 10 0
BBX 8 13 2 0
BITMAP
10
33
33
00
1E
7F
E7
E3
C3
C7
C6
FE
7C
ENDCHAR
STARTCHAR 00F7
ENCODING 247
SWIDTH 540 0
DWIDTH 9 0
BBX 8 10 2 0
BITMAP
08
1C
18
00
FF
FE
00
30
70
30
ENDCHAR
STARTCHAR 00F8
ENCODING 248
SWIDTH 600 0
DWIDTH 10 0
BBX 9 9 1 -1
BITMAP
0F80
3F80
7380
6780
6D80
7B80
7300
7F00
FE00
ENDCHAR
STARTCHAR 00F9
ENCODING 249
SWIDTH 600 0
DWIDTH 10 0
BBX 8 13 2 0
BITMAP
10
18
0C
00
63
63
E7
E7
C6
C6
C6
FE
FE
ENDCHAR
STARTCHAR 00FA
ENCODING 250
SWIDTH 600 0
DWIDTH 10 0
BBX 8 13 2 0
BITMAP
06
0E
0C
00
63
63
E7
E7
C6
C6
C6
FE
FE
ENDCHAR
STARTCHAR 00FB
ENCODING 251
SWIDTH 600 0
DWIDTH 10 0
BBX 8 13 2 0
BITMAP
04
0E
1B
00
63
63
E7
E7
C6
C6
C6
FE
FE
ENDCHAR
STARTCHAR 00FC
ENCODING 252
SWIDTH 600 0
DWIDTH 10 0
BBX 8 13 2 0
BITMAP
11
3B
33
00
63
63
E7
E7
C6
C6
C6
FE
FE
ENDCHAR
STARTCHAR 00FD
ENCODING 253
SWIDTH 540 0
DWIDTH 9 0
BBX 10 16 0 -3
BITMAP
0100
0380
0600
0000
38C0
39C0
39C0
1980
1B80
1B00
1F00
1E00
0C00
1C00
F800
F000
ENDCHAR
STARTCHAR 00FE
ENCODING 254
SWIDTH 600 0
DWIDTH 10 0
BBX 9 16 1 -3
BITMAP
1C00
1800
1800
3800
3F00
3F80
3380
7180
7180
6380
6300
7F00
FC00
E000
C000
C000
ENDCHAR
STARTCHAR 00FF
ENCODING 255
SWIDTH 540 0
DWIDTH 9 0
BBX 10 16 0 -3
BITMAP
0400
0CC0
0CC0
0000
38C0
39C0
39C0
1980
1B80
1B00
1F00
1E00
0C00
1C00
F800
F000
ENDCHAR
STARTCHAR 0100
ENCODING 256
SWIDTH 720 0
DWIDTH 12 0
BBX 11 15 1 0
BITMAP
03E0
07E0
0000
0380
0380
0780
0F80
0DC0
1DC0
19C0
3FC0
7FC0
60C0
E0C0
C0C0
ENDCHAR
STARTCHAR 0101
ENCODING 257
SWIDTH 600 0
DWIDTH 10 0
BBX 9 12 2 0
BITMAP
1F80
1F00
0000
1F00
7F00
7300
E700
C700
C600
C600
FE00
7F00
ENDCHAR
STARTCHAR 0102
ENCODING 258
SWIDTH 720 0
DWIDTH 12 0
BBX 11 15 1 0
BITMAP
0260
03C0
0000
0380
0380
0780
0F80
0DC0
1DC0
19C0
3FC0
7FC0
60C0
E0C0
C0C0
ENDCHAR
STARTCHAR 0103
ENCODING 259
SWIDTH 600 0
DWIDTH 10 0
BBX 9 13 2 0
BITMAP
0980
0F80
0F00
0000
1F00
7F00
7300
E700
C700
C600
C600
FE00
7F00
ENDCHAR
STARTCHAR 0104
ENCODING 260
SWIDTH 720 0
DWIDTH 12 0
BBX 10 16 1 -4
BITMAP
0380
0380
0780
0F80
0DC0
1DC0
19C0
3FC0
7FC0
60C0
E0C0
C0C0
00C0
0180
01C0
01C0
ENDCHAR
STARTCHAR 0105
ENCODING 261
SWIDTH 600 0
DWIDTH 10 0
BBX 8 13 2 -4
BITMAP
1F
7F
73
E7
C7
C6
C6
FE
7F
06
0C
0E
0E
ENDCHAR
STARTCHAR 0106
ENCODING 262
SWIDTH 660 0
DWIDTH 11 0
BBX 10 16 2 0
BITMAP
0100
0380
0600
0000
0780
1FC0
3CC0
7000
6000
E000
E000
E000
E000
F000
7F00
3F00
ENDCHAR
STARTCHAR 0107
ENCODING 263
SWIDTH 480 0
DWIDTH 8 0
BBX 7 13 2 0
BITMAP
04
0C
18
00
1E
7E
E0
E0
C0
C0
E0
FC
7C
ENDCHAR
STARTCHAR 0108
ENCODING 264
SWIDTH 660 0
DWIDTH 11 0
BBX 10 16 2 0
BITMAP
0100
0380
06C0
0000
0780
1FC0
3CC0
7000
6000
E000
E000
E000
E000
F000
7F00
3F00
ENDCHAR
STARTCHAR 0109
ENCODING 265
SWIDTH 480 0
DWIDTH 8 0
BBX 8 13 2 0
BITMAP
04
0E
1B
00
1E
7E
E0
E0
C0
C0
E0
FC
7C
ENDCHAR
STARTCHAR 010A
ENCODING 266
SWIDTH 660 0
DWIDTH 11 0
BBX 10 15 2 0
BITMAP
0380
0380
0000
0780
1FC0
3CC0
7000
6000
E000
E000
E000
E000
F000
7F00
3F00
ENDCHAR
STARTCHAR 010B
ENCODING 267
SWIDTH 480 0
DWIDTH 8 0
BBX 7 13 2 0
BITMAP
04
0E
0C
00
1E
7E
E0
E0
C0
C0
E0
FC
7C
ENDCHAR
STARTCHAR 010C
ENCODING 268
SWIDTH 660 0
DWIDTH 11 0
BBX 10 16 2 0
BITMAP
0040
07C0
0300
0000
0780
1FC0
3CC0
7000
6000
E000
E000
E000
E000
F000
7F00
3F00
ENDCHAR
STARTCHAR 010D
ENCODING 269
SWIDTH 480 0
DWIDTH 8 0
BBX 8 13 2 0
BITMAP
1B
0E
0C
00
1E
7E
E0
E0
C0
C0
E0
FC
7C
ENDCHAR
STARTCHAR 010E
ENCODING 270
SWIDTH 720 0
DWIDTH 12 0
BBX 12 16 1 0
BITMAP
0040
07C0
0300
0000
0F00
1FC0
3FE0
38E0
3870
3070
3060
70E0
70E0
63C0
7F80
FE00
ENDCHAR
STARTCHAR 010F
ENCODING 271
SWIDTH 660 0
DWIDTH 11 0
BBX 13 13 2 0
BITMAP
01D8
01B0
01B0
03B0
1F80
7F00
7300
E700
C700
C600
C600
FE00
7F00
ENDCHAR
STARTCHAR 0110
ENCODING 272
SWIDTH 720 0
DWIDTH 12 0
BBX 12 12 1 0
BITMAP
0F00
1FC0
3FE0
38E0
3870
FC70
FC60
70E0
70E0
63C0
7F80
FE00
ENDCHAR
STARTCHAR 0111
ENCODING 273
SWIDTH 600 0
DWIDTH 10 0
BBX 10 13 2 0
BITMAP
01C0
0180
0FC0
0380
1F80
7F00
7300
E700
C700
C600
C600
FE00
7F00
ENDCHAR
STARTCHAR 0112
ENCODING 274
SWIDTH 600 0
DWIDTH 10 0
BBX 11 15 1 0
BITMAP
07C0
07C0
0000
1FE0
1FC0
1FC0
3800
3800
3F80
3F80
7000
7000
6000
7F80
FF00
ENDCHAR
STARTCHAR 0113
ENCODING 275
SWIDTH 540 0
DWIDTH 9 0
BBX 8 12 2 0
BITMAP
1F
3F
00
1E
7E
67
C7
FE
F8
C0
FC
7C
ENDCHAR
STARTCHAR 0114
ENCODING 276
SWIDTH 600 0
DWIDTH 10 0
BBX 11 15 1 0
BITMAP
06C0
0780
0000
1FE0
1FC0
1FC0
3800
3800
3F80
3F80
7000
7000
6000
7F80
FF00
ENDCHAR
STARTCHAR 0115
ENCODING 277
SWIDTH 540 0
DWIDTH 9 0
BBX 8 13 2 0
BITMAP
1B
1F
0E
00
1E
7E
67
C7
FE
F8
C0
FC
7C
ENDCHAR
STARTCHAR 0116
ENCODING 278
SWIDTH 600 0
DWIDTH 10 0
BBX 11 15 1 0
BITMAP
0380
0300
0000
1FE0
1FC0
1FC0
3800
3800
3F80
3F80
7000
7000
6000
7F80
FF00
ENDCHAR
STARTCHAR 0117
ENCODING 279
SWIDTH 540 0
DWIDTH 9 0
BBX 8 13 2 0
BITMAP
04
0E
0C
00
1E
7E
67
C7
FE
F8
C0
FC
7C
ENDCHAR
STARTCHAR 0118
ENCODING 280
SWIDTH 600 0
DWIDTH 10 0
BBX 11 16 1 -4
BITMAP
1FE0
1FC0
1FC0
3800
3800
3F80
3F80
7000
7000
6000
7F80
FF00
0600
0E00
0F00
0600
ENDCHAR
STARTCHAR 0119
ENCODING 281
SWIDTH 540 0
DWIDTH 9 0
BBX 8 13 2 -4
BITMAP
1E
7E
67
C7
FE
F8
C0
FC
7C
18
30
38
18
ENDCHAR
STARTCHAR 011A
ENCODING 282
SWIDTH 600 0
DWIDTH 10 0
BBX 11 16 1 0
BITMAP
0400
0780
0300
0000
1FE0
1FC0
1FC0
3800
3800
3F80
3F80
7000
7000
6000
7F80
FF00
ENDCHAR
STARTCHAR 011B
ENCODING 283
SWIDTH 540 0
DWIDTH 9 0
BBX 8 13 2 0
BITMAP
1B
0E
04
00
1E
7E
67
C7
FE
F8
C0
FC
7C
ENDCHAR
STARTCHAR 011C
ENCODING 284
SWIDTH 660 0
DWIDTH 11 0
BBX 10 16 2 0
BITMAP
0100
0380
0780
0080
0780
1FC0
3CC0
7000
6000
E000
E1C0
E180
E180
F380
7F80
3F00
ENDCHAR
STARTCHAR 011D
ENCODING 285
SWIDTH 540 0
DWIDTH 9 0
BBX 9 16 1 -3
BITMAP
0100
0700
0D80
0000
0F80
3F80
7180
7380
6380
6300
7F00
7F00
0700
0600
FE00
F800
ENDCHAR
STARTCHAR 011E
ENCODING 286
SWIDTH 660 0
DWIDTH 11 0
BBX 10 15 2 0
BITMAP
04C0
0780
0000
0780
1FC0
3CC0
7000
6000
E000
E1C0
E180
E180
F380
7F80
3F00
ENDCHAR
STARTCHAR 011F
ENCODING 287
SWIDTH 540 0
DWIDTH 9 0
BBX 10 16 1 -3
BITMAP
04C0
07C0
0780
0000
0F80
3F80
7180
7380
6380
6300
7F00
7F00
0700
0600
FE00
F800
ENDCHAR
STARTCHAR 0120
ENCODING 288
SWIDTH 660 0
DWIDTH 11 0
BBX 10 15 2 0
BITMAP
0380
0300
0000
0780
1FC0
3CC0
7000
6000
E000
E1C0
E180
E180
F380
7F80
3F00
ENDCHAR
STARTCHAR 0121
ENCODING 289
SWIDTH 540 0
DWIDTH 9 0
BBX 9 16 1 -3
BITMAP
0200
0700
0300
0000
0F80
3F80
7180
7380
6380
6300
7F00
7F00
0700
0600
FE00
F800
ENDCHAR
STARTCHAR 0122
ENCODING 290
SWIDTH 660 0
DWIDTH 11 0
BBX 10 16 2 -4
BITMAP
0780
1FC0
3CC0
7000
6000
E000
E1C0
E180
E180
F380
7F80
3F00
0000
0C00
3800
3000
ENDCHAR
STARTCHAR 0123
ENCODING 291
SWIDTH 540 0
DWIDTH 9 0
BBX 9 16 1 -3
BITMAP
0180
0300
0300
0000
0F80
3F80
7180
7380
6380
6300
7F00
7F00
0700
0600
FE00
F800
ENDCHAR
STARTCHAR 0124
ENCODING 292
SWIDTH 720 0
DWIDTH 12 0
BBX 12 16 1 0
BITMAP
0080
0180
07C0
0000
1C30
1870
1870
3870
3860
3FE0
3FE0
70E0
70C0
60C0
61C0
E1C0
ENDCHAR
STARTCHAR 0125
ENCODING 293
SWIDTH 540 0
DWIDTH 9 0
BBX 9 16 1 0
BITMAP
0600
0F00
0900
1C00
1800
1800
3800
3F00
3F80
3380
7380
7380
6300
6300
6700
E700
ENDCHAR
STARTCHAR 0126
ENCODING 294
SWIDTH 720 0
DWIDTH 12 0
BBX 13 12 1 0
BITMAP
1C30
1870
7FF8
7FF8
3860
3FE0
3FE0
70E0
70C0
60C0
61C0
E1C0
ENDCHAR
STARTCHAR 0127
ENCODING 295
SWIDTH 540 0
DWIDTH 9 0
BBX 9 13 1 0
BITMAP
1C00
1800
3F00
3800
3E00
3F00
3380
7380
7380
6300
6300
6700
E700
ENDCHAR
STARTCHAR 0128
ENCODING 296
SWIDTH 300 0
DWIDTH 5 0
BBX 8 15 1 0
BITMAP
3F
3E
00
1C
18
18
38
38
30
30
70
70
60
60
E0
ENDCHAR
STARTCHAR 0129
ENCODING 297
SWIDTH 300 0
DWIDTH 5 0
BBX 7 12 1 1
BITMAP
7E
6C
00
38
30
30
70
70
60
60
60
E0
ENDCHAR
STARTCHAR 012A
ENCODING 298
SWIDTH 300 0
DWIDTH 5 0
BBX 8 15 1 0
BITMAP
3F
3F
00
1C
18
18
38
38
30
30
70
70
60
60
E0
ENDCHAR
STARTCHAR 012B
ENCODING 299
SWIDTH 300 0
DWIDTH 5 0
BBX 7 12 1 0
BITMAP
7E
7E
00
38
30
30
70
70
60
60
60
E0
ENDCHAR
STARTCHAR 012C
ENCODING 300
SWIDTH 300 0
DWIDTH 5 0
BBX 8 15 1 0
BITMAP
33
1E
00
1C
18
18
38
38
30
30
70
70
60
60
E0
ENDCHAR
STARTCHAR 012D
ENCODING 301
SWIDTH 300 0
DWIDTH 5 0
BBX 7 13 1 0
BITMAP
26
3E
3C
00
38
30
30
70
70
60
60
60
E0
ENDCHAR
STARTCHAR 012E
ENCODING 302
SWIDTH 300 0
DWIDTH 5 0
BBX 7 16 0 -4
BITMAP
0E
0C
0C
1C
1C
18
18
38
38
30
30
70
60
C0
E0
60
ENDCHAR
STARTCHAR 012F
ENCODING 303
SWIDTH 300 0
DWIDTH 5 0
BBX 7 17 0 -4
BITMAP
0C
0E
0C
00
1C
18
18
38
38
30
30
30
70
60
C0
E0
E0
ENDCHAR
STARTCHAR 0130
ENCODING 304
SWIDTH 300 0
DWIDTH 5 0
BBX 6 15 1 0
BITMAP
0C
0C
00
1C
18
18
38
38
30
30
70
70
60
60
E0
ENDCHAR
STARTCHAR 0131
ENCODING 305
SWIDTH 300 0
DWIDTH 5 0
BBX 5 9 1 0
BITMAP
38
30
30
70
70
60
60
60
E0
ENDCHAR
STARTCHAR 0132
ENCODING 306
SWIDTH 840 0
DWIDTH 14 0
BBX 14 12 1 0
BITMAP
1C0C
180C
181C
381C
3818
3018
3038
7038
7038
6070
67F0
E7E0
ENDCHAR
STARTCHAR 0133
ENCODING 307
SWIDTH 600 0
DWIDTH 10 0
BBX 11 16 1 -3
BITMAP
18C0
1CE0
18C0
0000
39C0
31C0
3180
7180
7380
6380
6300
6300
E700
0700
1E00
1C00
ENDCHAR
STARTCHAR 0134
ENCODING 308
SWIDTH 540 0
DWIDTH 9 0
BBX 10 16 1 0
BITMAP
0080
01C0
03C0
0040
0380
0380
0380
0300
0700
0700
0700
0600
0E00
8E00
FC00
F800
ENDCHAR
STARTCHAR 0135
ENCODING 309
SWIDTH 300 0
DWIDTH 5 0
BBX 8 16 -1 -3
BITMAP
02
0F
0B
00
0E
0E
0C
0C
1C
1C
18
18
38
38
F0
E0
ENDCHAR
STARTCHAR 0136
ENCODING 310
SWIDTH 660 0
DWIDTH 11 0
BBX 12 16 1 -4
BITMAP
1C70
18E0
19C0
3B80
3F00
3E00
3E00
7E00
7700
6380
6380
E1C0
0000
0C00
3800
3000
ENDCHAR
STARTCHAR 0137
ENCODING 311
SWIDTH 540 0
DWIDTH 9 0
BBX 10 17 1 -4
BITMAP
1C00
1800
1800
3800
39C0
3380
3700
7E00
7C00
6E00
6E00
6700
E700
0000
1800
3000
6000
ENDCHAR
STARTCHAR 0138
ENCODING 312
SWIDTH 600 0
DWIDTH 10 0
BBX 10 9 1 0
BITMAP
39C0
3380
3700
7E00
7C00
6E00
6E00
6700
E700
ENDCHAR
STARTCHAR 0139
ENCODING 313
SWIDTH 540 0
DWIDTH 9 0
BBX 8 15 1 1
BITMAP
06
0C
08
1C
18
18
38
38
30
30
70
70
60
7F
FF
ENDCHAR
STARTCHAR 013A
ENCODING 314
SWIDTH 300 0
DWIDTH 5 0
BBX 6 16 2 0
BITMAP
04
1C
20
30
30
30
70
70
60
60
E0
E0
C0
C0
E0
E0
ENDCHAR
STARTCHAR 013B
ENCODING 315
SWIDTH 540 0
DWIDTH 9 0
BBX 8 16 1 -4
BITMAP
1C
18
18
38
38
30
30
70
70
60
7F
FF
00
18
38
30
ENDCHAR
STARTCHAR 013C
ENCODING 316
SWIDTH 300 0
DWIDTH 5 0
BBX 5 17 1 -4
BITMAP
18
18
18
38
38
30
30
70
70
60
60
70
70
00
60
E0
80
ENDCHAR
STARTCHAR 013D
ENCODING 317
SWIDTH 540 0
DWIDTH 9 0
BBX 9 12 1 0
BITMAP
1D80
1980
1900
3B00
3800
3000
3000
7000
7000
6000
7F00
FF00
ENDCHAR
STARTCHAR 013E
ENCODING 318
SWIDTH 360 0
DWIDTH 6 0
BBX 8 13 1 0
BITMAP
1B
3B
3B
32
30
70
70
60
60
60
E0
F0
70
ENDCHAR
STARTCHAR 013F
ENCODING 319
SWIDTH 540 0
DWIDTH 9 0
BBX 9 12 1 0
BITMAP
1C00
1800
1800
3800
3980
3380
3180
7000
7000
6000
7F00
FF00
ENDCHAR
STARTCHAR 0140
ENCODING 320
SWIDTH 480 0
DWIDTH 8 0
BBX 8 13 1 0
BITMAP
18
38
38
30
30
73
77
63
60
60
E0
F0
70
ENDCHAR
STARTCHAR 0141
ENCODING 321
SWIDTH 540 0
DWIDTH 9 0
BBX 8 12 1 0
BITMAP
1C
18
18
38
3E
3C
F0
F0
70
60
7F
FF
ENDCHAR
STARTCHAR 0142
ENCODING 322
SWIDTH 300 0
DWIDTH 5 0
BBX 6 13 1 0
BITMAP
18
38
38
30
3C
7C
F0
E0
60
60
E0
F0
70
ENDCHAR
STARTCHAR 0143
ENCODING 323
SWIDTH 720 0
DWIDTH 12 0
BBX 13 16 1 0
BITMAP
0040
00C0
0180
0100
1838
1C38
1C30
3E70
3E70
3770
3360
73E0
71E0
61E0
61C0
E0C0
ENDCHAR
STARTCHAR 0144
ENCODING 324
SWIDTH 540 0
DWIDTH 9 0
BBX 9 13 1 0
BITMAP
0100
0300
0600
0000
1F00
3F80
3380
7380
7380
6300
6300
6700
E700
ENDCHAR
STARTCHAR 0145
ENCODING 325
SWIDTH 720 0
DWIDTH 12 0
BBX 13 16 1 -4
BITMAP
1838
1C38
1C30
3E70
3E70
3770
3360
73E0
71E0
61E0
61C0
E0C0
0000
0C00
1C00
1000
ENDCHAR
STARTCHAR 0146
ENCODING 326
SWIDTH 540 0
DWIDTH 9 0
BBX 9 13 1 -4
BITMAP
1F00
3F80
3380
7380
7380
6300
6300
6700
E700
0000
3800
7000
6000
ENDCHAR
STARTCHAR 0147
ENCODING 327
SWIDTH 720 0
DWIDTH 12 0
BBX 13 16 1 0
BITMAP
0240
03C0
0180
0000
1838
1C38
1C30
3E70
3E70
3770
3360
73E0
71E0
61E0
61C0
E0C0
ENDCHAR
STARTCHAR 0148
ENCODING 328
SWIDTH 540 0
DWIDTH 9 0
BBX 9 13 1 0
BITMAP
0D80
0700
0600
0000
1F00
3F80
3380
7380
7380
6300
6300
6700
E700
ENDCHAR
STARTCHAR 0149
ENCODING 329
SWIDTH 600 0
DWIDTH 10 0
BBX 8 13 2 0
BITMAP
60
C0
C0
80
3E
3F
73
73
63
63
E7
E7
C6
ENDCHAR
STARTCHAR 014A
ENCODING 330
SWIDTH 720 0
DWIDTH 12 0
BBX 13 15 1 -3
BITMAP
1838
1C38
1C30
3E70
3E70
3770
3360
73E0
71E0
61E0
61C0
E0C0
01C0
0780
0780
ENDCHAR
STARTCHAR 014B
ENCODING 331
SWIDTH 540 0
DWIDTH 9 0
BBX 9 12 1 -3
BITMAP
1F00
3F80
3380
7380
7380
6300
6300
6700
E700
0600
1E00
1C00
ENDCHAR
STARTCHAR 014C
ENCODING 332
SWIDTH 780 0
DWIDTH 13 0
BBX 11 15 2 0
BITMAP
07C0
0FC0
0000
0700
1FC0
3DE0
70E0
6060
E060
E0E0
E0E0
E0C0
E1C0
7F80
3F00
ENDCHAR
STARTCHAR 014D
ENCODING 333
SWIDTH 600 0
DWIDTH 10 0
BBX 8 12 2 0
BITMAP
3F
3F
00
1E
7F
E7
E3
C3
C7
C6
FE
7C
ENDCHAR
STARTCHAR 014E
ENCODING 334
SWIDTH 780 0
DWIDTH 13 0
BBX 11 15 2 0
BITMAP
0CC0
0780
0000
0700
1FC0
3DE0
70E0
6060
E060
E0E0
E0E0
E0C0
E1C0
7F80
3F00
ENDCHAR
STARTCHAR 014F
ENCODING 335
SWIDTH 600 0
DWIDTH 10 0
BBX 8 13 2 0
BITMAP
33
1E
1C
00
1E
7F
E7
E3
C3
C7
C6
FE
7C
ENDCHAR
STARTCHAR 0150
ENCODING 336
SWIDTH 780 0
DWIDTH 13 0
BBX 11 16 2 0
BITMAP
0240
06E0
0DC0
0000
0700
1FC0
3DE0
70E0
6060
E060
E0E0
E0E0
E0C0
E1C0
7F80
3F00
ENDCHAR
STARTCHAR 0151
ENCODING 337
SWIDTH 600 0
DWIDTH 10 0
BBX 9 13 2 0
BITMAP
0980
1B80
3300
0000
1E00
7F00
E700
E300
C300
C700
C600
FE00
7C00
ENDCHAR
STARTCHAR 0152
ENCODING 338
SWIDTH 960 0
DWIDTH 16 0
BBX 16 12 2 0
BITMAP
03FF
1FFF
3FFF
70E0
60C0
E0FC
E1FC
E1C0
E180
F180
7FFC
3FFC
ENDCHAR
STARTCHAR 0153
ENCODING 339
SWIDTH 840 0
DWIDTH 14 0
BBX 13 9 2 0
BITMAP
1C70
7FF8
E798
E318
C3F8
C7E0
C700
FFF0
79F0
ENDCHAR
STARTCHAR 0154
ENCODING 340
SWIDTH 660 0
DWIDTH 11 0
BBX 11 16 1 0
BITMAP
0100
0380
0700
0200
0F00
1FC0
1FC0
38E0
38E0
31C0
3F80
7F00
7300
6380
6380
E180
ENDCHAR
STARTCHAR 0155
ENCODING 341
SWIDTH 420 0
DWIDTH 7 0
BBX 8 13 1 0
BITMAP
02
06
0C
00
1F
3E
30
70
70
60
60
60
E0
ENDCHAR
STARTCHAR 0156
ENCODING 342
SWIDTH 660 0
DWIDTH 11 0
BBX 11 16 1 -4
BITMAP
0F00
1FC0
1FC0
38E0
38E0
31C0
3F80
7F00
7300
6380
6380
E180
0000
1800
3800
3000
ENDCHAR
STARTCHAR 0157
ENCODING 343
SWIDTH 420 0
DWIDTH 7 0
BBX 9 13 0 -4
BITMAP
0F80
1F00
1800
3800
3800
3000
3000
3000
7000
0000
6000
E000
8000
ENDCHAR
STARTCHAR 0158
ENCODING 344
SWIDTH 660 0
DWIDTH 11 0
BBX 11 16 1 0
BITMAP
0480
0780
0300
0000
0F00
1FC0
1FC0
38E0
38E0
31C0
3F80
7F00
7300
6380
6380
E180
ENDCHAR
STARTCHAR 0159
ENCODING 345
SWIDTH 420 0
DWIDTH 7 0
BBX 8 13 1 0
BITMAP
09
0F
04
00
1F
3E
30
70
70
60
60
60
E0
ENDCHAR
STARTCHAR 015A
ENCODING 346
SWIDTH 540 0
DWIDTH 9 0
BBX 9 16 1 0
BITMAP
0100
0300
0600
0400
0F00
3F80
3980
7000
3800
3C00
1F00
0700
0300
0700
FF00
FE00
ENDCHAR
STARTCHAR 015B
ENCODING 347
SWIDTH 480 0
DWIDTH 8 0
BBX 8 13 1 0
BITMAP
02
06
0C
00
1F
3E
70
70
3C
0E
0E
FE
FC
ENDCHAR
STARTCHAR 015C
ENCODING 348
SWIDTH 540 0
DWIDTH 9 0
BBX 9 15 1 1
BITMAP
0700
0D80
0000
0F00
3F80
3980
7000
3800
3C00
1F00
0700
0300
0700
FF00
FE00
ENDCHAR
STARTCHAR 015D
ENCODING 349
SWIDTH 480 0
DWIDTH 8 0
BBX 8 13 1 0
BITMAP
04
0E
1B
00
1F
3E
70
70
3C
0E
0E
FE
FC
ENDCHAR
STARTCHAR 015E
ENCODING 350
SWIDTH 540 0
DWIDTH 9 0
BBX 9 16 1 -4
BITMAP
0F00
3F80
3980
7000
3800
3C00
1F00
0700
0300
0700
FF00
FE00
3000
3000
7000
6000
ENDCHAR
STARTCHAR 015F
ENCODING 351
SWIDTH 480 0
DWIDTH 8 0
BBX 8 13 1 -4
BITMAP
1F
3E
70
70
3C
0E
0E
FE
FC
30
10
70
60
ENDCHAR
STARTCHAR 0160
ENCODING 352
SWIDTH 540 0
DWIDTH 9 0
BBX 9 16 1 0
BITMAP
0480
0780
0700
0000
0F00
3F80
3980
7000
3800
3C00
1F00
0700
0300
0700
FF00
FE00
ENDCHAR
STARTCHAR 0161
ENCODING 353
SWIDTH 480 0
DWIDTH 8 0
BBX 8 13 1 0
BITMAP
19
0E
04
00
1F
3E
70
70
3C
0E
0E
FE
FC
ENDCHAR
STARTCHAR 0162
ENCODING 354
SWIDTH 600 0
DWIDTH 10 0
BBX 10 16 2 -4
BITMAP
7FC0
7FC0
FFC0
0C00
1C00
1C00
1800
1800
3800
3800
3800
3000
2000
3000
F000
6000
ENDCHAR
STARTCHAR 0163
ENCODING 355
SWIDTH 420 0
DWIDTH 7 0
BBX 6 15 2 -4
BITMAP
70
70
7C
7C
E0
E0
C0
C0
C0
F8
F8
60
30
E0
C0
ENDCHAR
STARTCHAR 0164
ENCODING 356
SWIDTH 600 0
DWIDTH 10 0
BBX 10 16 2 0
BITMAP
0900
0F00
0600
0000
7FC0
7FC0
FFC0
0C00
1C00
1C00
1800
1800
3800
3800
3800
3000
ENDCHAR
STARTCHAR 0165
ENCODING 357
SWIDTH 420 0
DWIDTH 7 0
BBX 7 13 2 0
BITMAP
06
06
74
70
7C
7C
E0
E0
C0
C0
C0
F8
F8
ENDCHAR
STARTCHAR 0166
ENCODING 358
SWIDTH 600 0
DWIDTH 10 0
BBX 10 12 2 0
BITMAP
7FC0
7FC0
FFC0
0C00
1C00
1C00
7F00
FF00
3800
3800
3800
3000
ENDCHAR
STARTCHAR 0167
ENCODING 359
SWIDTH 420 0
DWIDTH 7 0
BBX 6 11 2 0
BITMAP
70
70
7C
7C
E0
E0
F8
C0
C0
F8
F8
ENDCHAR
STARTCHAR 0168
ENCODING 360
SWIDTH 660 0
DWIDTH 11 0
BBX 11 15 2 0
BITMAP
0FC0
0F80
0000
30E0
30E0
70C0
70C0
61C0
61C0
E180
E180
E380
E380
FF00
7E00
ENDCHAR
STARTCHAR 0169
ENCODING 361
SWIDTH 600 0
DWIDTH 10 0
BBX 8 12 2 1
BITMAP
1F
36
00
63
63
E7
E7
C6
C6
C6
FE
FE
ENDCHAR
STARTCHAR 016A
ENCODING 362
SWIDTH 660 0
DWIDTH 11 0
BBX 11 15 2 0
BITMAP
0FC0
0F80
0000
30E0
30E0
70C0
70C0
61C0
61C0
E180
E180
E380
E380
FF00
7E00
ENDCHAR
STARTCHAR 016B
ENCODING 363
SWIDTH 600 0
DWIDTH 10 0
BBX 8 12 2 0
BITMAP
3F
3F
00
63
63
E7
E7
C6
C6
C6
FE
FE
ENDCHAR
STARTCHAR 016C
ENCODING 364
SWIDTH 660 0
DWIDTH 11 0
BBX 11 15 2 0
BITMAP
0D80
0780
0000
30E0
30E0
70C0
70C0
61C0
61C0
E180
E180
E380
E380
FF00
7E00
ENDCHAR
STARTCHAR 016D
ENCODING 365
SWIDTH 600 0
DWIDTH 10 0
BBX 8 13 2 0
BITMAP
13
1F
1E
00
63
63
E7
E7
C6
C6
C6
FE
FE
ENDCHAR
STARTCHAR 016E
ENCODING 366
SWIDTH 660 0
DWIDTH 11 0
BBX 11 16 2 0
BITMAP
0700
0500
0500
0700
30E0
30E0
70C0
70C0
61C0
61C0
E180
E180
E380
E380
FF00
7E00
ENDCHAR
STARTCHAR 016F
ENCODING 367
SWIDTH 600 0
DWIDTH 10 0
BBX 8 14 2 0
BITMAP
04
1E
12
1E
00
63
63
E7
E7
C6
C6
C6
FE
FE
ENDCHAR
STARTCHAR 0170
ENCODING 368
SWIDTH 660 0
DWIDTH 11 0
BBX 11 16 2 0
BITMAP
0240
06E0
0D80
0800
30E0
30E0
70C0
70C0
61C0
61C0
E180
E180
E380
E380
FF00
7E00
ENDCHAR
STARTCHAR 0171
ENCODING 369
SWIDTH 600 0
DWIDTH 10 0
BBX 9 13 2 0
BITMAP
0980
1B80
3300
0000
6300
6300
E700
E700
C600
C600
C600
FE00
FE00
ENDCHAR
STARTCHAR 0172
ENCODING 370
SWIDTH 660 0
DWIDTH 11 0
BBX 11 16 2 -4
BITMAP
30E0
30E0
70C0
70C0
61C0
61C0
E180
E180
E380
E380
FF00
7E00
3800
3000
7800
3000
ENDCHAR
STARTCHAR 0173
ENCODING 371
SWIDTH 600 0
DWIDTH 10 0
BBX 8 13 2 -4
BITMAP
63
63
E7
E7
C6
C6
C6
FE
FE
0C
1C
1E
0C
ENDCHAR
STARTCHAR 0174
ENCODING 372
SWIDTH 960 0
DWIDTH 16 0
BBX 15 15 3 1
BITMAP
0180
03C0
0040
C00E
C00E
C31C
C71C
C718
CF38
DB30
DBF0
F3E0
F1E0
E1C0
E1C0
ENDCHAR
STARTCHAR 0175
ENCODING 373
SWIDTH 840 0
DWIDTH 14 0
BBX 13 13 2 0
BITMAP
0100
0380
06C0
0000
E318
E738
E730
EF70
EF60
7BE0
7BC0
73C0
6380
ENDCHAR
STARTCHAR 0176
ENCODING 374
SWIDTH 660 0
DWIDTH 11 0
BBX 10 16 3 0
BITMAP
0400
0E00
1E00
1000
E1C0
E180
E380
6700
7E00
7C00
3C00
3800
3800
3000
7000
7000
ENDCHAR
STARTCHAR 0177
ENCODING 375
SWIDTH 540 0
DWIDTH 9 0
BBX 10 16 0 -3
BITMAP
0100
0780
0D80
0000
38C0
39C0
39C0
1980
1B80
1B00
1F00
1E00
0C00
1C00
F800
F000
ENDCHAR
STARTCHAR 0178
ENCODING 376
SWIDTH 660 0
DWIDTH 11 0
BBX 10 15 3 0
BITMAP
3300
3300
0000
E1C0
E180
E380
6700
7E00
7C00
3C00
3800
3800
3000
7000
7000
ENDCHAR
STARTCHAR 0179
ENCODING 377
SWIDTH 660 0
DWIDTH 11 0
BBX 11 16 1 0
BITMAP
0080
01C0
0300
0000
1FE0
1FE0
3FE0
0380
0700
0E00
0C00
1800
3800
7000
FF80
FF80
ENDCHAR
STARTCHAR 017A
ENCODING 378
SWIDTH 540 0
DWIDTH 9 0
BBX 9 13 1 0
BITMAP
0300
0700
0C00
0000
3F80
3F80
0700
0E00
1C00
3800
7000
FE00
FE00
ENDCHAR
STARTCHAR 017B
ENCODING 379
SWIDTH 660 0
DWIDTH 11 0
BBX 11 15 1 0
BITMAP
0380
0380
0000
1FE0
1FE0
3FE0
0380
0700
0E00
0C00
1800
3800
7000
FF80
FF80
ENDCHAR
STARTCHAR 017C
ENCODING 380
SWIDTH 540 0
DWIDTH 9 0
BBX 9 13 1 0
BITMAP
0200
0600
0600
0000
3F80
3F80
0700
0E00
1C00
3800
7000
FE00
FE00
ENDCHAR
STARTCHAR 017D
ENCODING 381
SWIDTH 660 0
DWIDTH 11 0
BBX 11 16 1 0
BITMAP
0640
07C0
0300
0000
1FE0
1FE0
3FE0
0380
0700
0E00
0C00
1800
3800
7000
FF80
FF80
ENDCHAR
STARTCHAR 017E
ENCODING 382
SWIDTH 540 0
DWIDTH 9 0
BBX 9 13 1 0
BITMAP
0D80
0700
0600
0000
3F80
3F80
0700
0E00
1C00
3800
7000
FE00
FE00
ENDCHAR
STARTCHAR 017F
ENCODING 383
SWIDTH 420 0
DWIDTH 7 0
BBX 10 16 0 -3
BITMAP
03C0
0FC0
0E00
1C00
1C00
1800
1800
1800
3800
3800
3000
3000
7000
6000
E000
C000
ENDCHAR
STARTCHAR 0180
ENCODING 384
SWIDTH 600 0
DWIDTH 10 0
BBX 9 13 1 0
BITMAP
1C00
1800
3E00
3800
3F00
3F80
3380
7180
7180
6380
6700
FF00
FC00
ENDCHAR
STARTCHAR 0181
ENCODING 385
SWIDTH 840 0
DWIDTH 14 0
BBX 12 12 2 0
BITMAP
0FC0
7FF0
FE70
CC30
0C70
1FE0
1FE0
1870
1870
38E0
3FE0
3F80
ENDCHAR
STARTCHAR 0182
ENCODING 386
SWIDTH 660 0
DWIDTH 11 0
BBX 10 12 1 0
BITMAP
1FC0
1FC0
3FC0
3800
3800
3F80
3FC0
71C0
71C0
6380
7F80
FE00
ENDCHAR
STARTCHAR 0183
ENCODING 387
SWIDTH 600 0
DWIDTH 10 0
BBX 10 13 1 0
BITMAP
1FC0
1FC0
1800
3800
3F00
3F80
3380
7180
7180
6380
6700
FF00
FC00
ENDCHAR
STARTCHAR 0184
ENCODING 388
SWIDTH 600 0
DWIDTH 10 0
BBX 9 13 1 0
BITMAP
0C00
3800
3800
3800
3F00
3F80
3380
7180
7180
6380
6700
FF00
FC00
ENDCHAR
STARTCHAR 0185
ENCODING 389
SWIDTH 660 0
DWIDTH 11 0
BBX 9 12 2 0
BITMAP
0800
7800
7000
7000
7000
7F00
7F80
6380
E380
E380
FF00
FE00
ENDCHAR
STARTCHAR 0186
ENCODING 390
SWIDTH 660 0
DWIDTH 11 0
BBX 10 12 1 0
BITMAP
1F00
3F80
33C0
01C0
00C0
00C0
01C0
01C0
0380
0780
FF00
FE00
ENDCHAR
STARTCHAR 0187
ENCODING 391
SWIDTH 720 0
DWIDTH 12 0
BBX 13 13 2 0
BITMAP
0078
07F0
1FC0
3CC0
7000
6000
E000
E000
E000
E000
F000
7F00
3F00
ENDCHAR
STARTCHAR 0188
ENCODING 392
SWIDTH 540 0
DWIDTH 9 0
BBX 9 10 2 0
BITMAP
0380
1F80
7E00
E000
E000
C000
C000
E000
FC00
7C00
ENDCHAR
STARTCHAR 0189
ENCODING 393
SWIDTH 720 0
DWIDTH 12 0
BBX 12 12 1 0
BITMAP
0F00
1FC0
3FE0
38E0
3870
FC70
FC60
70E0
70E0
63C0
7F80
FE00
ENDCHAR
STARTCHAR 018A
ENCODING 394
SWIDTH 900 0
DWIDTH 15 0
BBX 13 12 2 0
BITMAP
0FC0
7FF0
7FF0
CC38
8C38
1C38
1C38
1838
1870
38F0
3FE0
3F80
ENDCHAR
STARTCHAR 018B
ENCODING 395
SWIDTH 660 0
DWIDTH 11 0
BBX 10 12 2 0
BITMAP
3FC0
3FC0
3FC0
01C0
0180
7F80
FF80
E380
C300
C300
FF00
7F00
ENDCHAR
STARTCHAR 018C
ENCODING 396
SWIDTH 600 0
DWIDTH 10 0
BBX 10 13 2 0
BITMAP
3FC0
3F80
0180
0380
1F80
7F00
7300
E700
C700
C600
C600
FE00
7F00
ENDCHAR
STARTCHAR 018D
ENCODING 397
SWIDTH 540 0
DWIDTH 9 0
BBX 9 12 1 -3
BITMAP
1F00
3F80
7380
6180
6380
6300
7700
3E00
1C00
0C00
FC00
F800
ENDCHAR
STARTCHAR 018E
ENCODING 398
SWIDTH 600 0
DWIDTH 10 0
BBX 10 12 1 0
BITMAP
1FC0
1FC0
3FC0
01C0
0180
3F80
3F80
0380
0300
0300
FF00
FF00
ENDCHAR
STARTCHAR 018F
ENCODING 399
SWIDTH 720 0
DWIDTH 12 0
BBX 11 12 2 0
BITMAP
0F00
3FC0
3BC0
00E0
00E0
FFE0
FFE0
FFC0
C1C0
E380
7F80
7E00
ENDCHAR
STARTCHAR 0190
ENCODING 400
SWIDTH 600 0
DWIDTH 10 0
BBX 10 12 2 0
BITMAP
0F00
3FC0
3980
7000
3000
3E00
7E00
E000
C000
C000
FF00
7F00
ENDCHAR
STARTCHAR 0191
ENCODING 401
SWIDTH 540 0
DWIDTH 9 0
BBX 12 15 -1 -3
BITMAP
07F0
07F0
07F0
0E00
0E00
0FE0
0FC0
1C00
1C00
1800
1800
3800
3800
F000
E000
ENDCHAR
STARTCHAR 0192
ENCODING 402
SWIDTH 420 0
DWIDTH 7 0
BBX 12 16 -2 -3
BITMAP
00F0
03F0
0380
0700
07E0
07C0
0600
0600
0E00
0E00
0C00
0C00
1C00
1C00
7800
F000
ENDCHAR
STARTCHAR 0193
ENCODING 403
SWIDTH 720 0
DWIDTH 12 0
BBX 13 13 2 0
BITMAP
0038
07F8
1FC0
3CC0
7000
6000
E000
E1C0
E180
E180
F380
7F80
3F00
ENDCHAR
STARTCHAR 0194
ENCODING 404
SWIDTH 720 0
DWIDTH 12 0
BBX 11 15 3 -3
BITMAP
C060
C0E0
E1C0
E180
6380
7700
7E00
3C00
3C00
3800
7800
DC00
D800
F800
7000
ENDCHAR
STARTCHAR 0195
ENCODING 405
SWIDTH 900 0
DWIDTH 15 0
BBX 14 13 1 0
BITMAP
1C00
1800
1800
3800
3F0C
3F8C
339C
739C
7398
6318
6338
63F0
E3E0
ENDCHAR
STARTCHAR 0196
ENCODING 406
SWIDTH 420 0
DWIDTH 7 0
BBX 5 12 2 0
BITMAP
38
30
30
70
70
60
60
E0
E0
E0
F8
F8
ENDCHAR
STARTCHAR 0197
ENCODING 407
SWIDTH 360 0
DWIDTH 6 0
BBX 5 12 2 0
BITMAP
38
38
30
30
70
F8
F8
60
E0
E0
E0
C0
ENDCHAR
STARTCHAR 0198
ENCODING 408
SWIDTH 720 0
DWIDTH 12 0
BBX 12 12 1 0
BITMAP
1C70
18F0
19D0
3B80
3F00
3E00
3E00
7E00
7700
6380
6380
E1C0
ENDCHAR
STARTCHAR 0199
ENCODING 409
SWIDTH 540 0
DWIDTH 9 0
BBX 10 13 1 0
BITMAP
0F00
1E00
1800
3800
39C0
3380
3700
7E00
7C00
6E00
6E00
6700
E700
ENDCHAR
STARTCHAR 019A
ENCODING 410
SWIDTH 360 0
DWIDTH 6 0
BBX 5 13 2 0
BITMAP
38
30
30
70
70
60
F8
E0
E0
C0
C0
E0
60
ENDCHAR
STARTCHAR 019B
ENCODING 411
SWIDTH 540 0
DWIDTH 9 0
BBX 8 13 1 0
BITMAP
1C
3C
0F
1E
0E
0E
1E
3F
37
77
67
E7
C7
ENDCHAR
STARTCHAR 019C
ENCODING 412
SWIDTH 960 0
DWIDTH 16 0
BBX 16 12 2 0
BITMAP
31C7
71C6
7186
718E
638E
638C
E38C
E31C
C31C
E718
FFF8
7DF8
ENDCHAR
STARTCHAR 019D
ENCODING 413
SWIDTH 720 0
DWIDTH 12 0
BBX 15 15 -1 -3
BITMAP
060E
070E
070C
0F9C
0F9C
0DDC
0CD8
1CF8
1C78
1878
1870
3830
3800
F000
E000
ENDCHAR
STARTCHAR 019E
ENCODING 414
SWIDTH 540 0
DWIDTH 9 0
BBX 9 12 1 -3
BITMAP
1F00
3F80
3380
7380
7380
6300
6300
6700
E700
0600
0600
0E00
ENDCHAR
STARTCHAR 019F
ENCODING 415
SWIDTH 780 0
DWIDTH 13 0
BBX 11 12 2 0
BITMAP
0700
1FC0
3DE0
70E0
6060
FFE0
FFE0
E0E0
E0C0
E1C0
7F80
3F00
ENDCHAR
STARTCHAR 01A0
ENCODING 416
SWIDTH 780 0
DWIDTH 13 0
BBX 13 13 2 0
BITMAP
0038
0730
1FF0
3DE0
70E0
6060
E060
E0E0
E0E0
E0C0
E1C0
7F80
3F00
ENDCHAR
STARTCHAR 01A1
ENCODING 417
SWIDTH 600 0
DWIDTH 10 0
BBX 10 11 2 0
BITMAP
00C0
00C0
1F80
7F80
E700
E300
C300
C700
C600
FE00
7C00
ENDCHAR
STARTCHAR 01A2
ENCODING 418
SWIDTH 1020 0
DWIDTH 17 0
BBX 16 12 2 0
BITMAP
079E
1FFF
3DF7
70E7
7067
E067
E066
E0E6
E0EE
71CE
7F8C
3F0C
ENDCHAR
STARTCHAR 01A3
ENCODING 419
SWIDTH 840 0
DWIDTH 14 0
BBX 12 12 2 -3
BITMAP
1FE0
7FF0
E730
E330
C370
C770
C660
FE60
7C60
00E0
00E0
00C0
ENDCHAR
STARTCHAR 01A4
ENCODING 420
SWIDTH 780 0
DWIDTH 13 0
BBX 12 12 2 0
BITMAP
0F80
7FE0
FFF0
CC30
0C30
1C70
1FE0
1FC0
1800
3800
3800
3000
ENDCHAR
STARTCHAR 01A5
ENCODING 421
SWIDTH 600 0
DWIDTH 10 0
BBX 9 16 1 -3
BITMAP
0E00
1E00
1800
3800
3F00
3F80
3380
7180
7180
6380
6300
7F00
FC00
E000
C000
C000
ENDCHAR
STARTCHAR 01A6
ENCODING 422
SWIDTH 660 0
DWIDTH 11 0
BBX 11 15 1 -2
BITMAP
1C00
1F00
1FC0
1FE0
38E0
38E0
31C0
3F80
7F00
7300
6380
6180
E1C0
01C0
01C0
ENDCHAR
STARTCHAR 01A7
ENCODING 423
SWIDTH 540 0
DWIDTH 9 0
BBX 10 12 1 0
BITMAP
0F00
1F80
13C0
01C0
0380
1F80
7E00
F000
E000
E100
FF00
7F00
ENDCHAR
STARTCHAR 01A8
ENCODING 424
SWIDTH 480 0
DWIDTH 8 0
BBX 8 9 1 0
BITMAP
3E
3F
07
0F
3E
78
E0
FE
7E
ENDCHAR
STARTCHAR 01A9
ENCODING 425
SWIDTH 600 0
DWIDTH 10 0
BBX 11 12 1 0
BITMAP
1FE0
3FC0
3FC0
1C00
1C00
0E00
0E00
1C00
3800
7000
FF00
FF00
ENDCHAR
STARTCHAR 01AA
ENCODING 426
SWIDTH 420 0
DWIDTH 7 0
BBX 6 16 2 -3
BITMAP
78
FC
CC
DC
FC
7C
18
18
38
38
30
30
70
70
78
38
ENDCHAR
STARTCHAR 01AB
ENCODING 427
SWIDTH 420 0
DWIDTH 7 0
BBX 6 14 2 -3
BITMAP
70
70
7C
7C
E0
E0
C0
C0
C0
F8
F8
38
70
E0
ENDCHAR
STARTCHAR 01AC
ENCODING 428
SWIDTH 660 0
DWIDTH 11 0
BBX 11 12 2 0
BITMAP
0FE0
7FE0
FFE0
C600
0E00
0E00
0C00
0C00
1C00
1C00
1800
1800
ENDCHAR
STARTCHAR 01AD
ENCODING 429
SWIDTH 420 0
DWIDTH 7 0
BBX 8 13 2 0
BITMAP
1F
3E
30
70
7C
7C
E0
E0
C0
C0
C0
F8
F8
ENDCHAR
STARTCHAR 01AE
ENCODING 430
SWIDTH 600 0
DWIDTH 10 0
BBX 10 15 2 -3
BITMAP
7FC0
7FC0
FFC0
0C00
1C00
1C00
1800
1800
3800
3800
3800
3000
7000
7C00
3800
ENDCHAR
STARTCHAR 01AF
ENCODING 431
SWIDTH 720 0
DWIDTH 12 0
BBX 13 13 2 0
BITMAP
0018
30F8
30F0
70C0
70C0
61C0
61C0
E180
E180
E380
E380
FF00
7E00
ENDCHAR
STARTCHAR 01B0
ENCODING 432
SWIDTH 600 0
DWIDTH 10 0
BBX 11 11 2 0
BITMAP
0060
0060
63C0
6380
E700
E700
C600
C600
C600
FE00
FE00
ENDCHAR
STARTCHAR 01B1
ENCODING 433
SWIDTH 780 0
DWIDTH 13 0
BBX 13 12 2 0
BITMAP
3C78
7CF8
7CF8
3860
7060
6070
6070
E060
E0E0
71E0
7FC0
3F00
ENDCHAR
STARTCHAR 01B2
ENCODING 434
SWIDTH 720 0
DWIDTH 12 0
BBX 10 12 2 0
BITMAP
3380
73C0
73C0
70C0
60C0
60C0
E0C0
E1C0
E1C0
E380
FF00
7E00
ENDCHAR
STARTCHAR 01B3
ENCODING 435
SWIDTH 720 0
DWIDTH 12 0
BBX 11 12 3 0
BITMAP
E0C0
E1E0
E3C0
6700
7E00
7C00
3800
3800
3800
3000
7000
7000
ENDCHAR
STARTCHAR 01B4
ENCODING 436
SWIDTH 600 0
DWIDTH 10 0
BBX 13 12 -1 -3
BITMAP
1C78
1CF0
1CC0
1CC0
0D80
0D80
0F00
0F00
0E00
0E00
7C00
F800
ENDCHAR
STARTCHAR 01B5
ENCODING 437
SWIDTH 660 0
DWIDTH 11 0
BBX 11 12 1 0
BITMAP
1FE0
1FE0
3FE0
0380
0700
3FC0
3F80
1800
3800
7000
FF80
FF80
ENDCHAR
STARTCHAR 01B6
ENCODING 438
SWIDTH 540 0
DWIDTH 9 0
BBX 9 9 1 0
BITMAP
3F80
3F80
0700
0E00
3F00
3800
7000
FE00
FE00
ENDCHAR
STARTCHAR 01B7
ENCODING 439
SWIDTH 600 0
DWIDTH 10 0
BBX 11 12 1 0
BITMAP
1FE0
3FC0
3FC0
0380
0600
1E00
1F80
0380
0380
0380
FF00
FE00
ENDCHAR
STARTCHAR 01B8
ENCODING 440
SWIDTH 600 0
DWIDTH 10 0
BBX 10 12 2 0
BITMAP
3FC0
3FC0
3FC0
1800
1C00
1E00
7E00
E000
C000
E100
FF00
7F00
ENDCHAR
STARTCHAR 01B9
ENCODING 441
SWIDTH 540 0
DWIDTH 9 0
BBX 9 12 1 -3
BITMAP
3F80
3F80
3800
1C00
1C00
3C00
FC00
E000
C000
E200
FE00
7C00
ENDCHAR
STARTCHAR 01BA
ENCODING 442
SWIDTH 480 0
DWIDTH 8 0
BBX 10 12 0 -3
BITMAP
1FC0
3F80
0380
0600
1E00
1F00
0300
0700
3F00
FC00
E000
C000
ENDCHAR
STARTCHAR 01BB
ENCODING 443
SWIDTH 540 0
DWIDTH 9 0
BBX 9 12 1 0
BITMAP
0E00
3F80
3380
0380
0300
3F80
3F00
3C00
7000
6000
FF00
FE00
ENDCHAR
STARTCHAR 01BC
ENCODING 444
SWIDTH 600 0
DWIDTH 10 0
BBX 10 12 1 0
BITMAP
3FC0
3FC0
3FC0
1800
1800
3E00
3F00
0380
0380
0380
FF00
FE00
ENDCHAR
STARTCHAR 01BD
ENCODING 445
SWIDTH 480 0
DWIDTH 8 0
BBX 8 9 1 0
BITMAP
7F
7F
30
30
7E
06
06
FE
FC
ENDCHAR
STARTCHAR 01BE
ENCODING 446
SWIDTH 480 0
DWIDTH 8 0
BBX 8 11 1 0
BITMAP
18
38
3F
3E
30
38
3C
0E
06
FE
FC
ENDCHAR
STARTCHAR 01BF
ENCODING 447
SWIDTH 600 0
DWIDTH 10 0
BBX 9 12 1 -3
BITMAP
1F00
3F80
3380
7180
7380
6380
6700
FE00
FC00
F000
C000
C000
ENDCHAR
STARTCHAR 01C0
ENCODING 448
SWIDTH 300 0
DWIDTH 5 0
BBX 6 16 1 -3
BITMAP
1C
18
18
18
38
30
30
30
70
60
60
60
E0
C0
C0
C0
ENDCHAR
STARTCHAR 01C1
ENCODING 449
SWIDTH 540 0
DWIDTH 9 0
BBX 10 16 1 -3
BITMAP
1DC0
1980
1980
1B80
3B80
3300
3300
3300
7700
6600
6600
6600
EE00
CC00
CC00
CC00
ENDCHAR
STARTCHAR 01C2
ENCODING 450
SWIDTH 600 0
DWIDTH 10 0
BBX 10 16 1 -3
BITMAP
0700
0700
0600
0600
0E00
7FC0
7F80
0C00
0C00
FF80
1800
1800
1800
3800
3000
3000
ENDCHAR
STARTCHAR 01C3
ENCODING 451
SWIDTH 300 0
DWIDTH 5 0
BBX 6 12 1 0
BITMAP
1C
18
38
38
38
30
30
70
00
60
E0
E0
ENDCHAR
STARTCHAR 01C4
ENCODING 452
SWIDTH 1260 0
DWIDTH 21 0
BBX 22 16 1 0
BITMAP
000048
000078
000030
000000
0F03FC
1FC3FC
3FE7FC
38E038
387070
3070E0
3061C0
70E380
70E700
63CE00
7F9FF0
FE1FF0
ENDCHAR
STARTCHAR 01C5
ENCODING 453
SWIDTH 1200 0
DWIDTH 20 0
BBX 20 13 1 0
BITMAP
0001B0
0F01E0
1FC0C0
3FE000
38E7F0
3877F0
3070E0
3061C0
70E380
70E700
63CE00
7F8FE0
FE1FC0
ENDCHAR
STARTCHAR 01C6
ENCODING 454
SWIDTH 1080 0
DWIDTH 18 0
BBX 17 13 2 0
BITMAP
01C480
018780
018200
038000
1FBF80
7F3F80
730700
E70E00
C71C00
C63800
C67000
FE7F00
7FFE00
ENDCHAR
STARTCHAR 01C7
ENCODING 455
SWIDTH 1080 0
DWIDTH 18 0
BBX 19 12 1 0
BITMAP
1C00E0
1800C0
1801C0
3801C0
3801C0
300180
300180
700380
700380
600300
7F7F00
FF7E00
ENDCHAR
STARTCHAR 01C8
ENCODING 456
SWIDTH 840 0
DWIDTH 14 0
BBX 15 16 1 -3
BITMAP
0004
1C0E
180E
1800
380C
381C
301C
3018
7018
7038
6038
7F30
FF30
0070
01E0
01E0
ENDCHAR
STARTCHAR 01C9
ENCODING 457
SWIDTH 600 0
DWIDTH 10 0
BBX 11 16 1 -3
BITMAP
1860
38E0
38E0
3000
30C0
71C0
71C0
6180
6180
6180
E380
F380
7300
0700
1F00
1E00
ENDCHAR
STARTCHAR 01CA
ENCODING 458
SWIDTH 1260 0
DWIDTH 21 0
BBX 21 12 1 0
BITMAP
183818
1C3838
1C3038
3E7038
3E7030
377070
336070
73E070
71E060
61E0E0
61CFE0
E0CFC0
ENDCHAR
STARTCHAR 01CB
ENCODING 459
SWIDTH 1020 0
DWIDTH 17 0
BBX 18 16 1 -3
BITMAP
0000C0
1839C0
1C39C0
1C3000
3E7180
3E7180
377380
336380
73E300
71E300
61E700
61C700
E0C600
000E00
003E00
003C00
ENDCHAR
STARTCHAR 01CC
ENCODING 460
SWIDTH 900 0
DWIDTH 15 0
BBX 16 16 1 -3
BITMAP
0006
0007
0006
0000
1F0E
3F8C
338C
738C
739C
631C
6318
6718
E738
0038
00F0
01E0
ENDCHAR
STARTCHAR 01CD
ENCODING 461
SWIDTH 720 0
DWIDTH 12 0
BBX 10 16 1 0
BITMAP
0200
03C0
0180
0000
0380
0380
0780
0F80
0DC0
1DC0
19C0
3FC0
7FC0
60C0
E0C0
C0C0
ENDCHAR
STARTCHAR 01CE
ENCODING 462
SWIDTH 600 0
DWIDTH 10 0
BBX 8 13 2 0
BITMAP
1B
0E
04
00
1F
7F
73
E7
C7
C6
C6
FE
7F
ENDCHAR
STARTCHAR 01CF
ENCODING 463
SWIDTH 300 0
DWIDTH 5 0
BBX 7 16 1 0
BITMAP
12
1E
0C
00
1C
18
18
38
38
30
30
70
70
60
60
E0
ENDCHAR
STARTCHAR 01D0
ENCODING 464
SWIDTH 300 0
DWIDTH 5 0
BBX 7 13 1 0
BITMAP
26
3C
18
00
38
30
30
70
70
60
60
60
E0
ENDCHAR
STARTCHAR 01D1
ENCODING 465
SWIDTH 780 0
DWIDTH 13 0
BBX 11 16 2 0
BITMAP
0440
07C0
0300
0000
0700
1FC0
3DE0
70E0
6060
E060
E0E0
E0E0
E0C0
E1C0
7F80
3F00
ENDCHAR
STARTCHAR 01D2
ENCODING 466
SWIDTH 600 0
DWIDTH 10 0
BBX 8 13 2 0
BITMAP
1B
0E
04
00
1E
7F
E7
E3
C3
C7
C6
FE
7C
ENDCHAR
STARTCHAR 01D3
ENCODING 467
SWIDTH 660 0
DWIDTH 11 0
BBX 11 16 2 0
BITMAP
0480
0780
0300
0200
30E0
30E0
70C0
70C0
61C0
61C0
E180
E180
E380
E380
FF00
7E00
ENDCHAR
STARTCHAR 01D4
ENCODING 468
SWIDTH 600 0
DWIDTH 10 0
BBX 8 13 2 0
BITMAP
1B
1E
0C
00
63
63
E7
E7
C6
C6
C6
FE
FE
ENDCHAR
STARTCHAR 01D5
ENCODING 469
SWIDTH 660 0
DWIDTH 11 0
BBX 11 16 2 0
BITMAP
0780
0000
0D80
0D80
30E0
30E0
70C0
70C0
61C0
61C0
E180
E180
E380
E380
FF00
7E00
ENDCHAR
STARTCHAR 01D6
ENCODING 470
SWIDTH 600 0
DWIDTH 10 0
BBX 8 14 2 0
BITMAP
0F
1F
13
1B
00
63
63
E7
E7
C6
C6
C6
FE
FE
ENDCHAR
STARTCHAR 01D7
ENCODING 471
SWIDTH 660 0
DWIDTH 11 0
BBX 11 16 2 0
BITMAP
0100
0300
1AC0
08C0
30E0
30E0
70C0
70C0
61C0
61C0
E180
E180
E380
E380
FF00
7E00
ENDCHAR
STARTCHAR 01D8
ENCODING 472
SWIDTH 600 0
DWIDTH 10 0
BBX 8 15 2 0
BITMAP
02
06
04
31
33
00
63
63
E7
E7
C6
C6
C6
FE
FE
ENDCHAR
STARTCHAR 01D9
ENCODING 473
SWIDTH 660 0
DWIDTH 11 0
BBX 11 16 2 0
BITMAP
0580
0700
0EC0
08C0
30E0
30E0
70C0
70C0
61C0
61C0
E180
E180
E380
E380
FF00
7E00
ENDCHAR
STARTCHAR 01DA
ENCODING 474
SWIDTH 600 0
DWIDTH 10 0
BBX 8 14 2 0
BITMAP
1A
0E
33
33
00
63
63
E7
E7
C6
C6
C6
FE
FE
ENDCHAR
STARTCHAR 01DB
ENCODING 475
SWIDTH 660 0
DWIDTH 11 0
BBX 11 16 2 0
BITMAP
0600
0600
1AC0
0880
30E0
30E0
70C0
70C0
61C0
61C0
E180
E180
E380
E380
FF00
7E00
ENDCHAR
STARTCHAR 01DC
ENCODING 476
SWIDTH 600 0
DWIDTH 10 0
BBX 8 15 2 0
BITMAP
08
08
0C
31
33
00
63
63
E7
E7
C6
C6
C6
FE
FE
ENDCHAR
STARTCHAR 01DD
ENCODING 477
SWIDTH 540 0
DWIDTH 9 0
BBX 8 9 1 0
BITMAP
3E
3F
03
0F
7F
63
E7
7E
7C
ENDCHAR
STARTCHAR 01DE
ENCODING 478
SWIDTH 720 0
DWIDTH 12 0
BBX 11 16 1 0
BITMAP
03E0
0000
0360
0240
0380
0380
0780
0F80
0DC0
1DC0
19C0
3FC0
7FC0
60C0
E0C0
C0C0
ENDCHAR
STARTCHAR 01DF
ENCODING 479
SWIDTH 600 0
DWIDTH 10 0
BBX 9 14 2 0
BITMAP
0F80
0F00
0900
1B00
0000
1F00
7F00
7300
E700
C700
C600
C600
FE00
7F00
ENDCHAR
STARTCHAR 01E0
ENCODING 480
SWIDTH 720 0
DWIDTH 12 0
BBX 11 16 1 0
BITMAP
01E0
0000
0180
0180
0380
0380
0780
0F80
0DC0
1DC0
19C0
3FC0
7FC0
60C0
E0C0
C0C0
ENDCHAR
STARTCHAR 01E1
ENCODING 481
SWIDTH 600 0
DWIDTH 10 0
BBX 9 14 2 0
BITMAP
0F80
0F00
0600
0600
0000
1F00
7F00
7300
E700
C700
C600
C600
FE00
7F00
ENDCHAR
STARTCHAR 01E2
ENCODING 482
SWIDTH 960 0
DWIDTH 16 0
BBX 18 15 0 0
BITMAP
001F00
001F00
000000
003FC0
007FC0
00FF80
01B000
03B000
077F00
0E7F00
0FE000
1FE000
38E000
70FF00
E0FF00
ENDCHAR
STARTCHAR 01E3
ENCODING 483
SWIDTH 840 0
DWIDTH 14 0
BBX 13 12 2 0
BITMAP
07E0
07E0
0000
7CF0
7FF8
0718
1F38
7FF0
C7C0
CE00
FFE0
FBE0
ENDCHAR
STARTCHAR 01E4
ENCODING 484
SWIDTH 660 0
DWIDTH 11 0
BBX 11 12 2 0
BITMAP
0780
1FC0
3CC0
7000
6000
E000
E1C0
E7E0
E7C0
F380
7F80
3F00
ENDCHAR
STARTCHAR 01E5
ENCODING 485
SWIDTH 600 0
DWIDTH 10 0
BBX 10 12 1 -3
BITMAP
0F80
3F80
7180
77C0
67C0
6300
7F00
7F00
0700
0600
FE00
F800
ENDCHAR
STARTCHAR 01E6
ENCODING 486
SWIDTH 660 0
DWIDTH 11 0
BBX 10 16 2 0
BITMAP
0240
03C0
0300
0000
0780
1FC0
3CC0
7000
6000
E000
E1C0
E180
E180
F380
7F80
3F00
ENDCHAR
STARTCHAR 01E7
ENCODING 487
SWIDTH 540 0
DWIDTH 9 0
BBX 9 16 1 -3
BITMAP
0480
0780
0200
0000
0F80
3F80
7180
7380
6380
6300
7F00
7F00
0700
0600
FE00
F800
ENDCHAR
STARTCHAR 01E8
ENCODING 488
SWIDTH 660 0
DWIDTH 11 0
BBX 12 16 1 0
BITMAP
0240
03C0
0380
0000
1C70
18E0
19C0
3B80
3F00
3E00
3E00
7E00
7700
6380
6380
E1C0
ENDCHAR
STARTCHAR 01E9
ENCODING 489
SWIDTH 540 0
DWIDTH 9 0
BBX 10 16 1 0
BITMAP
0D00
0700
0000
1C00
1800
1800
3800
39C0
3380
3700
7E00
7C00
6E00
6E00
6700
E700
ENDCHAR
STARTCHAR 01EA
ENCODING 490
SWIDTH 780 0
DWIDTH 13 0
BBX 11 16 2 -4
BITMAP
0700
1FC0
3DE0
70E0
6060
E060
E0E0
E0E0
E0C0
E1C0
7F80
3F00
1800
3000
3C00
1800
ENDCHAR
STARTCHAR 01EB
ENCODING 491
SWIDTH 600 0
DWIDTH 10 0
BBX 8 13 2 -4
BITMAP
1E
7F
E7
E3
C3
C7
C6
FE
7C
30
60
70
70
ENDCHAR
STARTCHAR 01EC
ENCODING 492
SWIDTH 780 0
DWIDTH 13 0
BBX 11 19 2 -4
BITMAP
0FC0
0F80
0000
0700
1FC0
3DE0
70E0
6060
E060
E0E0
E0E0
E0C0
E1C0
7F80
3F00
1800
3000
3C00
1800
ENDCHAR
STARTCHAR 01ED
ENCODING 493
SWIDTH 600 0
DWIDTH 10 0
BBX 8 16 2 -4
BITMAP
1F
3F
00
1E
7F
E7
E3
C3
C7
C6
FE
7C
30
60
70
70
ENDCHAR
STARTCHAR 01EE
ENCODING 494
SWIDTH 600 0
DWIDTH 10 0
BBX 11 16 1 0
BITMAP
0480
0780
0300
0000
1FE0
3FC0
3FC0
0380
0600
1E00
1F80
0380
0380
0380
FF00
FE00
ENDCHAR
STARTCHAR 01EF
ENCODING 495
SWIDTH 480 0
DWIDTH 8 0
BBX 10 16 0 -3
BITMAP
0C80
0700
0200
0000
1FC0
3F80
0380
0700
0E00
1E00
1F00
0300
0700
0700
FE00
FC00
ENDCHAR
STARTCHAR 01F0
ENCODING 496
SWIDTH 300 0
DWIDTH 5 0
BBX 9 16 -1 -3
BITMAP
0D80
0F00
0600
0000
0E00
0E00
0C00
0C00
1C00
1C00
1800
1800
3800
3800
F000
E000
ENDCHAR
STARTCHAR 01F1
ENCODING 497
SWIDTH 1260 0
DWIDTH 21 0
BBX 22 12 1 0
BITMAP
0F03FC
1FC3FC
3FE7FC
38E038
387070
3070E0
3061C0
70E380
70E700
63CE00
7F9FF0
FE1FF0
ENDCHAR
STARTCHAR 01F2
ENCODING 498
SWIDTH 1200 0
DWIDTH 20 0
BBX 20 12 1 0
BITMAP
0F0000
1FC000
3FE000
38E7F0
3877F0
3070E0
3061C0
70E380
70E700
63CE00
7F8FE0
FE1FC0
ENDCHAR
STARTCHAR 01F3
ENCODING 499
SWIDTH 1080 0
DWIDTH 18 0
BBX 17 13 2 0
BITMAP
01C000
018000
018000
038000
1FBF80
7F3F80
730700
E70E00
C71C00
C63800
C67000
FE7F00
7FFE00
ENDCHAR
STARTCHAR 01F4
ENCODING 500
SWIDTH 660 0
DWIDTH 11 0
BBX 10 16 2 0
BITMAP
0080
01C0
0380
0000
0780
1FC0
3CC0
7000
6000
E000
E1C0
E180
E180
F380
7F80
3F00
ENDCHAR
STARTCHAR 01F5
ENCODING 501
SWIDTH 540 0
DWIDTH 9 0
BBX 9 16 1 -3
BITMAP
0100
0300
0600
0000
0F80
3F80
7180
7380
6380
6300
7F00
7F00
0700
0600
FE00
F800
ENDCHAR
STARTCHAR 01F6
ENCODING 502
SWIDTH 1020 0
DWIDTH 17 0
BBX 17 12 1 0
BITMAP
1C3000
187000
187000
387180
386380
3FE380
3FE380
70E300
70C700
60C700
60FE00
E07C00
ENDCHAR
STARTCHAR 01F7
ENCODING 503
SWIDTH 720 0
DWIDTH 12 0
BBX 11 15 1 -3
BITMAP
0780
1FE0
1FE0
3860
3860
38E0
30E0
71C0
7380
7F00
7E00
7800
E000
E000
C000
ENDCHAR
STARTCHAR 01F8
ENCODING 504
SWIDTH 720 0
DWIDTH 12 0
BBX 13 16 1 0
BITMAP
0100
0300
0180
0080
1838
1C38
1C30
3E70
3E70
3770
3360
73E0
71E0
61E0
61C0
E0C0
ENDCHAR
STARTCHAR 01F9
ENCODING 505
SWIDTH 540 0
DWIDTH 9 0
BBX 9 13 1 0
BITMAP
0C00
0E00
0600
0000
1F00
3F80
3380
7380
7380
6300
6300
6700
E700
ENDCHAR
STARTCHAR 01FA
ENCODING 506
SWIDTH 720 0
DWIDTH 12 0
BBX 11 16 1 0
BITMAP
0080
0380
0100
0280
0280
0380
0780
0F80
0DC0
1DC0
19C0
3FC0
7FC0
7FC0
E0C0
C0E0
ENDCHAR
STARTCHAR 01FB
ENCODING 507
SWIDTH 600 0
DWIDTH 10 0
BBX 8 16 2 0
BITMAP
01
07
00
06
09
06
00
1F
7F
73
E7
C7
C6
C6
FE
7F
ENDCHAR
STARTCHAR 01FC
ENCODING 508
SWIDTH 960 0
DWIDTH 16 0
BBX 18 16 0 0
BITMAP
000200
000700
000C00
000000
003FC0
007FC0
00FF80
01B000
03B000
077F00
0E7F00
0FE000
1FE000
38E000
70FF00
E0FF00
ENDCHAR
STARTCHAR 01FD
ENCODING 509
SWIDTH 840 0
DWIDTH 14 0
BBX 13 13 2 0
BITMAP
00C0
01C0
0300
0000
7CF0
7FF8
0718
1F38
7FF0
C7C0
CE00
FFE0
FBE0
ENDCHAR
STARTCHAR 01FE
ENCODING 510
SWIDTH 780 0
DWIDTH 13 0
BBX 11 16 2 -1
BITMAP
0080
01C0
0380
0000
0720
1FE0
39E0
71E0
6360
E660
ECE0
FCE0
F8C0
F1C0
7F80
FF00
ENDCHAR
STARTCHAR 01FF
ENCODING 511
SWIDTH 600 0
DWIDTH 10 0
BBX 9 13 1 -1
BITMAP
0180
0380
0600
0000
0F80
3F80
7380
6780
6D80
7B80
7300
7F00
FE00
ENDCHAR
STARTCHAR 0200
ENCODING 512
SWIDTH 720 0
DWIDTH 12 0
BBX 10 16 1 0
BITMAP
0480
0D80
06C0
0000
0380
0380
0780
0F80
0DC0
1DC0
19C0
3FC0
7FC0
60C0
E0C0
C0C0
ENDCHAR
STARTCHAR 0201
ENCODING 513
SWIDTH 600 0
DWIDTH 10 0
BBX 8 13 2 0
BITMAP
26
36
1B
00
1F
7F
73
E7
C7
C6
C6
FE
7F
ENDCHAR
STARTCHAR 0202
ENCODING 514
SWIDTH 720 0
DWIDTH 12 0
BBX 10 15 1 0
BITMAP
03C0
0640
0640
0380
0380
0780
0F80
0DC0
1DC0
19C0
3FC0
7FC0
60C0
E0C0
C0C0
ENDCHAR
STARTCHAR 0203
ENCODING 515
SWIDTH 600 0
DWIDTH 10 0
BBX 8 13 2 0
BITMAP
06
0F
1B
00
1F
7F
73
E7
C7
C6
C6
FE
7F
ENDCHAR
STARTCHAR 0204
ENCODING 516
SWIDTH 600 0
DWIDTH 10 0
BBX 11 16 1 0
BITMAP
0900
0D80
04C0
0400
1FE0
1FC0
1FC0
3800
3800
3F80
3F80
7000
7000
6000
7F80
FF00
ENDCHAR
STARTCHAR 0205
ENCODING 517
SWIDTH 540 0
DWIDTH 9 0
BBX 8 13 2 0
BITMAP
6C
66
36
00
1E
7E
67
C7
FE
F8
C0
FC
7C
ENDCHAR
STARTCHAR 0206
ENCODING 518
SWIDTH 600 0
DWIDTH 10 0
BBX 11 15 1 0
BITMAP
0780
06C0
04C0
1FE0
1FC0
1FC0
3800
3800
3F80
3F80
7000
7000
6000
7F80
FF00
ENDCHAR
STARTCHAR 0207
ENCODING 519
SWIDTH 540 0
DWIDTH 9 0
BBX 8 13 2 0
BITMAP
04
1E
33
00
1E
7E
67
C7
FE
F8
C0
FC
7C
ENDCHAR
STARTCHAR 0208
ENCODING 520
SWIDTH 300 0
DWIDTH 5 0
BBX 7 16 1 0
BITMAP
48
6C
26
20
1C
18
18
38
38
30
30
70
70
60
60
E0
ENDCHAR
STARTCHAR 0209
ENCODING 521
SWIDTH 300 0
DWIDTH 5 0
BBX 6 13 1 0
BITMAP
D8
D8
6C
00
38
30
30
70
70
60
60
60
E0
ENDCHAR
STARTCHAR 020A
ENCODING 522
SWIDTH 300 0
DWIDTH 5 0
BBX 7 15 1 0
BITMAP
1E
32
32
1C
18
18
38
38
30
30
70
70
60
60
E0
ENDCHAR
STARTCHAR 020B
ENCODING 523
SWIDTH 300 0
DWIDTH 5 0
BBX 7 13 1 0
BITMAP
18
3C
66
00
38
30
30
70
70
60
60
60
E0
ENDCHAR
STARTCHAR 020C
ENCODING 524
SWIDTH 780 0
DWIDTH 13 0
BBX 11 16 2 0
BITMAP
0900
1980
0D80
0080
0700
1FC0
3DE0
70E0
6060
E060
E0E0
E0E0
E0C0
E1C0
7F80
3F00
ENDCHAR
STARTCHAR 020D
ENCODING 525
SWIDTH 600 0
DWIDTH 10 0
BBX 8 13 2 0
BITMAP
24
36
13
00
1E
7F
E7
E3
C3
C7
C6
FE
7C
ENDCHAR
STARTCHAR 020E
ENCODING 526
SWIDTH 780 0
DWIDTH 13 0
BBX 11 15 2 0
BITMAP
0780
0C80
0C80
0700
1FC0
3DE0
70E0
6060
E060
E0E0
E0E0
E0C0
E1C0
7F80
3F00
ENDCHAR
STARTCHAR 020F
ENCODING 527
SWIDTH 600 0
DWIDTH 10 0
BBX 8 13 2 0
BITMAP
04
1E
33
00
1E
7F
E7
E3
C3
C7
C6
FE
7C
ENDCHAR
STARTCHAR 0210
ENCODING 528
SWIDTH 660 0
DWIDTH 11 0
BBX 11 16 1 0
BITMAP
1100
1B00
0D80
0000
0F00
1FC0
1FC0
38E0
38E0
31C0
3F80
7F00
7300
6380
6380
E180
ENDCHAR
STARTCHAR 0211
ENCODING 529
SWIDTH 420 0
DWIDTH 7 0
BBX 8 13 1 0
BITMAP
36
36
1B
00
1F
3E
30
70
70
60
60
60
E0
ENDCHAR
STARTCHAR 0212
ENCODING 530
SWIDTH 660 0
DWIDTH 11 0
BBX 11 15 1 0
BITMAP
0780
06C0
0CC0
0F00
1FC0
1FC0
38E0
38E0
31C0
3F80
7F00
7300
6380
6380
E180
ENDCHAR
STARTCHAR 0213
ENCODING 531
SWIDTH 420 0
DWIDTH 7 0
BBX 8 13 1 0
BITMAP
04
1F
1B
00
1F
3E
30
70
70
60
60
60
E0
ENDCHAR
STARTCHAR 0214
ENCODING 532
SWIDTH 660 0
DWIDTH 11 0
BBX 11 16 2 0
BITMAP
1100
1B00
0D80
0000
30E0
30E0
70C0
70C0
61C0
61C0
E180
E180
E380
E380
FF00
7E00
ENDCHAR
STARTCHAR 0215
ENCODING 533
SWIDTH 600 0
DWIDTH 10 0
BBX 8 13 2 0
BITMAP
24
36
12
00
63
63
E7
E7
C6
C6
C6
FE
FE
ENDCHAR
STARTCHAR 0216
ENCODING 534
SWIDTH 660 0
DWIDTH 11 0
BBX 11 15 2 0
BITMAP
0780
0D80
0C80
30E0
30E0
70C0
70C0
61C0
61C0
E180
E180
E380
E380
FF00
7E00
ENDCHAR
STARTCHAR 0217
ENCODING 535
SWIDTH 600 0
DWIDTH 10 0
BBX 8 13 2 0
BITMAP
0C
1E
32
00
63
63
E7
E7
C6
C6
C6
FE
FE
ENDCHAR
STARTCHAR 0218
ENCODING 536
SWIDTH 540 0
DWIDTH 9 0
BBX 9 16 1 -4
BITMAP
0F00
3F80
3980
7000
3800
3C00
1F00
0700
0300
0700
FF00
FE00
0000
3000
7000
4000
ENDCHAR
STARTCHAR 0219
ENCODING 537
SWIDTH 480 0
DWIDTH 8 0
BBX 8 13 1 -4
BITMAP
1F
3E
70
70
3C
0E
0E
FE
FC
00
30
70
40
ENDCHAR
STARTCHAR 021A
ENCODING 538
SWIDTH 600 0
DWIDTH 10 0
BBX 10 16 2 -4
BITMAP
7FC0
7FC0
FFC0
0C00
1C00
1C00
1800
1800
3800
3800
3800
3000
0000
3000
E000
C000
ENDCHAR
STARTCHAR 021B
ENCODING 539
SWIDTH 420 0
DWIDTH 7 0
BBX 6 15 2 -4
BITMAP
70
70
7C
7C
E0
E0
C0
C0
C0
F8
F8
00
60
E0
80
ENDCHAR
STARTCHAR 021C
ENCODING 540
SWIDTH 600 0
DWIDTH 10 0
BBX 11 15 0 -3
BITMAP
0780
1FC0
19C0
00E0
00C0
01C0
0F80
1F80
0380
0180
0180
0380
0F80
FE00
FC00
ENDCHAR
STARTCHAR 021D
ENCODING 541
SWIDTH 480 0
DWIDTH 8 0
BBX 9 12 0 -3
BITMAP
3E00
3F00
0380
0300
0F00
1C00
1E00
0700
0700
0E00
FC00
F000
ENDCHAR
STARTCHAR 021E
ENCODING 542
SWIDTH 720 0
DWIDTH 12 0
BBX 12 16 1 0
BITMAP
0240
03C0
0180
0000
1C30
1870
1870
3870
3860
3FE0
3FE0
70E0
70C0
60C0
61C0
E1C0
ENDCHAR
STARTCHAR 021F
ENCODING 543
SWIDTH 540 0
DWIDTH 9 0
BBX 9 16 1 0
BITMAP
0D00
0700
0000
1C00
1800
1800
3800
3F00
3F80
3380
7380
7380
6300
6300
6700
E700
ENDCHAR
STARTCHAR 0220
ENCODING 544
SWIDTH 720 0
DWIDTH 12 0
BBX 11 15 1 -3
BITMAP
0F80
1FE0
1DE0
38E0
38E0
30E0
30E0
70C0
71C0
61C0
61C0
E180
0180
0380
0380
ENDCHAR
STARTCHAR 0221
ENCODING 545
SWIDTH 720 0
DWIDTH 12 0
BBX 10 16 2 -3
BITMAP
01C0
0180
0180
0380
1F80
7F00
7300
E700
C700
C600
C780
FFC0
7EC0
1CC0
37C0
2780
ENDCHAR
STARTCHAR 0222
ENCODING 546
SWIDTH 720 0
DWIDTH 12 0
BBX 11 12 2 0
BITMAP
18E0
38E0
30E0
30C0
39C0
3F80
7F80
E1C0
C1C0
E1C0
FF80
7F00
ENDCHAR
STARTCHAR 0223
ENCODING 547
SWIDTH 600 0
DWIDTH 10 0
BBX 10 13 2 0
BITMAP
19C0
31C0
3180
3180
3380
3F00
7F00
E300
C300
C300
C700
FE00
7C00
ENDCHAR
STARTCHAR 0224
ENCODING 548
SWIDTH 660 0
DWIDTH 11 0
BBX 11 15 1 -3
BITMAP
1FE0
1FE0
3FE0
0380
0700
0E00
0C00
1800
3800
7000
FF80
FF80
0380
0F00
0E00
ENDCHAR
STARTCHAR 0225
ENCODING 549
SWIDTH 540 0
DWIDTH 9 0
BBX 9 12 1 -3
BITMAP
3F80
3F80
0700
0E00
1C00
3800
7000
FE00
FE00
0600
1E00
3C00
ENDCHAR
STARTCHAR 0226
ENCODING 550
SWIDTH 720 0
DWIDTH 12 0
BBX 10 15 1 0
BITMAP
0180
0180
0000
0380
0380
0780
0F80
0DC0
1DC0
19C0
3FC0
7FC0
60C0
E0C0
C0C0
ENDCHAR
STARTCHAR 0227
ENCODING 551
SWIDTH 600 0
DWIDTH 10 0
BBX 8 13 2 0
BITMAP
06
06
06
00
1F
7F
73
E7
C7
C6
C6
FE
7F
ENDCHAR
STARTCHAR 0228
ENCODING 552
SWIDTH 600 0
DWIDTH 10 0
BBX 11 16 1 -4
BITMAP
1FE0
1FC0
1FC0
3800
3800
3F80
3F80
7000
7000
6000
7F80
FF00
0800
0C00
3C00
3800
ENDCHAR
STARTCHAR 0229
ENCODING 553
SWIDTH 540 0
DWIDTH 9 0
BBX 8 13 2 -4
BITMAP
1E
7E
67
C7
FE
F8
C0
FC
7C
30
18
70
60
ENDCHAR
STARTCHAR 022A
ENCODING 554
SWIDTH 780 0
DWIDTH 13 0
BBX 11 16 2 0
BITMAP
0780
0000
0D80
0D80
0700
1FC0
3DE0
70E0
6060
E060
E0E0
E0E0
E0C0
E1C0
7F80
3F00
ENDCHAR
STARTCHAR 022B
ENCODING 555
SWIDTH 600 0
DWIDTH 10 0
BBX 8 14 2 0
BITMAP
0F
1F
13
1B
00
1E
7F
E7
E3
C3
C7
C6
FE
7C
ENDCHAR
STARTCHAR 022C
ENCODING 556
SWIDTH 780 0
DWIDTH 13 0
BBX 11 16 2 0
BITMAP
07C0
0000
0780
0100
0700
1FC0
3DE0
70E0
6060
E060
E0E0
E0E0
E0C0
E1C0
7F80
3F00
ENDCHAR
STARTCHAR 022D
ENCODING 557
SWIDTH 600 0
DWIDTH 10 0
BBX 8 14 2 0
BITMAP
0F
1F
1A
1E
00
1E
7F
E7
E3
C3
C7
C6
FE
7C
ENDCHAR
STARTCHAR 022E
ENCODING 558
SWIDTH 780 0
DWIDTH 13 0
BBX 11 15 2 0
BITMAP
0300
0300
0000
0700
1FC0
3DE0
70E0
6060
E060
E0E0
E0E0
E0C0
E1C0
7F80
3F00
ENDCHAR
STARTCHAR 022F
ENCODING 559
SWIDTH 600 0
DWIDTH 10 0
BBX 8 13 2 0
BITMAP
04
0C
0C
00
1E
7F
E7
E3
C3
C7
C6
FE
7C
ENDCHAR
STARTCHAR 0230
ENCODING 560
SWIDTH 780 0
DWIDTH 13 0
BBX 11 16 2 0
BITMAP
07C0
0000
0300
0300
0700
1FC0
3DE0
70E0
6060
E060
E0E0
E0E0
E0C0
E1C0
7F80
3F00
ENDCHAR
STARTCHAR 0231
ENCODING 561
SWIDTH 600 0
DWIDTH 10 0
BBX 8 14 2 0
BITMAP
1F
1E
0C
0C
00
1E
7F
E7
E3
C3
C7
C6
FE
7C
ENDCHAR
STARTCHAR 0232
ENCODING 562
SWIDTH 660 0
DWIDTH 11 0
BBX 10 15 3 0
BITMAP
1F00
3F00
0000
E1C0
E180
E380
6700
7E00
7C00
3C00
3800
3800
3000
7000
7000
ENDCHAR
STARTCHAR 0233
ENCODING 563
SWIDTH 540 0
DWIDTH 9 0
BBX 10 15 0 -3
BITMAP
0FC0
0F80
0000
38C0
39C0
39C0
1980
1B80
1B00
1F00
1E00
0C00
1C00
F800
F000
ENDCHAR
STARTCHAR 0234
ENCODING 564
SWIDTH 480 0
DWIDTH 8 0
BBX 8 15 0 -1
BITMAP
06
0E
0E
0C
0C
1C
1C
18
18
38
3F
3F
73
F7
9E
ENDCHAR
STARTCHAR 0235
ENCODING 565
SWIDTH 720 0
DWIDTH 12 0
BBX 11 12 1 -3
BITMAP
1F00
3F80
3380
7380
7380
6300
63C0
67E0
E760
0E60
1BE0
13C0
ENDCHAR
STARTCHAR 0236
ENCODING 566
SWIDTH 480 0
DWIDTH 8 0
BBX 10 14 -1 -3
BITMAP
0700
0600
07C0
0FC0
0E00
0C00
0C00
1C00
1E00
1F80
1980
3980
FF00
4E00
ENDCHAR
STARTCHAR 0237
ENCODING 567
SWIDTH 300 0
DWIDTH 5 0
BBX 7 12 -1 -3
BITMAP
0E
0E
0C
0C
1C
1C
18
18
38
38
F0
E0
ENDCHAR
STARTCHAR 0238
ENCODING 568
SWIDTH 900 0
DWIDTH 15 0
BBX 13 13 2 0
BITMAP
01C0
0180
0180
0380
1FF0
7FF8
7338
E718
C718
C638
C670
FFF0
7FC0
ENDCHAR
STARTCHAR 0239
ENCODING 569
SWIDTH 900 0
DWIDTH 15 0
BBX 13 12 2 -3
BITMAP
1FF0
7FF8
7338
E718
C718
C638
C670
FFF0
7FC0
0C00
0C00
0C00
ENDCHAR
STARTCHAR 023A
ENCODING 570
SWIDTH 720 0
DWIDTH 12 0
BBX 12 14 0 -2
BITMAP
0010
01F0
01E0
03E0
07C0
06C0
0DE0
1DE0
1FE0
3FE0
3660
7C60
E860
1800
ENDCHAR
STARTCHAR 023B
ENCODING 571
SWIDTH 660 0
DWIDTH 11 0
BBX 11 14 2 -2
BITMAP
0060
07C0
1FC0
3DC0
7300
E300
E600
E400
EC00
E800
F800
7F00
3F00
6000
ENDCHAR
STARTCHAR 023C
ENCODING 572
SWIDTH 480 0
DWIDTH 8 0
BBX 8 11 2 -1
BITMAP
03
1F
7F
EC
E8
D8
D0
F0
FC
7C
40
ENDCHAR
STARTCHAR 023D
ENCODING 573
SWIDTH 540 0
DWIDTH 9 0
BBX 8 12 1 0
BITMAP
1C
18
18
38
38
7E
FC
70
70
60
7F
FF
ENDCHAR
STARTCHAR 023E
ENCODING 574
SWIDTH 660 0
DWIDTH 11 0
BBX 14 13 0 -1
BITMAP
0004
1FFC
1FF8
1FF0
0360
07C0
0780
0700
0600
0E00
1E00
2E00
CC00
ENDCHAR
STARTCHAR 023F
ENCODING 575
SWIDTH 480 0
DWIDTH 8 0
BBX 8 12 1 -3
BITMAP
1F
3E
70
70
3C
0E
0E
FE
FC
60
7C
38
ENDCHAR
STARTCHAR 0240
ENCODING 576
SWIDTH 480 0
DWIDTH 8 0
BBX 9 12 1 -3
BITMAP
3F80
3F00
0700
0E00
1C00
3800
7000
E000
F000
3800
1E00
0E00
ENDCHAR
STARTCHAR 0241
ENCODING 577
SWIDTH 480 0
DWIDTH 8 0
BBX 8 12 2 0
BITMAP
3C
7E
7F
07
06
1E
38
70
60
E0
E0
E0
ENDCHAR
STARTCHAR 0242
ENCODING 578
SWIDTH 420 0
DWIDTH 7 0
BBX 6 9 2 0
BITMAP
78
FC
8C
0C
38
70
E0
C0
C0
ENDCHAR
STARTCHAR 0243
ENCODING 579
SWIDTH 660 0
DWIDTH 11 0
BBX 11 12 1 0
BITMAP
0F80
1FC0
19E0
38E0
38C0
3F80
3FC0
71C0
F8C0
71C0
7F80
FF00
ENDCHAR
STARTCHAR 0244
ENCODING 580
SWIDTH 780 0
DWIDTH 13 0
BBX 12 12 2 0
BITMAP
1870
3860
3860
30E0
30E0
FFF0
FFE0
61C0
61C0
7380
7F80
3F00
ENDCHAR
STARTCHAR 0245
ENCODING 581
SWIDTH 720 0
DWIDTH 12 0
BBX 10 12 1 0
BITMAP
0380
0380
0780
0F80
0D80
19C0
39C0
31C0
71C0
61C0
E0C0
C0C0
ENDCHAR
STARTCHAR 0246
ENCODING 582
SWIDTH 600 0
DWIDTH 10 0
BBX 11 14 1 -2
BITMAP
0020
1FE0
1FE0
1FC0
3880
3980
3F80
3F80
7600
7400
6C00
7F80
FF80
3000
ENDCHAR
STARTCHAR 0247
ENCODING 583
SWIDTH 540 0
DWIDTH 9 0
BBX 8 11 2 -2
BITMAP
06
1E
7F
6B
CB
FE
F0
F0
FC
7C
60
ENDCHAR
STARTCHAR 0248
ENCODING 584
SWIDTH 540 0
DWIDTH 9 0
BBX 9 12 1 0
BITMAP
0380
0380
0380
0300
0700
1F80
1F80
0600
0E00
8E00
FC00
F800
ENDCHAR
STARTCHAR 0249
ENCODING 585
SWIDTH 360 0
DWIDTH 6 0
BBX 8 16 -1 -3
BITMAP
03
07
07
00
06
06
0E
0E
1F
0C
1C
1C
18
18
F8
F0
ENDCHAR
STARTCHAR 024A
ENCODING 586
SWIDTH 780 0
DWIDTH 13 0
BBX 11 15 2 -3
BITMAP
0780
1FC0
3DE0
70E0
6060
E060
E0E0
E0E0
E0E0
E1C0
7FC0
3FC0
01C0
01E0
00E0
ENDCHAR
STARTCHAR 024B
ENCODING 587
SWIDTH 600 0
DWIDTH 10 0
BBX 8 12 2 -3
BITMAP
1F
7F
73
E7
C7
C6
C6
FE
7E
0C
0F
0F
ENDCHAR
STARTCHAR 024C
ENCODING 588
SWIDTH 660 0
DWIDTH 11 0
BBX 11 12 1 0
BITMAP
0F00
1FC0
1FE0
18E0
38E0
39C0
FFC0
FF00
7380
7380
6180
61C0
ENDCHAR
STARTCHAR 024D
ENCODING 589
SWIDTH 420 0
DWIDTH 7 0
BBX 8 9 1 0
BITMAP
1F
3F
38
30
7C
FC
70
60
60
ENDCHAR
STARTCHAR 024E
ENCODING 590
SWIDTH 660 0
DWIDTH 11 0
BBX 11 12 2 0
BITMAP
60E0
70C0
7FE0
FFC0
3B00
3E00
1E00
1C00
1C00
1800
3800
3800
ENDCHAR
STARTCHAR 024F
ENCODING 591
SWIDTH 540 0
DWIDTH 9 0
BBX 10 12 0 -3
BITMAP
38C0
39C0
39C0
3FC0
7FC0
1B00
1F00
1E00
0C00
1C00
F800
F000
ENDCHAR
STARTCHAR 0292
ENCODING 658
SWIDTH 480 0
DWIDTH 8 0
BBX 10 12 0 -3
BITMAP
1FC0
3F80
0380
0700
0E00
1E00
1F00
0300
0700
0700
FE00
FC00
ENDCHAR
STARTCHAR 02BC
ENCODING 700
SWIDTH 300 0
DWIDTH 5 0
BBX 2 4 4 9
BITMAP
C0
C0
80
80
ENDCHAR
STARTCHAR 02C6
ENCODING 710
SWIDTH 420 0
DWIDTH 7 0
BBX 5 3 3 10
BITMAP
10
78
D8
ENDCHAR
STARTCHAR 02C7
ENCODING 711
SWIDTH 420 0
DWIDTH 7 0
BBX 4 3 4 10
BITMAP
90
F0
60
ENDCHAR
STARTCHAR 02C9
ENCODING 713
SWIDTH 360 0
DWIDTH 6 0
BBX 5 2 3 10
BITMAP
F8
F8
ENDCHAR
STARTCHAR 02D8
ENCODING 728
SWIDTH 420 0
DWIDTH 7 0
BBX 6 3 3 10
BITMAP
CC
78
70
ENDCHAR
STARTCHAR 02D9
ENCODING 729
SWIDTH 540 0
DWIDTH 9 0
BBX 2 3 6 10
BITMAP
40
C0
C0
ENDCHAR
STARTCHAR 02DA
ENCODING 730
SWIDTH 300 0
DWIDTH 5 0
BBX 4 4 3 10
BITMAP
20
70
D0
70
ENDCHAR
STARTCHAR 02DB
ENCODING 731
SWIDTH 300 0
DWIDTH 5 0
BBX 4 4 0 -4
BITMAP
70
E0
F0
60
ENDCHAR
STARTCHAR 02DC
ENCODING 732
SWIDTH 360 0
DWIDTH 6 0
BBX 6 2 3 11
BITMAP
FC
B8
ENDCHAR
STARTCHAR 02DD
ENCODING 733
SWIDTH 420 0
DWIDTH 7 0
BBX 6 3 3 10
BITMAP
24
6C
D8
ENDCHAR
STARTCHAR 0311
ENCODING 785
SWIDTH 420 0
DWIDTH 7 0
BBX 5 3 3 10
BITMAP
30
F8
D8
ENDCHAR
STARTCHAR 0384
ENCODING 900
SWIDTH 420 0
DWIDTH 7 0
BBX 4 3 4 11
BITMAP
30
60
C0
ENDCHAR
STARTCHAR 0385
ENCODING 901
SWIDTH 600 0
DWIDTH 10 0
BBX 8 3 4 10
BITMAP
1A
DF
F6
ENDCHAR
STARTCHAR 0386
ENCODING 902
SWIDTH 720 0
DWIDTH 12 0
BBX 11 12 1 0
BITMAP
3980
3380
37C0
26C0
0EC0
0CC0
18C0
3FC0
3FC0
70E0
60E0
E0E0
ENDCHAR
STARTCHAR 0388
ENCODING 904
SWIDTH 720 0
DWIDTH 12 0
BBX 12 12 2 0
BITMAP
67F0
6FF0
CFF0
4C00
0C00
1FC0
1FC0
1800
1800
3800
3FC0
3FC0
ENDCHAR
STARTCHAR 0389
ENCODING 905
SWIDTH 840 0
DWIDTH 14 0
BBX 14 12 2 0
BITMAP
661C
6E1C
CE18
4C18
0C38
1FF8
1FF0
1830
1870
3870
3860
3860
ENDCHAR
STARTCHAR 038A
ENCODING 906
SWIDTH 480 0
DWIDTH 8 0
BBX 7 12 2 0
BITMAP
66
6E
CE
4C
0C
1C
1C
18
18
38
38
30
ENDCHAR
STARTCHAR 038C
ENCODING 908
SWIDTH 900 0
DWIDTH 15 0
BBX 13 12 2 0
BITMAP
61E0
67F0
CF78
5C38
1C18
1818
3818
3838
3838
1C70
1FE0
0FC0
ENDCHAR
STARTCHAR 038E
ENCODING 910
SWIDTH 660 0
DWIDTH 11 0
BBX 14 12 -1 0
BITMAP
6C1C
CE38
CE38
8670
07E0
07C0
0380
0380
0300
0300
0700
0700
ENDCHAR
STARTCHAR 038F
ENCODING 911
SWIDTH 900 0
DWIDTH 15 0
BBX 14 12 2 0
BITMAP
63E0
6FF0
DE78
5C18
381C
381C
3818
3838
1830
1C60
7CF8
7DF0
ENDCHAR
STARTCHAR 0390
ENCODING 912
SWIDTH 300 0
DWIDTH 5 0
BBX 7 13 2 0
BITMAP
18
D6
F6
00
70
70
60
60
E0
E0
C0
E0
E0
ENDCHAR
STARTCHAR 0391
ENCODING 913
SWIDTH 720 0
DWIDTH 12 0
BBX 10 12 1 0
BITMAP
0380
0380
0780
0F80
0DC0
1DC0
19C0
3FC0
7FC0
60C0
E0C0
C0C0
ENDCHAR
STARTCHAR 0392
ENCODING 914
SWIDTH 660 0
DWIDTH 11 0
BBX 11 12 1 0
BITMAP
0F00
1FC0
39E0
38E0
38C0
3F80
3FC0
71C0
71C0
61C0
7F80
FF00
ENDCHAR
STARTCHAR 0393
ENCODING 915
SWIDTH 540 0
DWIDTH 9 0
BBX 10 12 1 0
BITMAP
1FC0
1FC0
1FC0
3800
3800
3000
3000
7000
7000
6000
6000
E000
ENDCHAR
STARTCHAR 0394
ENCODING 916
SWIDTH 720 0
DWIDTH 12 0
BBX 11 12 0 0
BITMAP
01C0
01C0
03C0
07C0
06C0
0CE0
1CE0
18E0
38E0
3060
7FE0
FFE0
ENDCHAR
STARTCHAR 0395
ENCODING 917
SWIDTH 600 0
DWIDTH 10 0
BBX 11 12 1 0
BITMAP
1FE0
1FC0
1FC0
3800
3800
3F80
3F80
7000
7000
6000
7F80
FF00
ENDCHAR
STARTCHAR 0396
ENCODING 918
SWIDTH 660 0
DWIDTH 11 0
BBX 11 12 1 0
BITMAP
1FE0
1FE0
3FE0
0380
0700
0E00
0C00
1800
3800
7000
FF80
FF80
ENDCHAR
STARTCHAR 0397
ENCODING 919
SWIDTH 720 0
DWIDTH 12 0
BBX 12 12 1 0
BITMAP
1C30
1870
1870
3870
3860
3FE0
3FE0
70E0
70C0
60C0
61C0
E1C0
ENDCHAR
STARTCHAR 0398
ENCODING 920
SWIDTH 780 0
DWIDTH 13 0
BBX 11 12 2 0
BITMAP
0700
1FC0
3DE0
70E0
6060
EF60
EEE0
E0E0
E0C0
E1C0
7F80
3F00
ENDCHAR
STARTCHAR 0399
ENCODING 921
SWIDTH 300 0
DWIDTH 5 0
BBX 6 12 1 0
BITMAP
1C
18
18
38
38
30
30
70
70
60
60
E0
ENDCHAR
STARTCHAR 039A
ENCODING 922
SWIDTH 660 0
DWIDTH 11 0
BBX 12 12 1 0
BITMAP
1C70
18E0
19C0
3B80
3F00
3E00
3E00
7E00
7700
6380
6380
E1C0
ENDCHAR
STARTCHAR 039B
ENCODING 923
SWIDTH 720 0
DWIDTH 12 0
BBX 10 12 1 0
BITMAP
0380
0380
0780
0F80
0D80
19C0
39C0
31C0
71C0
61C0
E0C0
C0C0
ENDCHAR
STARTCHAR 039C
ENCODING 924
SWIDTH 900 0
DWIDTH 15 0
BBX 14 12 1 0
BITMAP
0C0C
1C1C
1C1C
1E3C
3E7C
367C
36D8
7798
6798
6738
E338
E038
ENDCHAR
STARTCHAR 039D
ENCODING 925
SWIDTH 720 0
DWIDTH 12 0
BBX 13 12 1 0
BITMAP
1838
1C38
1C30
3E70
3E70
3770
3360
73E0
71E0
61E0
61C0
E0C0
ENDCHAR
STARTCHAR 039E
ENCODING 926
SWIDTH 600 0
DWIDTH 10 0
BBX 11 12 1 0
BITMAP
1FE0
3FE0
3FC0
0000
0000
3F80
3F80
0000
0000
0000
FF80
FF00
ENDCHAR
STARTCHAR 039F
ENCODING 927
SWIDTH 780 0
DWIDTH 13 0
BBX 11 12 2 0
BITMAP
0700
1FC0
3DE0
70E0
6060
E060
E0E0
E0E0
E0C0
E1C0
7F80
3F00
ENDCHAR
STARTCHAR 03A0
ENCODING 928
SWIDTH 720 0
DWIDTH 12 0
BBX 12 12 1 0
BITMAP
1FF0
1FF0
1FF0
3860
3860
30E0
30E0
70C0
70C0
61C0
61C0
E1C0
ENDCHAR
STARTCHAR 03A1
ENCODING 929
SWIDTH 660 0
DWIDTH 11 0
BBX 11 12 1 0
BITMAP
0F00
1FC0
1FE0
38E0
38E0
31C0
3FC0
7F00
7000
6000
6000
E000
ENDCHAR
STARTCHAR 03A3
ENCODING 931
SWIDTH 600 0
DWIDTH 10 0
BBX 11 12 1 0
BITMAP
1FE0
3FC0
3FC0
1C00
1C00
0E00
0E00
1C00
3800
7000
FF00
FF00
ENDCHAR
STARTCHAR 03A4
ENCODING 932
SWIDTH 600 0
DWIDTH 10 0
BBX 10 12 2 0
BITMAP
7FC0
7FC0
FFC0
0C00
1C00
1C00
1800
1800
3800
3800
3800
3000
ENDCHAR
STARTCHAR 03A5
ENCODING 933
SWIDTH 660 0
DWIDTH 11 0
BBX 10 12 3 0
BITMAP
E1C0
E180
E380
6700
7E00
7C00
3C00
3800
3800
3000
7000
7000
ENDCHAR
STARTCHAR 03A6
ENCODING 934
SWIDTH 840 0
DWIDTH 14 0
BBX 13 12 2 0
BITMAP
0380
0FC0
3FF0
7370
E738
E738
E630
E670
FFE0
7FC0
1E00
0C00
ENDCHAR
STARTCHAR 03A7
ENCODING 935
SWIDTH 660 0
DWIDTH 11 0
BBX 12 12 1 0
BITMAP
3870
18E0
1CC0
0DC0
0F80
0F00
0F00
1F00
3B80
7380
6180
E1C0
ENDCHAR
STARTCHAR 03A8
ENCODING 936
SWIDTH 840 0
DWIDTH 14 0
BBX 12 12 3 0
BITMAP
6730
E670
E670
CE60
CE60
CCE0
CCE0
FFC0
7F80
1800
1800
1800
ENDCHAR
STARTCHAR 03A9
ENCODING 937
SWIDTH 780 0
DWIDTH 13 0
BBX 13 12 1 0
BITMAP
03C0
0FF0
1EF0
3838
3038
7038
7030
3070
3060
38C0
F9F0
F9F0
ENDCHAR
STARTCHAR 03AA
ENCODING 938
SWIDTH 300 0
DWIDTH 5 0
BBX 8 15 1 0
BITMAP
33
37
00
1C
18
18
38
38
30
30
70
70
60
60
E0
ENDCHAR
STARTCHAR 03AB
ENCODING 939
SWIDTH 660 0
DWIDTH 11 0
BBX 10 15 3 0
BITMAP
3B00
3300
0000
E1C0
E180
E380
6700
7E00
7C00
3C00
3800
3800
3000
7000
7000
ENDCHAR
STARTCHAR 03AC
ENCODING 940
SWIDTH 600 0
DWIDTH 10 0
BBX 9 13 2 1
BITMAP
0380
0300
0600
0000
1F00
7F00
7300
E700
C700
C600
C600
FF00
7F00
ENDCHAR
STARTCHAR 03AD
ENCODING 941
SWIDTH 480 0
DWIDTH 8 0
BBX 8 13 2 1
BITMAP
07
06
0C
00
3E
7E
60
60
78
E0
C0
FC
FC
ENDCHAR
STARTCHAR 03AE
ENCODING 942
SWIDTH 540 0
DWIDTH 9 0
BBX 9 16 1 -2
BITMAP
0180
0300
0600
0000
1F00
3F80
3380
7380
7380
6300
6300
6700
E700
0600
0600
0E00
ENDCHAR
STARTCHAR 03AF
ENCODING 943
SWIDTH 300 0
DWIDTH 5 0
BBX 5 13 2 1
BITMAP
18
18
30
00
70
70
60
60
E0
E0
C0
E0
E0
ENDCHAR
STARTCHAR 03B0
ENCODING 944
SWIDTH 540 0
DWIDTH 9 0
BBX 9 13 2 0
BITMAP
0600
7580
2980
0000
7300
6300
6700
E700
E600
C600
CE00
FC00
7C00
ENDCHAR
STARTCHAR 03B1
ENCODING 945
SWIDTH 600 0
DWIDTH 10 0
BBX 8 9 2 0
BITMAP
1F
7F
73
E7
C7
C6
C6
FF
7F
ENDCHAR
STARTCHAR 03B2
ENCODING 946
SWIDTH 660 0
DWIDTH 11 0
BBX 10 16 1 -3
BITMAP
0780
1FC0
1DC0
18C0
39C0
3380
3780
31C0
71C0
71C0
61C0
7F80
FF00
E000
C000
C000
ENDCHAR
STARTCHAR 03B3
ENCODING 947
SWIDTH 540 0
DWIDTH 9 0
BBX 9 12 2 -3
BITMAP
E380
E300
6700
6600
6E00
6C00
7C00
7800
7000
6000
6000
6000
ENDCHAR
STARTCHAR 03B4
ENCODING 948
SWIDTH 600 0
DWIDTH 10 0
BBX 9 13 2 0
BITMAP
0F00
3F80
3800
3800
1C00
3E00
7700
E700
C300
C700
C700
FE00
7C00
ENDCHAR
STARTCHAR 03B5
ENCODING 949
SWIDTH 480 0
DWIDTH 8 0
BBX 7 9 2 0
BITMAP
3E
7E
60
60
78
E0
C0
FC
FC
ENDCHAR
STARTCHAR 03B6
ENCODING 950
SWIDTH 480 0
DWIDTH 8 0
BBX 9 16 2 -3
BITMAP
3F80
3F00
0700
0E00
1800
3000
7000
E000
C000
C000
E000
F800
7C00
0C00
0C00
0800
ENDCHAR
STARTCHAR 03B7
ENCODING 951
SWIDTH 540 0
DWIDTH 9 0
BBX 9 12 1 -3
BITMAP
1F00
3F80
3380
7380
7380
6300
6300
6700
E700
0600
0600
0E00
ENDCHAR
STARTCHAR 03B8
ENCODING 952
SWIDTH 600 0
DWIDTH 10 0
BBX 9 13 2 0
BITMAP
0E00
3F00
3380
7380
6180
E380
FF80
FF00
C300
C700
C600
FE00
7800
ENDCHAR
STARTCHAR 03B9
ENCODING 953
SWIDTH 300 0
DWIDTH 5 0
BBX 4 9 2 0
BITMAP
70
70
60
60
E0
E0
C0
E0
E0
ENDCHAR
STARTCHAR 03BA
ENCODING 954
SWIDTH 600 0
DWIDTH 10 0
BBX 10 9 1 0
BITMAP
39C0
3380
3700
7E00
7C00
6E00
6E00
6700
E700
ENDCHAR
STARTCHAR 03BB
ENCODING 955
SWIDTH 540 0
DWIDTH 9 0
BBX 8 13 1 0
BITMAP
1C
3C
0E
06
0E
0E
1E
3F
37
77
67
E7
C7
ENDCHAR
STARTCHAR 03BC
ENCODING 956
SWIDTH 660 0
DWIDTH 11 0
BBX 10 12 1 -3
BITMAP
39C0
39C0
3180
3180
7380
7380
7300
7F80
FF80
E000
C000
C000
ENDCHAR
STARTCHAR 03BD
ENCODING 957
SWIDTH 540 0
DWIDTH 9 0
BBX 9 9 2 0
BITMAP
E380
E300
E700
E600
EE00
7C00
7800
7800
7000
ENDCHAR
STARTCHAR 03BE
ENCODING 958
SWIDTH 480 0
DWIDTH 8 0
BBX 8 16 2 -3
BITMAP
0F
3F
38
30
30
3E
7E
F0
E0
C0
C0
F8
7C
1C
1C
18
ENDCHAR
STARTCHAR 03BF
ENCODING 959
SWIDTH 600 0
DWIDTH 10 0
BBX 8 9 2 0
BITMAP
1E
7F
E7
E3
C3
C7
C6
FE
7C
ENDCHAR
STARTCHAR 03C0
ENCODING 960
SWIDTH 600 0
DWIDTH 10 0
BBX 10 9 1 0
BITMAP
3FC0
3F80
3180
3180
7380
7380
6300
6300
E700
ENDCHAR
STARTCHAR 03C1
ENCODING 961
SWIDTH 600 0
DWIDTH 10 0
BBX 9 12 1 -3
BITMAP
0F00
1F80
3980
3180
7180
7380
6380
7F00
FE00
E000
C000
C000
ENDCHAR
STARTCHAR 03C2
ENCODING 962
SWIDTH 480 0
DWIDTH 8 0
BBX 7 12 2 -3
BITMAP
1E
7E
F0
E0
C0
C0
E0
F0
7C
1C
18
18
ENDCHAR
STARTCHAR 03C3
ENCODING 963
SWIDTH 600 0
DWIDTH 10 0
BBX 10 9 2 0
BITMAP
1FC0
7FC0
7700
E300
C300
C700
C700
FE00
7C00
ENDCHAR
STARTCHAR 03C4
ENCODING 964
SWIDTH 480 0
DWIDTH 8 0
BBX 7 9 2 0
BITMAP
FE
FE
30
30
70
70
60
78
78
ENDCHAR
STARTCHAR 03C5
ENCODING 965
SWIDTH 540 0
DWIDTH 9 0
BBX 8 9 2 0
BITMAP
73
63
67
E7
E6
C6
CE
FC
7C
ENDCHAR
STARTCHAR 03C6
ENCODING 966
SWIDTH 780 0
DWIDTH 13 0
BBX 11 12 2 -3
BITMAP
1F80
3FE0
76E0
E660
C660
CE60
ECE0
FFC0
3F80
1C00
1800
1800
ENDCHAR
STARTCHAR 03C7
ENCODING 967
SWIDTH 540 0
DWIDTH 9 0
BBX 9 9 1 0
BITMAP
7180
3380
3F00
1E00
1C00
3E00
3E00
6600
C700
ENDCHAR
STARTCHAR 03C8
ENCODING 968
SWIDTH 780 0
DWIDTH 13 0
BBX 12 12 2 -3
BITMAP
6730
6670
E670
E660
CE60
CCE0
ECC0
FFC0
7F00
1C00
1800
1800
ENDCHAR
STARTCHAR 03C9
ENCODING 969
SWIDTH 840 0
DWIDTH 14 0
BBX 12 9 2 0
BITMAP
2030
7070
6730
E730
C630
C630
CE70
FFE0
7BC0
ENDCHAR
STARTCHAR 03CA
ENCODING 970
SWIDTH 300 0
DWIDTH 5 0
BBX 6 13 2 0
BITMAP
44
EC
CC
00
70
70
60
60
E0
E0
C0
E0
E0
ENDCHAR
STARTCHAR 03CB
ENCODING 971
SWIDTH 540 0
DWIDTH 9 0
BBX 9 13 2 0
BITMAP
1100
3B80
1300
0000
7300
6300
6700
E700
E600
C600
CE00
FC00
7C00
ENDCHAR
STARTCHAR 03CC
ENCODING 972
SWIDTH 600 0
DWIDTH 10 0
BBX 8 13 2 1
BITMAP
06
0E
1C
00
1E
7F
E7
E3
C3
C7
C6
FE
7C
ENDCHAR
STARTCHAR 03CD
ENCODING 973
SWIDTH 540 0
DWIDTH 9 0
BBX 8 13 2 1
BITMAP
07
06
0C
00
73
63
67
E7
E6
C6
CE
FC
7C
ENDCHAR
STARTCHAR 03CE
ENCODING 974
SWIDTH 840 0
DWIDTH 14 0
BBX 12 14 2 0
BITMAP
0080
00C0
0180
0300
0000
2030
7070
6730
E730
C630
C630
CE70
FFE0
7BC0
ENDCHAR
STARTCHAR 0400
ENCODING 1024
SWIDTH 600 0
DWIDTH 10 0
BBX 11 16 1 0
BITMAP
0200
0600
0300
0100
1FE0
1FC0
1FC0
3800
3800
3F80
3F80
7000
7000
6000
7F80
FF00
ENDCHAR
STARTCHAR 0401
ENCODING 1025
SWIDTH 600 0
DWIDTH 10 0
BBX 11 15 1 0
BITMAP
0EC0
0CC0
0000
1FE0
1FC0
1FC0
3800
3800
3F80
3F80
7000
7000
6000
7F80
FF00
ENDCHAR
STARTCHAR 0402
ENCODING 1026
SWIDTH 780 0
DWIDTH 13 0
BBX 11 12 2 0
BITMAP
7FC0
7FC0
FFC0
1C00
1C00
1FC0
1FE0
3860
3860
38E0
33C0
7780
ENDCHAR
STARTCHAR 0403
ENCODING 1027
SWIDTH 540 0
DWIDTH 9 0
BBX 10 16 1 0
BITMAP
0080
01C0
0300
0000
1FC0
1FC0
1FC0
3800
3800
3000
3000
7000
7000
6000
6000
E000
ENDCHAR
STARTCHAR 0404
ENCODING 1028
SWIDTH 660 0
DWIDTH 11 0
BBX 10 12 2 0
BITMAP
0780
1FC0
3CC0
7000
6000
FF00
FE00
E000
E000
F000
7F80
3F80
ENDCHAR
STARTCHAR 0405
ENCODING 1029
SWIDTH 540 0
DWIDTH 9 0
BBX 9 12 1 0
BITMAP
0F00
3F80
3980
7000
3800
3C00
1F00
0700
0300
0700
FF00
FE00
ENDCHAR
STARTCHAR 0406
ENCODING 1030
SWIDTH 300 0
DWIDTH 5 0
BBX 6 12 1 0
BITMAP
1C
18
18
38
38
30
30
70
70
60
60
E0
ENDCHAR
STARTCHAR 0407
ENCODING 1031
SWIDTH 300 0
DWIDTH 5 0
BBX 8 15 1 0
BITMAP
33
33
00
1C
18
18
38
38
30
30
70
70
60
60
E0
ENDCHAR
STARTCHAR 0408
ENCODING 1032
SWIDTH 540 0
DWIDTH 9 0
BBX 9 12 1 0
BITMAP
0380
0380
0380
0300
0700
0700
0700
0600
0E00
8E00
FC00
F800
ENDCHAR
STARTCHAR 0409
ENCODING 1033
SWIDTH 1020 0
DWIDTH 17 0
BBX 17 12 1 0
BITMAP
07F000
07F000
0FF000
0E7000
0C6000
0C7F00
1CFF00
18E380
38C380
70C700
F1FF00
E1FC00
ENDCHAR
STARTCHAR 040A
ENCODING 1034
SWIDTH 1020 0
DWIDTH 17 0
BBX 16 12 1 0
BITMAP
1C30
1870
1870
3870
3860
3FFF
3FFF
70E3
70C3
60C7
61FE
E1FC
ENDCHAR
STARTCHAR 040B
ENCODING 1035
SWIDTH 780 0
DWIDTH 13 0
BBX 11 12 2 0
BITMAP
7FC0
7FC0
FFC0
1C00
1C00
1FC0
1FE0
38E0
38E0
38C0
31C0
71C0
ENDCHAR
STARTCHAR 040C
ENCODING 1036
SWIDTH 660 0
DWIDTH 11 0
BBX 12 16 1 0
BITMAP
0040
00E0
0180
0100
1C70
18E0
19C0
3B80
3F00
3E00
3E00
7E00
7700
6380
6380
E1C0
ENDCHAR
STARTCHAR 040D
ENCODING 1037
SWIDTH 720 0
DWIDTH 12 0
BBX 13 16 1 0
BITMAP
0100
0300
0180
0080
1C38
1870
18F0
39F0
3BF0
3360
3660
7CE0
78E0
70C0
70C0
E1C0
ENDCHAR
STARTCHAR 040E
ENCODING 1038
SWIDTH 600 0
DWIDTH 10 0
BBX 12 15 1 0
BITMAP
06C0
07C0
0000
3870
3860
38E0
18C0
1DC0
1D80
1F00
0F00
0E00
0C00
7C00
F800
ENDCHAR
STARTCHAR 040F
ENCODING 1039
SWIDTH 720 0
DWIDTH 12 0
BBX 12 15 1 -3
BITMAP
1C30
1870
1870
3860
3860
30E0
30E0
70C0
70C0
61C0
7FC0
FFC0
1C00
1C00
1800
ENDCHAR
STARTCHAR 0410
ENCODING 1040
SWIDTH 720 0
DWIDTH 12 0
BBX 10 12 1 0
BITMAP
0380
0380
0780
0F80
0DC0
1DC0
19C0
3FC0
7FC0
60C0
E0C0
C0C0
ENDCHAR
STARTCHAR 0411
ENCODING 1041
SWIDTH 660 0
DWIDTH 11 0
BBX 10 12 1 0
BITMAP
1FC0
1FC0
3FC0
3800
3800
3F80
3FC0
71C0
71C0
6380
7F80
FE00
ENDCHAR
STARTCHAR 0412
ENCODING 1042
SWIDTH 660 0
DWIDTH 11 0
BBX 11 12 1 0
BITMAP
0F00
1FC0
39E0
38E0
38C0
3F80
3FC0
71C0
71C0
61C0
7F80
FF00
ENDCHAR
STARTCHAR 0413
ENCODING 1043
SWIDTH 540 0
DWIDTH 9 0
BBX 10 12 1 0
BITMAP
1FC0
1FC0
1FC0
3800
3800
3000
3000
7000
7000
6000
6000
E000
ENDCHAR
STARTCHAR 0414
ENCODING 1044
SWIDTH 840 0
DWIDTH 14 0
BBX 14 15 0 -3
BITMAP
01FC
03FC
03FC
0318
0318
0738
0638
0E30
0E30
1C70
7FFC
7FFC
6018
E018
E038
ENDCHAR
STARTCHAR 0415
ENCODING 1045
SWIDTH 600 0
DWIDTH 10 0
BBX 11 12 1 0
BITMAP
1FE0
1FC0
1FC0
3800
3800
3F80
3F80
7000
7000
6000
7F80
FF00
ENDCHAR
STARTCHAR 0416
ENCODING 1046
SWIDTH 1020 0
DWIDTH 17 0
BBX 18 12 1 0
BITMAP
3861C0
1C6380
0CE700
0EEE00
06DC00
07F800
0FF000
1FF800
3D9C00
399C00
738E00
E38E00
ENDCHAR
STARTCHAR 0417
ENCODING 1047
SWIDTH 600 0
DWIDTH 10 0
BBX 10 12 1 0
BITMAP
0F00
1F80
1BC0
01C0
0380
1F00
1F00
0380
0380
0380
FF00
FE00
ENDCHAR
STARTCHAR 0418
ENCODING 1048
SWIDTH 720 0
DWIDTH 12 0
BBX 13 12 1 0
BITMAP
1C38
1870
18F0
39F0
3BF0
3360
3660
7CE0
78E0
70C0
70C0
E1C0
ENDCHAR
STARTCHAR 0419
ENCODING 1049
SWIDTH 720 0
DWIDTH 12 0
BBX 13 15 1 0
BITMAP
0360
03E0
0000
1C38
1870
18F0
39F0
3BF0
3360
3660
7CE0
78E0
70C0
70C0
E1C0
ENDCHAR
STARTCHAR 041A
ENCODING 1050
SWIDTH 660 0
DWIDTH 11 0
BBX 12 12 1 0
BITMAP
1C70
18E0
19C0
3B80
3F00
3E00
3E00
7E00
7700
6380
6380
E1C0
ENDCHAR
STARTCHAR 041B
ENCODING 1051
SWIDTH 720 0
DWIDTH 12 0
BBX 12 12 1 0
BITMAP
07F0
07F0
0FF0
0E70
0C60
0C60
1CE0
18E0
38C0
70C0
F1C0
E1C0
ENDCHAR
STARTCHAR 041C
ENCODING 1052
SWIDTH 900 0
DWIDTH 15 0
BBX 14 12 1 0
BITMAP
0C0C
1C1C
1C1C
1E3C
3E7C
367C
36D8
7798
6798
6738
E338
E038
ENDCHAR
STARTCHAR 041D
ENCODING 1053
SWIDTH 720 0
DWIDTH 12 0
BBX 12 12 1 0
BITMAP
1C30
1870
1870
3870
3860
3FE0
3FE0
70E0
70C0
60C0
61C0
E1C0
ENDCHAR
STARTCHAR 041E
ENCODING 1054
SWIDTH 780 0
DWIDTH 13 0
BBX 11 12 2 0
BITMAP
0700
1FC0
3DE0
70E0
6060
E060
E0E0
E0E0
E0C0
E1C0
7F80
3F00
ENDCHAR
STARTCHAR 041F
ENCODING 1055
SWIDTH 720 0
DWIDTH 12 0
BBX 12 12 1 0
BITMAP
1FF0
1FF0
1FF0
3860
3860
30E0
30E0
70C0
70C0
61C0
61C0
E1C0
ENDCHAR
STARTCHAR 0420
ENCODING 1056
SWIDTH 660 0
DWIDTH 11 0
BBX 11 12 1 0
BITMAP
0F00
1FC0
1FE0
38E0
38E0
31C0
3FC0
7F00
7000
6000
6000
E000
ENDCHAR
STARTCHAR 0421
ENCODING 1057
SWIDTH 660 0
DWIDTH 11 0
BBX 10 12 2 0
BITMAP
0780
1FC0
3CC0
7000
6000
E000
E000
E000
E000
F000
7F00
3F00
ENDCHAR
STARTCHAR 0422
ENCODING 1058
SWIDTH 600 0
DWIDTH 10 0
BBX 10 12 2 0
BITMAP
7FC0
7FC0
FFC0
0C00
1C00
1C00
1800
1800
3800
3800
3800
3000
ENDCHAR
STARTCHAR 0423
ENCODING 1059
SWIDTH 600 0
DWIDTH 10 0
BBX 12 12 1 0
BITMAP
3870
3860
38E0
18C0
1DC0
1D80
1F00
0F00
0E00
0C00
7C00
F800
ENDCHAR
STARTCHAR 0424
ENCODING 1060
SWIDTH 840 0
DWIDTH 14 0
BBX 13 12 2 0
BITMAP
0380
0FC0
3FF0
7370
E738
E738
E630
E670
FFE0
7FC0
1E00
0C00
ENDCHAR
STARTCHAR 0425
ENCODING 1061
SWIDTH 660 0
DWIDTH 11 0
BBX 12 12 1 0
BITMAP
3870
18E0
1CC0
0DC0
0F80
0F00
0F00
1F00
3B80
7380
6180
E1C0
ENDCHAR
STARTCHAR 0426
ENCODING 1062
SWIDTH 780 0
DWIDTH 13 0
BBX 12 15 1 -3
BITMAP
1C30
1870
1870
3860
3860
30E0
30E0
70C0
70C0
61C0
7FF0
FFF0
0060
0060
00E0
ENDCHAR
STARTCHAR 0427
ENCODING 1063
SWIDTH 660 0
DWIDTH 11 0
BBX 9 12 3 0
BITMAP
E180
E380
E380
C380
C300
C300
FF00
FF00
0600
0600
0E00
0E00
ENDCHAR
STARTCHAR 0428
ENCODING 1064
SWIDTH 1020 0
DWIDTH 17 0
BBX 17 12 1 0
BITMAP
1C6380
18E380
18E300
38E300
38C700
31C700
31C600
71C600
718E00
638E00
7FFC00
FFFC00
ENDCHAR
STARTCHAR 0429
ENCODING 1065
SWIDTH 1080 0
DWIDTH 18 0
BBX 17 15 1 -3
BITMAP
1C6380
18E380
18E300
38E300
38C700
31C700
31C600
71C600
718E00
638E00
7FFF00
FFFF00
000700
000700
000600
ENDCHAR
STARTCHAR 042A
ENCODING 1066
SWIDTH 720 0
DWIDTH 12 0
BBX 10 12 2 0
BITMAP
7C00
7C00
FC00
1C00
1F00
3FC0
39C0
38C0
30C0
71C0
7F80
7F00
ENDCHAR
STARTCHAR 042B
ENCODING 1067
SWIDTH 900 0
DWIDTH 15 0
BBX 16 12 1 0
BITMAP
1C07
1806
3806
380E
3F0E
3F8C
33CC
71DC
71DC
6398
7F98
FE38
ENDCHAR
STARTCHAR 042C
ENCODING 1068
SWIDTH 660 0
DWIDTH 11 0
BBX 10 12 1 0
BITMAP
1C00
1800
3800
3800
3F00
3F80
33C0
71C0
71C0
6380
7F80
FE00
ENDCHAR
STARTCHAR 042D
ENCODING 1069
SWIDTH 660 0
DWIDTH 11 0
BBX 11 12 1 0
BITMAP
0F00
3F80
1BC0
00C0
00E0
1FC0
1FC0
00C0
01C0
0380
7F00
FE00
ENDCHAR
STARTCHAR 042E
ENCODING 1070
SWIDTH 1080 0
DWIDTH 18 0
BBX 17 12 1 0
BITMAP
1C1E00
187F00
18F780
39C380
39C180
3F8180
3F8180
738380
738380
61C700
61FE00
E0FC00
ENDCHAR
STARTCHAR 042F
ENCODING 1071
SWIDTH 660 0
DWIDTH 11 0
BBX 11 12 1 0
BITMAP
03C0
0FE0
1FE0
38E0
38E0
38C0
1FC0
1FC0
39C0
3180
6180
E380
ENDCHAR
STARTCHAR 0430
ENCODING 1072
SWIDTH 600 0
DWIDTH 10 0
BBX 8 9 2 0
BITMAP
1F
7F
73
E7
C7
C6
C6
FE
7F
ENDCHAR
STARTCHAR 0431
ENCODING 1073
SWIDTH 600 0
DWIDTH 10 0
BBX 9 13 2 0
BITMAP
0380
1F80
3C00
7000
6000
7E00
F700
C300
C300
C700
C600
FE00
7C00
ENDCHAR
STARTCHAR 0432
ENCODING 1074
SWIDTH 540 0
DWIDTH 9 0
BBX 9 9 1 0
BITMAP
0F00
3F80
3380
7300
7E00
6300
6300
FF00
FE00
ENDCHAR
STARTCHAR 0433
ENCODING 1075
SWIDTH 480 0
DWIDTH 8 0
BBX 8 9 1 0
BITMAP
3E
3F
07
0F
3E
78
E0
FE
7E
ENDCHAR
STARTCHAR 0434
ENCODING 1076
SWIDTH 540 0
DWIDTH 9 0
BBX 8 13 2 0
BITMAP
7C
7E
47
03
0B
7F
77
E3
C7
C7
C6
FE
7C
ENDCHAR
STARTCHAR 0435
ENCODING 1077
SWIDTH 540 0
DWIDTH 9 0
BBX 8 9 2 0
BITMAP
1E
7E
67
C7
FE
F8
C0
FC
7C
ENDCHAR
STARTCHAR 0436
ENCODING 1078
SWIDTH 960 0
DWIDTH 16 0
BBX 17 9 0 0
BITMAP
38E780
3CEF80
0CCC00
0CDC00
0FF800
0FF800
1D9800
799E00
F18E00
ENDCHAR
STARTCHAR 0437
ENCODING 1079
SWIDTH 480 0
DWIDTH 8 0
BBX 7 9 1 0
BITMAP
3C
3E
06
0E
3C
0E
0E
FE
FC
ENDCHAR
STARTCHAR 0438
ENCODING 1080
SWIDTH 600 0
DWIDTH 10 0
BBX 8 9 2 0
BITMAP
63
63
E7
E7
C6
C6
C6
FE
FE
ENDCHAR
STARTCHAR 0439
ENCODING 1081
SWIDTH 600 0
DWIDTH 10 0
BBX 8 13 2 0
BITMAP
12
3F
1E
00
63
63
E7
E7
C6
C6
C6
FE
FE
ENDCHAR
STARTCHAR 043A
ENCODING 1082
SWIDTH 600 0
DWIDTH 10 0
BBX 10 9 1 0
BITMAP
39C0
3380
3700
7E00
7C00
6E00
6E00
6700
E700
ENDCHAR
STARTCHAR 043B
ENCODING 1083
SWIDTH 600 0
DWIDTH 10 0
BBX 10 9 1 0
BITMAP
1FC0
1FC0
19C0
1980
1980
3380
7380
E300
C300
ENDCHAR
STARTCHAR 043C
ENCODING 1084
SWIDTH 720 0
DWIDTH 12 0
BBX 11 9 1 0
BITMAP
1860
38E0
38E0
39E0
6F60
6FE0
6EE0
ECC0
C0C0
ENDCHAR
STARTCHAR 043D
ENCODING 1085
SWIDTH 600 0
DWIDTH 10 0
BBX 10 9 1 0
BITMAP
39C0
31C0
3180
7F80
7F80
7F80
6300
6300
E700
ENDCHAR
STARTCHAR 043E
ENCODING 1086
SWIDTH 600 0
DWIDTH 10 0
BBX 8 9 2 0
BITMAP
1E
7F
E7
E3
C3
C7
C6
FE
7C
ENDCHAR
STARTCHAR 043F
ENCODING 1087
SWIDTH 540 0
DWIDTH 9 0
BBX 9 9 1 0
BITMAP
1F00
3F80
3380
7380
7380
6300
6300
6700
E700
ENDCHAR
STARTCHAR 0440
ENCODING 1088
SWIDTH 600 0
DWIDTH 10 0
BBX 9 12 1 -3
BITMAP
3F00
3F80
3380
7180
7180
6380
6300
7F00
FC00
E000
C000
C000
ENDCHAR
STARTCHAR 0441
ENCODING 1089
SWIDTH 480 0
DWIDTH 8 0
BBX 7 9 2 0
BITMAP
1E
7E
E0
E0
C0
C0
E0
FC
7C
ENDCHAR
STARTCHAR 0442
ENCODING 1090
SWIDTH 840 0
DWIDTH 14 0
BBX 13 9 1 0
BITMAP
1E70
3FF8
3398
7398
7398
6318
6338
6738
E730
ENDCHAR
STARTCHAR 0443
ENCODING 1091
SWIDTH 540 0
DWIDTH 9 0
BBX 10 12 0 -3
BITMAP
38C0
39C0
39C0
1980
1B80
1B00
1F00
1E00
0C00
1C00
F800
F000
ENDCHAR
STARTCHAR 0444
ENCODING 1092
SWIDTH 780 0
DWIDTH 13 0
BBX 11 16 2 -3
BITMAP
0380
0300
0300
0300
1F80
7FC0
76E0
E660
CE60
CCE0
ECE0
FFC0
7F00
1800
1800
1800
ENDCHAR
STARTCHAR 0445
ENCODING 1093
SWIDTH 540 0
DWIDTH 9 0
BBX 9 9 1 0
BITMAP
7180
3380
3F00
1E00
1C00
3E00
3E00
6600
C700
ENDCHAR
STARTCHAR 0446
ENCODING 1094
SWIDTH 600 0
DWIDTH 10 0
BBX 8 12 2 -3
BITMAP
63
63
E7
E7
C6
C6
C6
FE
FF
07
06
06
ENDCHAR
STARTCHAR 0447
ENCODING 1095
SWIDTH 540 0
DWIDTH 9 0
BBX 8 9 2 0
BITMAP
63
E7
E7
C6
FE
7E
0E
0C
0C
ENDCHAR
STARTCHAR 0448
ENCODING 1096
SWIDTH 840 0
DWIDTH 14 0
BBX 13 9 2 0
BITMAP
6338
6738
E730
E630
C630
C670
CE70
FFF0
FFB0
ENDCHAR
STARTCHAR 0449
ENCODING 1097
SWIDTH 900 0
DWIDTH 15 0
BBX 13 12 2 -3
BITMAP
6338
6738
E730
E630
C630
C670
CE70
FFF0
FFB8
0030
0030
0030
ENDCHAR
STARTCHAR 044A
ENCODING 1098
SWIDTH 600 0
DWIDTH 10 0
BBX 8 9 2 0
BITMAP
F8
F0
30
7E
7F
63
63
FF
FE
ENDCHAR
STARTCHAR 044B
ENCODING 1099
SWIDTH 840 0
DWIDTH 14 0
BBX 14 9 1 0
BITMAP
381C
3018
3018
7E38
7F38
6330
6330
FF70
FE70
ENDCHAR
STARTCHAR 044C
ENCODING 1100
SWIDTH 540 0
DWIDTH 9 0
BBX 8 9 1 0
BITMAP
38
30
30
7E
7F
63
63
FF
FE
ENDCHAR
STARTCHAR 044D
ENCODING 1101
SWIDTH 480 0
DWIDTH 8 0
BBX 8 9 1 0
BITMAP
3C
3E
07
07
3F
07
06
FE
F8
ENDCHAR
STARTCHAR 044E
ENCODING 1102
SWIDTH 840 0
DWIDTH 14 0
BBX 14 9 1 0
BITMAP
38F0
31F8
339C
7F1C
7F1C
7F1C
6738
63F8
E1E0
ENDCHAR
STARTCHAR 044F
ENCODING 1103
SWIDTH 540 0
DWIDTH 9 0
BBX 9 9 1 0
BITMAP
1F80
3F80
7380
7380
7F00
3F00
7700
E700
C600
ENDCHAR
STARTCHAR 0450
ENCODING 1104
SWIDTH 540 0
DWIDTH 9 0
BBX 8 13 2 0
BITMAP
18
1C
06
00
1E
7E
67
C7
FE
F8
C0
FC
7C
ENDCHAR
STARTCHAR 0451
ENCODING 1105
SWIDTH 540 0
DWIDTH 9 0
BBX 9 13 2 0
BITMAP
1100
3B80
1B00
0000
1E00
7E00
6700
C700
FE00
F800
C000
FC00
7C00
ENDCHAR
STARTCHAR 0452
ENCODING 1106
SWIDTH 540 0
DWIDTH 9 0
BBX 9 16 1 -3
BITMAP
1C00
1800
3F00
3800
3E00
3F00
3380
7380
7380
6300
6300
6700
E700
0600
1E00
1C00
ENDCHAR
STARTCHAR 0453
ENCODING 1107
SWIDTH 480 0
DWIDTH 8 0
BBX 8 13 1 0
BITMAP
03
07
0C
00
3E
3F
07
0F
3E
78
E0
FE
7E
ENDCHAR
STARTCHAR 0454
ENCODING 1108
SWIDTH 480 0
DWIDTH 8 0
BBX 7 9 2 0
BITMAP
1E
7E
E0
C0
F8
C0
C0
FC
7C
ENDCHAR
STARTCHAR 0455
ENCODING 1109
SWIDTH 480 0
DWIDTH 8 0
BBX 8 9 1 0
BITMAP
1F
3E
70
70
3C
0E
0E
FE
FC
ENDCHAR
STARTCHAR 0456
ENCODING 1110
SWIDTH 300 0
DWIDTH 5 0
BBX 6 13 1 0
BITMAP
18
1C
18
00
38
30
30
70
70
60
60
60
E0
ENDCHAR
STARTCHAR 0457
ENCODING 1111
SWIDTH 300 0
DWIDTH 5 0
BBX 7 13 1 0
BITMAP
20
66
66
00
38
30
30
70
70
60
60
60
E0
ENDCHAR
STARTCHAR 0458
ENCODING 1112
SWIDTH 300 0
DWIDTH 5 0
BBX 8 16 -1 -3
BITMAP
06
07
06
00
0E
0E
0C
0C
1C
1C
18
18
38
38
F0
E0
ENDCHAR
STARTCHAR 0459
ENCODING 1113
SWIDTH 840 0
DWIDTH 14 0
BBX 14 9 1 0
BITMAP
1FC0
1FC0
1980
19F0
3BF8
339C
7318
E3F8
C7F0
ENDCHAR
STARTCHAR 045A
ENCODING 1114
SWIDTH 840 0
DWIDTH 14 0
BBX 13 9 1 0
BITMAP
39C0
3180
3180
7FF0
7FF8
7F18
6318
63F8
E7F0
ENDCHAR
STARTCHAR 045B
ENCODING 1115
SWIDTH 540 0
DWIDTH 9 0
BBX 9 13 1 0
BITMAP
1C00
1800
3F00
3800
3E00
3F00
3380
7380
7380
6300
6300
6700
E700
ENDCHAR
STARTCHAR 045C
ENCODING 1116
SWIDTH 600 0
DWIDTH 10 0
BBX 10 13 1 0
BITMAP
0100
0380
0600
0000
39C0
3380
3700
7E00
7C00
6E00
6E00
6700
E700
ENDCHAR
STARTCHAR 045D
ENCODING 1117
SWIDTH 600 0
DWIDTH 10 0
BBX 8 13 2 0
BITMAP
10
18
0C
00
63
63
E7
E7
C6
C6
C6
FE
FE
ENDCHAR
STARTCHAR 045E
ENCODING 1118
SWIDTH 540 0
DWIDTH 9 0
BBX 10 16 0 -3
BITMAP
0480
0F80
0700
0000
38C0
39C0
39C0
1980
1B80
1B00
1F00
1E00
0C00
1C00
F800
F000
ENDCHAR
STARTCHAR 045F
ENCODING 1119
SWIDTH 600 0
DWIDTH 10 0
BBX 8 12 2 -3
BITMAP
63
63
E7
E7
C6
C6
C6
FE
FE
00
60
60
ENDCHAR
STARTCHAR 0462
ENCODING 1122
SWIDTH 720 0
DWIDTH 12 0
BBX 10 12 2 0
BITMAP
0C00
7F80
FF80
1800
1F00
3FC0
39C0
30C0
30C0
71C0
7F80
7F00
ENDCHAR
STARTCHAR 0463
ENCODING 1123
SWIDTH 840 0
DWIDTH 14 0
BBX 13 9 1 0
BITMAP
1F00
3F80
3380
73F0
73F8
6318
6318
67F8
E7F0
ENDCHAR
STARTCHAR 0472
ENCODING 1138
SWIDTH 780 0
DWIDTH 13 0
BBX 11 12 2 0
BITMAP
0700
1FC0
3DE0
70E0
6060
FE60
FFE0
E3E0
E0C0
E1C0
7F80
3F00
ENDCHAR
STARTCHAR 0473
ENCODING 1139
SWIDTH 600 0
DWIDTH 10 0
BBX 8 9 2 0
BITMAP
1E
7F
E7
E3
FF
CF
C6
FE
7C
ENDCHAR
STARTCHAR 0474
ENCODING 1140
SWIDTH 780 0
DWIDTH 13 0
BBX 12 12 3 0
BITMAP
C060
E0F0
E1E0
E380
E300
E700
E600
6E00
6C00
7800
7800
7000
ENDCHAR
STARTCHAR 0475
ENCODING 1141
SWIDTH 600 0
DWIDTH 10 0
BBX 9 9 2 0
BITMAP
C180
C380
C600
EE00
EC00
F800
7800
7000
6000
ENDCHAR
STARTCHAR 048A
ENCODING 1162
SWIDTH 780 0
DWIDTH 13 0
BBX 13 18 1 -3
BITMAP
0360
03C0
0000
1C38
1870
18F0
39F0
3BF0
3360
3660
7CE0
78E0
70C0
70F0
E1F0
0060
00E0
00C0
ENDCHAR
STARTCHAR 048B
ENCODING 1163
SWIDTH 600 0
DWIDTH 10 0
BBX 8 16 2 -3
BITMAP
12
1F
1E
00
63
63
E7
E7
C6
C6
C6
FF
FF
07
0E
04
ENDCHAR
STARTCHAR 048C
ENCODING 1164
SWIDTH 660 0
DWIDTH 11 0
BBX 10 12 1 0
BITMAP
1C00
1800
7E00
3800
3800
3F80
3FC0
71C0
71C0
73C0
7F80
FE00
ENDCHAR
STARTCHAR 048D
ENCODING 1165
SWIDTH 540 0
DWIDTH 9 0
BBX 8 9 1 0
BITMAP
38
7E
30
7C
7F
63
63
7F
FE
ENDCHAR
STARTCHAR 048E
ENCODING 1166
SWIDTH 660 0
DWIDTH 11 0
BBX 11 12 1 0
BITMAP
0F00
1FC0
1FE0
38E0
3EE0
33E0
3FC0
7F00
7180
6100
6000
E000
ENDCHAR
STARTCHAR 048F
ENCODING 1167
SWIDTH 600 0
DWIDTH 10 0
BBX 9 12 1 -3
BITMAP
3F00
3F80
3380
7180
7180
6D80
6F80
7F00
FE00
E600
C200
C000
ENDCHAR
STARTCHAR 0490
ENCODING 1168
SWIDTH 600 0
DWIDTH 10 0
BBX 11 14 1 0
BITMAP
0060
00E0
1FE0
1FC0
1FC0
3800
3800
3000
3000
7000
7000
6000
6000
E000
ENDCHAR
STARTCHAR 0491
ENCODING 1169
SWIDTH 480 0
DWIDTH 8 0
BBX 9 11 1 0
BITMAP
0380
0300
3F00
3F00
3000
7000
7000
6000
6000
6000
E000
ENDCHAR
STARTCHAR 0492
ENCODING 1170
SWIDTH 600 0
DWIDTH 10 0
BBX 10 12 2 0
BITMAP
3FC0
3FC0
3F80
3000
7000
FC00
FC00
6000
E000
E000
E000
C000
ENDCHAR
STARTCHAR 0493
ENCODING 1171
SWIDTH 480 0
DWIDTH 8 0
BBX 8 9 1 0
BITMAP
3E
3F
07
2F
3E
7E
E0
FE
7E
ENDCHAR
STARTCHAR 0494
ENCODING 1172
SWIDTH 660 0
DWIDTH 11 0
BBX 10 15 1 -3
BITMAP
1FC0
1FC0
1FC0
3800
3800
3F80
3F80
71C0
71C0
61C0
61C0
E180
0380
1F00
1E00
ENDCHAR
STARTCHAR 0495
ENCODING 1173
SWIDTH 540 0
DWIDTH 9 0
BBX 8 12 1 -3
BITMAP
3F
3F
30
70
7E
77
63
63
E3
07
1E
3C
ENDCHAR
STARTCHAR 0496
ENCODING 1174
SWIDTH 1020 0
DWIDTH 17 0
BBX 18 15 1 -3
BITMAP
3861C0
1C6380
0CE700
0EEE00
06DC00
07F800
0FF000
1FF800
3D9C00
399C00
738F00
E38F00
000700
000600
000600
ENDCHAR
STARTCHAR 0497
ENCODING 1175
SWIDTH 960 0
DWIDTH 16 0
BBX 17 11 0 -2
BITMAP
38E780
3CEF80
0CCC00
0CDC00
0FF800
0FF800
1D9800
799F00
F18F00
000600
000600
ENDCHAR
STARTCHAR 0498
ENCODING 1176
SWIDTH 600 0
DWIDTH 10 0
BBX 10 16 1 -4
BITMAP
0F00
1F80
1BC0
01C0
0380
1F00
1F00
0380
0380
0380
FF00
FE00
1000
1800
7800
7000
ENDCHAR
STARTCHAR 0499
ENCODING 1177
SWIDTH 480 0
DWIDTH 8 0
BBX 7 13 1 -4
BITMAP
3C
3E
06
0E
3C
0E
0E
FC
FC
30
30
F0
60
ENDCHAR
STARTCHAR 049A
ENCODING 1178
SWIDTH 720 0
DWIDTH 12 0
BBX 12 15 1 -3
BITMAP
1C70
18E0
19C0
3B80
3F00
3E00
3E00
7E00
7700
6380
63E0
E1E0
00C0
00C0
01C0
ENDCHAR
STARTCHAR 049B
ENCODING 1179
SWIDTH 600 0
DWIDTH 10 0
BBX 10 11 1 -2
BITMAP
39C0
3380
3700
7E00
7C00
6E00
6E00
6780
E780
0300
0300
ENDCHAR
STARTCHAR 049C
ENCODING 1180
SWIDTH 780 0
DWIDTH 13 0
BBX 14 12 1 0
BITMAP
1C1C
1838
1870
3AE0
3FC0
3F80
3F80
75C0
7DC0
60E0
60E0
E060
ENDCHAR
STARTCHAR 049D
ENCODING 1181
SWIDTH 660 0
DWIDTH 11 0
BBX 12 9 1 0
BITMAP
3870
30E0
35C0
7780
7F00
6B00
6B80
6180
E1C0
ENDCHAR
STARTCHAR 049E
ENCODING 1182
SWIDTH 720 0
DWIDTH 12 0
BBX 12 12 2 0
BITMAP
3870
7CE0
FDC0
7380
7F00
7E00
7800
FC00
EE00
E700
C380
C380
ENDCHAR
STARTCHAR 049F
ENCODING 1183
SWIDTH 600 0
DWIDTH 10 0
BBX 10 10 1 0
BITMAP
3800
7DC0
3380
3700
7E00
7C00
6E00
6E00
6700
E380
ENDCHAR
STARTCHAR 04A0
ENCODING 1184
SWIDTH 780 0
DWIDTH 13 0
BBX 13 12 2 0
BITMAP
7C38
7C70
FCE0
1BC0
1F00
3E00
3E00
3700
3380
7380
71C0
61C0
ENDCHAR
STARTCHAR 04A1
ENCODING 1185
SWIDTH 600 0
DWIDTH 10 0
BBX 10 9 2 0
BITMAP
F9C0
F380
3700
7E00
7C00
6E00
6E00
E700
E700
ENDCHAR
STARTCHAR 04A2
ENCODING 1186
SWIDTH 780 0
DWIDTH 13 0
BBX 12 15 1 -3
BITMAP
1C30
1870
1870
3870
3860
3FE0
3FE0
70E0
70C0
60C0
61F0
E1F0
0060
0060
00E0
ENDCHAR
STARTCHAR 04A3
ENCODING 1187
SWIDTH 660 0
DWIDTH 11 0
BBX 10 11 1 -2
BITMAP
39C0
31C0
3180
7F80
7F80
7F80
6300
63C0
E780
0180
0180
ENDCHAR
STARTCHAR 04A4
ENCODING 1188
SWIDTH 840 0
DWIDTH 14 0
BBX 15 12 1 0
BITMAP
1C3E
187E
187E
3870
3860
3FE0
3FE0
70E0
70C0
60C0
61C0
E1C0
ENDCHAR
STARTCHAR 04A5
ENCODING 1189
SWIDTH 660 0
DWIDTH 11 0
BBX 12 9 1 0
BITMAP
39F0
31F0
3180
7F80
7F80
7F80
6300
6300
E700
ENDCHAR
STARTCHAR 04A6
ENCODING 1190
SWIDTH 1080 0
DWIDTH 18 0
BBX 17 15 1 -3
BITMAP
1FF000
1FF000
1FF000
386000
386000
30FF00
30FF80
70C380
70C380
61C380
61C380
E1C300
000700
003E00
003C00
ENDCHAR
STARTCHAR 04A7
ENCODING 1191
SWIDTH 840 0
DWIDTH 14 0
BBX 13 12 1 -3
BITMAP
1F00
3F80
3380
7380
73F0
63B8
6318
6718
E718
0038
00F0
01E0
ENDCHAR
STARTCHAR 04A8
ENCODING 1192
SWIDTH 780 0
DWIDTH 13 0
BBX 12 15 2 -3
BITMAP
0780
1FC0
3C80
7000
E3E0
E7E0
EE70
EE70
EC60
ECE0
7FC0
3F00
0E00
0780
0380
ENDCHAR
STARTCHAR 04A9
ENCODING 1193
SWIDTH 600 0
DWIDTH 10 0
BBX 9 11 2 -3
BITMAP
1E00
7C00
E000
CF00
CF80
D980
DB00
FF00
7E00
1C00
0E00
ENDCHAR
STARTCHAR 04AA
ENCODING 1194
SWIDTH 660 0
DWIDTH 11 0
BBX 10 16 2 -4
BITMAP
0780
1FC0
3CC0
7000
6000
E000
E000
E000
E000
F000
7F00
3F00
1800
1800
3800
3000
ENDCHAR
STARTCHAR 04AB
ENCODING 1195
SWIDTH 480 0
DWIDTH 8 0
BBX 7 13 2 -4
BITMAP
1E
7E
E0
E0
C0
C0
E0
FC
7C
30
30
F0
60
ENDCHAR
STARTCHAR 04AC
ENCODING 1196
SWIDTH 600 0
DWIDTH 10 0
BBX 10 15 2 -3
BITMAP
7FC0
7FC0
FFC0
0C00
1C00
1C00
1800
1800
3800
3800
3E00
3C00
0C00
1C00
1C00
ENDCHAR
STARTCHAR 04AD
ENCODING 1197
SWIDTH 900 0
DWIDTH 15 0
BBX 14 11 1 -2
BITMAP
1E70
3FF8
3398
7398
7398
6318
6338
673C
E73C
000C
0018
ENDCHAR
STARTCHAR 04AE
ENCODING 1198
SWIDTH 660 0
DWIDTH 11 0
BBX 10 12 3 0
BITMAP
E1C0
E180
E380
6700
7E00
7C00
3C00
3800
3800
3000
7000
7000
ENDCHAR
STARTCHAR 04AF
ENCODING 1199
SWIDTH 540 0
DWIDTH 9 0
BBX 8 12 2 -3
BITMAP
E3
E7
E7
E6
6E
6C
78
78
70
70
60
60
ENDCHAR
STARTCHAR 04B0
ENCODING 1200
SWIDTH 660 0
DWIDTH 11 0
BBX 10 12 3 0
BITMAP
C1C0
E380
E380
6700
6E00
7C00
3800
FE00
FC00
7000
7000
7000
ENDCHAR
STARTCHAR 04B1
ENCODING 1201
SWIDTH 540 0
DWIDTH 9 0
BBX 9 12 1 -3
BITMAP
7180
7380
7380
7300
3700
3600
3C00
7E00
FE00
3800
3000
3000
ENDCHAR
STARTCHAR 04B2
ENCODING 1202
SWIDTH 720 0
DWIDTH 12 0
BBX 12 15 1 -3
BITMAP
3870
18E0
1CC0
0DC0
0F80
0F00
0F00
1F00
3B80
7380
61E0
E1E0
00C0
00C0
01C0
ENDCHAR
STARTCHAR 04B3
ENCODING 1203
SWIDTH 600 0
DWIDTH 10 0
BBX 9 11 1 -2
BITMAP
7180
3300
3F00
1E00
1C00
3C00
7E00
E780
C780
0300
0300
ENDCHAR
STARTCHAR 04B4
ENCODING 1204
SWIDTH 900 0
DWIDTH 15 0
BBX 13 15 2 -3
BITMAP
7FB8
7FB8
FF38
1830
1870
3870
3870
3860
3060
70E0
7FF8
7FF0
0030
0070
0070
ENDCHAR
STARTCHAR 04B5
ENCODING 1205
SWIDTH 660 0
DWIDTH 11 0
BBX 10 12 2 -3
BITMAP
FDC0
FDC0
3180
7180
7380
6380
6380
7F80
3D80
0180
0180
0180
ENDCHAR
STARTCHAR 04B6
ENCODING 1206
SWIDTH 720 0
DWIDTH 12 0
BBX 9 15 3 -3
BITMAP
E180
E380
E380
C380
C300
C300
FF00
FF00
0600
0600
0F80
0F80
0300
0300
0700
ENDCHAR
STARTCHAR 04B7
ENCODING 1207
SWIDTH 600 0
DWIDTH 10 0
BBX 8 11 2 -2
BITMAP
63
E7
E7
C6
FE
7E
0E
0F
0F
06
06
ENDCHAR
STARTCHAR 04B8
ENCODING 1208
SWIDTH 660 0
DWIDTH 11 0
BBX 9 12 3 0
BITMAP
E180
E180
E380
C380
DB80
DB00
FF00
FF00
3700
3600
0E00
0E00
ENDCHAR
STARTCHAR 04B9
ENCODING 1209
SWIDTH 540 0
DWIDTH 9 0
BBX 8 9 2 0
BITMAP
63
E7
E7
D6
FE
7E
3E
2C
0C
ENDCHAR
STARTCHAR 04BA
ENCODING 1210
SWIDTH 660 0
DWIDTH 11 0
BBX 10 12 1 0
BITMAP
1C00
1800
1800
3800
3F80
3FC0
31C0
71C0
71C0
61C0
6180
E380
ENDCHAR
STARTCHAR 04BB
ENCODING 1211
SWIDTH 540 0
DWIDTH 9 0
BBX 9 13 1 0
BITMAP
1C00
1800
1800
3800
3F00
3F80
3380
7380
7380
6300
6300
6700
E700
ENDCHAR
STARTCHAR 04BC
ENCODING 1212
SWIDTH 900 0
DWIDTH 15 0
BBX 14 12 2 0
BITMAP
01E0
07F8
0F38
CE1C
DC1C
FFF8
7FF8
1800
1C00
1C00
0FE0
07E0
ENDCHAR
STARTCHAR 04BD
ENCODING 1213
SWIDTH 660 0
DWIDTH 11 0
BBX 10 9 2 0
BITMAP
0780
1FC0
98C0
B9C0
FF80
7E00
3000
3F00
1F00
ENDCHAR
STARTCHAR 04BE
ENCODING 1214
SWIDTH 900 0
DWIDTH 15 0
BBX 14 15 2 -3
BITMAP
01E0
07F8
0F38
CE1C
DC1C
FFF8
7FF8
1800
1C00
1C00
0FE0
07E0
0700
0700
0600
ENDCHAR
STARTCHAR 04BF
ENCODING 1215
SWIDTH 660 0
DWIDTH 11 0
BBX 10 12 2 -3
BITMAP
0780
1FC0
98C0
B9C0
FF80
7E00
3000
3F00
1F00
0C00
0C00
1C00
ENDCHAR
STARTCHAR 04C0
ENCODING 1216
SWIDTH 300 0
DWIDTH 5 0
BBX 6 12 1 0
BITMAP
1C
18
18
38
38
30
30
70
70
60
60
E0
ENDCHAR
STARTCHAR 04C1
ENCODING 1217
SWIDTH 1020 0
DWIDTH 17 0
BBX 18 15 1 0
BITMAP
00D800
00F800
000000
3861C0
1C6380
0CE700
0EEE00
06DC00
07F800
0FF000
1FF800
3D9C00
399C00
738E00
E38E00
ENDCHAR
STARTCHAR 04C2
ENCODING 1218
SWIDTH 960 0
DWIDTH 16 0
BBX 17 13 0 0
BITMAP
009000
00F800
00F000
000000
38E780
3CEF80
0CCC00
0CDC00
0FF800
0FF800
1D9800
799E00
F18E00
ENDCHAR
STARTCHAR 04C3
ENCODING 1219
SWIDTH 660 0
DWIDTH 11 0
BBX 12 15 1 -3
BITMAP
1C70
18E0
19C0
3B80
3F00
3F00
3F80
71C0
71C0
61C0
61C0
E180
0380
1F00
1E00
ENDCHAR
STARTCHAR 04C4
ENCODING 1220
SWIDTH 600 0
DWIDTH 10 0
BBX 10 12 1 -3
BITMAP
39C0
3380
3700
7E00
7E00
6700
6300
6300
E300
0700
1E00
1C00
ENDCHAR
STARTCHAR 04C5
ENCODING 1221
SWIDTH 780 0
DWIDTH 13 0
BBX 12 15 1 -3
BITMAP
07F0
07F0
0FF0
0E70
0C60
0C60
1CE0
18E0
38C0
70C0
F1E0
E1E0
00E0
01C0
0080
ENDCHAR
STARTCHAR 04C6
ENCODING 1222
SWIDTH 660 0
DWIDTH 11 0
BBX 10 12 1 -3
BITMAP
1FC0
1FC0
19C0
1980
1980
3380
7380
E3C0
C380
0180
0300
0200
ENDCHAR
STARTCHAR 04C7
ENCODING 1223
SWIDTH 720 0
DWIDTH 12 0
BBX 12 15 1 -3
BITMAP
1C30
1870
1870
3870
3860
3FE0
3FE0
70E0
70C0
60C0
61C0
E1C0
0180
0780
0F00
ENDCHAR
STARTCHAR 04C8
ENCODING 1224
SWIDTH 600 0
DWIDTH 10 0
BBX 10 12 1 -3
BITMAP
39C0
3180
3180
7F80
7F80
7F80
6300
6300
E700
0700
1E00
1C00
ENDCHAR
STARTCHAR 04C9
ENCODING 1225
SWIDTH 780 0
DWIDTH 13 0
BBX 12 15 1 -3
BITMAP
1C30
1870
1870
3870
3860
3FE0
3FE0
70E0
70C0
60C0
61E0
E1E0
00E0
01C0
0180
ENDCHAR
STARTCHAR 04CA
ENCODING 1226
SWIDTH 600 0
DWIDTH 10 0
BBX 10 12 1 -3
BITMAP
39C0
31C0
3180
7F80
7F80
7F80
6300
6380
E780
0380
0700
0200
ENDCHAR
STARTCHAR 04CB
ENCODING 1227
SWIDTH 660 0
DWIDTH 11 0
BBX 9 15 3 -3
BITMAP
E180
E380
E380
C380
C300
C300
FF00
FF00
0600
0600
3E00
3E00
3000
3000
7000
ENDCHAR
STARTCHAR 04CC
ENCODING 1228
SWIDTH 540 0
DWIDTH 9 0
BBX 8 11 2 -2
BITMAP
67
E7
E6
E6
FE
7E
0C
3C
3C
30
70
ENDCHAR
STARTCHAR 04CD
ENCODING 1229
SWIDTH 900 0
DWIDTH 15 0
BBX 14 15 1 -3
BITMAP
0C0C
1C1C
1C1C
1E3C
3E7C
367C
36D8
7798
6798
6738
E33C
E03C
001C
0038
0030
ENDCHAR
STARTCHAR 04CE
ENCODING 1230
SWIDTH 780 0
DWIDTH 13 0
BBX 12 11 1 -3
BITMAP
1860
38E0
38E0
39E0
6F60
6FE0
6EE0
ECF0
C0E0
0060
00C0
ENDCHAR
STARTCHAR 04CF
ENCODING 1231
SWIDTH 300 0
DWIDTH 5 0
BBX 5 12 1 0
BITMAP
18
18
38
38
30
30
70
70
60
60
60
E0
ENDCHAR
STARTCHAR 04D0
ENCODING 1232
SWIDTH 720 0
DWIDTH 12 0
BBX 11 15 1 0
BITMAP
0660
03C0
0000
0380
0380
0780
0F80
0DC0
1DC0
19C0
3FC0
7FC0
60C0
E0C0
C0C0
ENDCHAR
STARTCHAR 04D1
ENCODING 1233
SWIDTH 600 0
DWIDTH 10 0
BBX 9 13 2 0
BITMAP
0900
1F80
0F00
0000
1F00
7F00
7300
E700
C700
C600
C600
FE00
7F00
ENDCHAR
STARTCHAR 04D2
ENCODING 1234
SWIDTH 720 0
DWIDTH 12 0
BBX 11 15 1 0
BITMAP
0760
0660
0000
0380
0380
0780
0F80
0DC0
1DC0
19C0
3FC0
7FC0
60C0
E0C0
C0C0
ENDCHAR
STARTCHAR 04D3
ENCODING 1235
SWIDTH 600 0
DWIDTH 10 0
BBX 8 13 2 0
BITMAP
11
3B
33
00
1F
7F
73
E7
C7
C6
C6
FE
7F
ENDCHAR
STARTCHAR 04D4
ENCODING 1236
SWIDTH 960 0
DWIDTH 16 0
BBX 18 12 0 0
BITMAP
003FC0
007FC0
00FF80
01B000
03B000
077F00
0E7F00
0FE000
1FE000
38E000
70FF00
E0FF00
ENDCHAR
STARTCHAR 04D5
ENCODING 1237
SWIDTH 840 0
DWIDTH 14 0
BBX 13 9 2 0
BITMAP
7CF0
7FF8
0718
1F38
7FF0
C7C0
CE00
FFE0
FBE0
ENDCHAR
STARTCHAR 04D6
ENCODING 1238
SWIDTH 600 0
DWIDTH 10 0
BBX 11 15 1 0
BITMAP
04C0
07C0
0000
1FE0
1FC0
1FC0
3800
3800
3F80
3F80
7000
7000
6000
7F80
FF00
ENDCHAR
STARTCHAR 04D7
ENCODING 1239
SWIDTH 540 0
DWIDTH 9 0
BBX 8 13 2 0
BITMAP
12
3F
1E
00
1E
7E
67
C7
FE
F8
C0
FC
7C
ENDCHAR
STARTCHAR 04D8
ENCODING 1240
SWIDTH 720 0
DWIDTH 12 0
BBX 11 12 2 0
BITMAP
0F00
3FC0
3BC0
00E0
00E0
FFE0
FFE0
FFC0
C1C0
E380
FF80
7E00
ENDCHAR
STARTCHAR 04D9
ENCODING 1241
SWIDTH 540 0
DWIDTH 9 0
BBX 8 9 1 0
BITMAP
3E
3F
03
07
3F
73
E7
7E
7C
ENDCHAR
STARTCHAR 04DA
ENCODING 1242
SWIDTH 720 0
DWIDTH 12 0
BBX 11 15 2 0
BITMAP
0DC0
0DC0
0000
0F00
3FC0
3BC0
00E0
00E0
FFE0
FFE0
FFC0
C1C0
E380
7F80
7E00
ENDCHAR
STARTCHAR 04DB
ENCODING 1243
SWIDTH 540 0
DWIDTH 9 0
BBX 9 13 1 0
BITMAP
0100
1B80
1900
0000
3E00
3F00
0300
0F00
7F00
6300
E700
7E00
7C00
ENDCHAR
STARTCHAR 04DC
ENCODING 1244
SWIDTH 1020 0
DWIDTH 17 0
BBX 18 15 1 0
BITMAP
00DC00
01D800
000000
3861C0
1C6380
0CE700
0EEE00
06DC00
07F800
0FF000
1FF800
3D9C00
399C00
738E00
E38E00
ENDCHAR
STARTCHAR 04DD
ENCODING 1245
SWIDTH 960 0
DWIDTH 16 0
BBX 17 13 0 0
BITMAP
008000
01D800
019800
000000
38E780
3CEF80
0CCC00
0CDC00
0FF800
0FF800
1D9800
799E00
F18E00
ENDCHAR
STARTCHAR 04DE
ENCODING 1246
SWIDTH 600 0
DWIDTH 10 0
BBX 10 15 1 0
BITMAP
0CC0
0CC0
0000
0F00
1F80
1BC0
01C0
0380
1F00
1F00
0380
0380
0380
FF00
FE00
ENDCHAR
STARTCHAR 04DF
ENCODING 1247
SWIDTH 480 0
DWIDTH 8 0
BBX 8 13 1 0
BITMAP
10
33
33
00
3C
3E
06
0E
3C
0E
0E
FE
FC
ENDCHAR
STARTCHAR 04E0
ENCODING 1248
SWIDTH 600 0
DWIDTH 10 0
BBX 11 12 1 0
BITMAP
1FE0
3FC0
3FC0
0380
0600
1E00
1F80
0380
0380
0380
FF00
FE00
ENDCHAR
STARTCHAR 04E1
ENCODING 1249
SWIDTH 480 0
DWIDTH 8 0
BBX 10 12 0 -3
BITMAP
1FC0
3F80
0380
0700
0E00
1E00
1F00
0300
0700
0700
FE00
FC00
ENDCHAR
STARTCHAR 04E2
ENCODING 1250
SWIDTH 720 0
DWIDTH 12 0
BBX 13 15 1 0
BITMAP
03E0
07E0
0000
1C38
1870
18F0
39F0
3BF0
3360
3660
7CE0
78E0
70C0
70C0
E1C0
ENDCHAR
STARTCHAR 04E3
ENCODING 1251
SWIDTH 600 0
DWIDTH 10 0
BBX 8 12 2 0
BITMAP
1F
3F
00
63
63
E7
E7
C6
C6
C6
FE
FE
ENDCHAR
STARTCHAR 04E4
ENCODING 1252
SWIDTH 720 0
DWIDTH 12 0
BBX 13 15 1 0
BITMAP
0360
0760
0000
1C38
1870
18F0
39F0
3BF0
3360
3660
7CE0
78E0
70C0
70C0
E1C0
ENDCHAR
STARTCHAR 04E5
ENCODING 1253
SWIDTH 600 0
DWIDTH 10 0
BBX 8 13 2 0
BITMAP
11
3B
33
00
63
63
E7
E7
C6
C6
C6
FE
FE
ENDCHAR
STARTCHAR 04E6
ENCODING 1254
SWIDTH 780 0
DWIDTH 13 0
BBX 11 15 2 0
BITMAP
0CC0
0CC0
0000
0700
1FC0
3DE0
70E0
6060
E060
E0E0
E0E0
E0C0
E1C0
7F80
3F00
ENDCHAR
STARTCHAR 04E7
ENCODING 1255
SWIDTH 600 0
DWIDTH 10 0
BBX 8 13 2 0
BITMAP
10
33
33
00
1E
7F
E7
E3
C3
C7
C6
FE
7C
ENDCHAR
STARTCHAR 04E8
ENCODING 1256
SWIDTH 780 0
DWIDTH 13 0
BBX 11 12 2 0
BITMAP
0700
1FC0
3DE0
70E0
6060
FFE0
FFE0
E0E0
E0C0
E1C0
7F80
3F00
ENDCHAR
STARTCHAR 04E9
ENCODING 1257
SWIDTH 600 0
DWIDTH 10 0
BBX 8 9 2 0
BITMAP
1E
7F
E7
E3
FF
C7
C6
FE
7C
ENDCHAR
STARTCHAR 04EA
ENCODING 1258
SWIDTH 780 0
DWIDTH 13 0
BBX 11 15 2 0
BITMAP
0CC0
0CC0
0000
0700
1FC0
3DE0
70E0
6060
FFE0
FFE0
E0E0
E0C0
E1C0
7F80
3F00
ENDCHAR
STARTCHAR 04EB
ENCODING 1259
SWIDTH 600 0
DWIDTH 10 0
BBX 8 13 2 0
BITMAP
11
3B
33
00
1E
7F
E7
E3
FF
C7
C6
FE
7C
ENDCHAR
STARTCHAR 04EC
ENCODING 1260
SWIDTH 660 0
DWIDTH 11 0
BBX 11 15 1 0
BITMAP
0DC0
0DC0
0000
0F00
3F80
1BC0
00C0
00E0
1FC0
1FC0
00C0
01C0
0380
7F00
FE00
ENDCHAR
STARTCHAR 04ED
ENCODING 1261
SWIDTH 480 0
DWIDTH 8 0
BBX 8 13 1 0
BITMAP
10
3B
33
00
3C
3E
07
07
3F
07
06
FE
F8
ENDCHAR
STARTCHAR 04EE
ENCODING 1262
SWIDTH 600 0
DWIDTH 10 0
BBX 12 15 1 0
BITMAP
07C0
07C0
0000
3870
3860
38E0
18C0
1DC0
1D80
1F00
0F00
0E00
0C00
7C00
F800
ENDCHAR
STARTCHAR 04EF
ENCODING 1263
SWIDTH 540 0
DWIDTH 9 0
BBX 10 15 0 -3
BITMAP
0FC0
0F80
0000
38C0
39C0
39C0
1980
1B80
1B00
1F00
1E00
0C00
1C00
F800
F000
ENDCHAR
STARTCHAR 04F0
ENCODING 1264
SWIDTH 600 0
DWIDTH 10 0
BBX 12 15 1 0
BITMAP
0CC0
0CC0
0000
3870
3860
38E0
18C0
1DC0
1D80
1F00
0F00
0E00
0C00
7C00
F800
ENDCHAR
STARTCHAR 04F1
ENCODING 1265
SWIDTH 540 0
DWIDTH 9 0
BBX 10 16 0 -3
BITMAP
0080
0DC0
0D80
0000
38C0
39C0
39C0
1980
1B80
1B00
1F00
1E00
0C00
1C00
F800
F000
ENDCHAR
STARTCHAR 04F2
ENCODING 1266
SWIDTH 600 0
DWIDTH 10 0
BBX 12 16 1 0
BITMAP
0220
0760
06C0
0400
3870
3860
38E0
18C0
1DC0
1D80
1F00
0F00
0E00
0C00
7C00
F800
ENDCHAR
STARTCHAR 04F3
ENCODING 1267
SWIDTH 540 0
DWIDTH 9 0
BBX 11 16 0 -3
BITMAP
0260
06E0
0C80
0000
38C0
39C0
39C0
1980
1B80
1B00
1F00
1E00
0C00
1C00
F800
F000
ENDCHAR
STARTCHAR 04F4
ENCODING 1268
SWIDTH 660 0
DWIDTH 11 0
BBX 9 15 3 0
BITMAP
3300
3300
0000
E180
E380
E380
C380
C300
C300
FF00
FF00
0600
0600
0E00
0E00
ENDCHAR
STARTCHAR 04F5
ENCODING 1269
SWIDTH 540 0
DWIDTH 9 0
BBX 8 13 2 0
BITMAP
02
37
33
00
63
E7
E7
C6
FE
7E
0E
0C
0C
ENDCHAR
STARTCHAR 04F6
ENCODING 1270
SWIDTH 540 0
DWIDTH 9 0
BBX 11 15 1 -3
BITMAP
1FE0
1FC0
1FC0
3800
3800
3000
3000
7000
7000
6000
7800
F800
3800
3000
3000
ENDCHAR
STARTCHAR 04F7
ENCODING 1271
SWIDTH 480 0
DWIDTH 8 0
BBX 8 12 1 -3
BITMAP
3E
3F
07
0F
3E
78
E0
FE
7E
0C
0C
0C
ENDCHAR
STARTCHAR 04F8
ENCODING 1272
SWIDTH 900 0
DWIDTH 15 0
BBX 16 15 1 0
BITMAP
0330
0330
0000
1C07
1806
3806
380E
3F0E
3F8C
33CC
71DC
71DC
6398
7F98
FE38
ENDCHAR
STARTCHAR 04F9
ENCODING 1273
SWIDTH 840 0
DWIDTH 14 0
BBX 14 13 1 0
BITMAP
0240
0660
0660
0000
381C
3018
3018
7E38
7F38
6330
6330
FF70
FE70
ENDCHAR
STARTCHAR 1E80
ENCODING 7808
SWIDTH 960 0
DWIDTH 16 0
BBX 15 16 3 0
BITMAP
0200
0600
0300
0100
C00E
C00E
C31C
C71C
C718
CF38
DB30
DBF0
F3E0
F1E0
E1C0
E1C0
ENDCHAR
STARTCHAR 1E81
ENCODING 7809
SWIDTH 840 0
DWIDTH 14 0
BBX 13 13 2 0
BITMAP
0400
0600
0300
0000
E318
E738
E730
EF70
EF60
7BE0
7BC0
73C0
6380
ENDCHAR
STARTCHAR 1E82
ENCODING 7810
SWIDTH 960 0
DWIDTH 16 0
BBX 15 16 3 0
BITMAP
0080
01C0
0380
0000
C00E
C00E
C31C
C71C
C718
CF38
DB30
DBF0
F3E0
F1E0
E1C0
E1C0
ENDCHAR
STARTCHAR 1E83
ENCODING 7811
SWIDTH 840 0
DWIDTH 14 0
BBX 13 13 2 0
BITMAP
0180
0380
0300
0000
E318
E738
E730
EF70
EF60
7BE0
7BC0
73C0
6380
ENDCHAR
STARTCHAR 1E84
ENCODING 7812
SWIDTH 960 0
DWIDTH 16 0
BBX 15 15 3 0
BITMAP
0660
06E0
0000
C00E
C00E
C31C
C71C
C718
CF38
DB30
DBF0
F3E0
F1E0
E1C0
E1C0
ENDCHAR
STARTCHAR 1E85
ENCODING 7813
SWIDTH 840 0
DWIDTH 14 0
BBX 13 13 2 0
BITMAP
0440
0EC0
0CC0
0000
E318
E738
E730
EF70
EF60
7BE0
7BC0
73C0
6380
ENDCHAR
STARTCHAR 1EF2
ENCODING 7922
SWIDTH 660 0
DWIDTH 11 0
BBX 10 16 3 0
BITMAP
1000
1800
0C00
0000
E1C0
E180
E380
6700
7E00
7C00
3C00
3800
3800
3000
7000
7000
ENDCHAR
STARTCHAR 1EF3
ENCODING 7923
SWIDTH 540 0
DWIDTH 9 0
BBX 10 16 0 -3
BITMAP
0400
0600
0300
0000
38C0
39C0
39C0
1980
1B80
1B00
1F00
1E00
0C00
1C00
F800
F000
ENDCHAR
STARTCHAR 1F00
ENCODING 7936
SWIDTH 600 0
DWIDTH 10 0
BBX 8 14 2 0
BITMAP
06
07
02
04
00
1F
7F
73
E7
C7
C6
C6
FF
7F
ENDCHAR
STARTCHAR 1F01
ENCODING 7937
SWIDTH 600 0
DWIDTH 10 0
BBX 8 14 2 0
BITMAP
0C
0C
08
04
00
1F
7F
73
E7
C7
C6
C6
FF
7F
ENDCHAR
STARTCHAR 1F02
ENCODING 7938
SWIDTH 600 0
DWIDTH 10 0
BBX 9 14 2 0
BITMAP
1900
1B00
1900
3180
0000
1F00
7F00
7300
E700
C700
C600
C600
FF00
7F00
ENDCHAR
STARTCHAR 1F03
ENCODING 7939
SWIDTH 600 0
DWIDTH 10 0
BBX 8 14 2 0
BITMAP
1A
3B
13
19
00
1F
7F
73
E7
C7
C6
C6
FF
7F
ENDCHAR
STARTCHAR 1F04
ENCODING 7940
SWIDTH 600 0
DWIDTH 10 0
BBX 10 14 2 0
BITMAP
0C80
0CC0
0D80
1B00
0000
1F00
7F00
7300
E700
C700
C600
C600
FF00
7F00
ENDCHAR
STARTCHAR 1F05
ENCODING 7941
SWIDTH 600 0
DWIDTH 10 0
BBX 9 14 2 0
BITMAP
1800
1980
1300
0A00
0000
1F00
7F00
7300
E700
C700
C600
C600
FF00
7F00
ENDCHAR
STARTCHAR 1F06
ENCODING 7942
SWIDTH 600 0
DWIDTH 10 0
BBX 9 15 2 0
BITMAP
0F00
0980
0600
0600
0400
0000
1F00
7F00
7300
E700
C700
C600
C600
FF00
7F00
ENDCHAR
STARTCHAR 1F07
ENCODING 7943
SWIDTH 600 0
DWIDTH 10 0
BBX 9 15 2 0
BITMAP
0F00
1980
0600
0600
0600
0000
1F00
7F00
7300
E700
C700
C600
C600
FF00
7F00
ENDCHAR
STARTCHAR 1F08
ENCODING 7944
SWIDTH 720 0
DWIDTH 12 0
BBX 11 12 1 0
BITMAP
3180
3B80
3780
67C0
0CC0
1CC0
18C0
3FC0
3FC0
70C0
E0E0
C0E0
ENDCHAR
STARTCHAR 1F09
ENCODING 7945
SWIDTH 720 0
DWIDTH 12 0
BBX 11 12 1 0
BITMAP
3180
33C0
23C0
16C0
0EC0
0CC0
1CC0
3FE0
3FE0
70E0
60E0
E0E0
ENDCHAR
STARTCHAR 1F0A
ENCODING 7946
SWIDTH 960 0
DWIDTH 16 0
BBX 14 12 2 0
BITMAP
6430
6C70
64F0
C6F8
0198
0398
0318
07F8
07F8
0E18
1C1C
181C
ENDCHAR
STARTCHAR 1F0B
ENCODING 7947
SWIDTH 960 0
DWIDTH 16 0
BBX 13 12 2 0
BITMAP
6070
EC70
4CF0
65F0
01B0
0338
0738
07F8
0FF8
0C18
1C18
3818
ENDCHAR
STARTCHAR 1F0C
ENCODING 7948
SWIDTH 900 0
DWIDTH 15 0
BBX 13 12 2 0
BITMAP
6460
66E0
6DF0
D9B0
03B0
0330
0630
0FF0
0FF0
1C38
1838
3838
ENDCHAR
STARTCHAR 1F0D
ENCODING 7949
SWIDTH 900 0
DWIDTH 15 0
BBX 13 12 2 0
BITMAP
6460
E6F0
4CF0
79B0
03B0
0330
0730
0FF8
0FF8
1C38
1838
3838
ENDCHAR
STARTCHAR 1F0E
ENCODING 7950
SWIDTH 840 0
DWIDTH 14 0
BBX 11 13 2 0
BITMAP
7800
4DC0
31C0
33C0
27C0
06C0
0CE0
1CE0
1FE0
3FE0
3060
7060
E060
ENDCHAR
STARTCHAR 1F0F
ENCODING 7951
SWIDTH 840 0
DWIDTH 14 0
BBX 11 13 2 0
BITMAP
7800
CDC0
31C0
33C0
37C0
06C0
0CE0
1CE0
1FE0
3FE0
3060
7060
E060
ENDCHAR
STARTCHAR 1F10
ENCODING 7952
SWIDTH 480 0
DWIDTH 8 0
BBX 7 14 2 0
BITMAP
04
0E
04
08
00
3E
7E
60
60
78
E0
C0
FC
FC
ENDCHAR
STARTCHAR 1F11
ENCODING 7953
SWIDTH 480 0
DWIDTH 8 0
BBX 7 14 2 0
BITMAP
0C
0C
08
04
00
3E
7E
60
60
78
E0
C0
FC
FC
ENDCHAR
STARTCHAR 1F12
ENCODING 7954
SWIDTH 480 0
DWIDTH 8 0
BBX 8 14 2 0
BITMAP
18
1B
1B
31
00
3E
7E
60
60
78
E0
C0
FC
FC
ENDCHAR
STARTCHAR 1F13
ENCODING 7955
SWIDTH 480 0
DWIDTH 8 0
BBX 8 14 2 0
BITMAP
32
36
22
13
00
3E
7E
60
60
78
E0
C0
FC
FC
ENDCHAR
STARTCHAR 1F14
ENCODING 7956
SWIDTH 480 0
DWIDTH 8 0
BBX 9 14 2 0
BITMAP
1900
1B80
1B00
3600
0000
3E00
7E00
6000
6000
7800
E000
C000
FC00
FC00
ENDCHAR
STARTCHAR 1F15
ENCODING 7957
SWIDTH 480 0
DWIDTH 8 0
BBX 8 14 2 0
BITMAP
30
33
26
14
00
3E
7E
60
60
78
E0
C0
FC
FC
ENDCHAR
STARTCHAR 1F18
ENCODING 7960
SWIDTH 720 0
DWIDTH 12 0
BBX 12 12 2 0
BITMAP
6FF0
6FF0
6FF0
CC00
0C00
1FC0
1FC0
1800
1800
3800
3FC0
3FC0
ENDCHAR
STARTCHAR 1F19
ENCODING 7961
SWIDTH 780 0
DWIDTH 13 0
BBX 12 12 2 0
BITMAP
67F0
EFF0
4FF0
6C00
0C00
1FC0
1FC0
1C00
1800
3800
3FC0
3FC0
ENDCHAR
STARTCHAR 1F1A
ENCODING 7962
SWIDTH 960 0
DWIDTH 16 0
BBX 16 12 2 0
BITMAP
64FF
6CFE
64FE
C7C0
01C0
01FC
01FC
0380
0380
0380
03FC
07F8
ENDCHAR
STARTCHAR 1F1B
ENCODING 7963
SWIDTH 960 0
DWIDTH 16 0
BBX 15 12 2 0
BITMAP
60FE
ECFE
4DFE
65C0
01C0
01FC
01F8
0380
0380
0300
03F8
07F8
ENDCHAR
STARTCHAR 1F1C
ENCODING 7964
SWIDTH 960 0
DWIDTH 16 0
BBX 16 12 2 0
BITMAP
64FF
66FF
6CFE
D8C0
01C0
01FC
01FC
0180
0380
0380
03FC
03FC
ENDCHAR
STARTCHAR 1F1D
ENCODING 7965
SWIDTH 960 0
DWIDTH 16 0
BBX 16 12 2 0
BITMAP
64FF
E6FF
4CFE
78C0
01C0
01FC
01FC
0180
0380
0380
03FC
03FC
ENDCHAR
STARTCHAR 1F20
ENCODING 7968
SWIDTH 540 0
DWIDTH 9 0
BBX 9 17 1 -3
BITMAP
0200
0700
0200
0400
0000
1F00
3F80
3380
7380
7380
6300
6300
6700
E700
0600
0600
0E00
ENDCHAR
STARTCHAR 1F21
ENCODING 7969
SWIDTH 540 0
DWIDTH 9 0
BBX 9 17 1 -3
BITMAP
0600
0600
0400
0200
0000
1F00
3F80
3380
7380
7380
6300
6300
6700
E700
0600
0600
0E00
ENDCHAR
STARTCHAR 1F22
ENCODING 7970
SWIDTH 540 0
DWIDTH 9 0
BBX 9 17 1 -3
BITMAP
0C00
0D80
0D80
1880
0000
1F00
3F80
3380
7380
7380
6300
6300
6700
E700
0600
0600
0E00
ENDCHAR
STARTCHAR 1F23
ENCODING 7971
SWIDTH 540 0
DWIDTH 9 0
BBX 9 17 1 -3
BITMAP
1900
1B00
1980
0980
0000
1F00
3F80
3380
7380
7380
6300
6300
6700
E700
0600
0600
0E00
ENDCHAR
STARTCHAR 1F24
ENCODING 7972
SWIDTH 540 0
DWIDTH 9 0
BBX 10 17 1 -3
BITMAP
0C00
0CC0
0D80
1B00
0000
1F00
3F80
3380
7380
7380
6300
6300
6700
E700
0600
0600
0E00
ENDCHAR
STARTCHAR 1F25
ENCODING 7973
SWIDTH 540 0
DWIDTH 9 0
BBX 10 17 1 -3
BITMAP
0880
1DC0
1980
0B00
0000
1F00
3F80
3380
7380
7380
6300
6300
6700
E700
0600
0600
0E00
ENDCHAR
STARTCHAR 1F26
ENCODING 7974
SWIDTH 540 0
DWIDTH 9 0
BBX 9 18 1 -3
BITMAP
0780
0C80
0200
0300
0600
0000
1F00
3F80
3380
7380
7380
6300
6300
6700
E700
0600
0600
0E00
ENDCHAR
STARTCHAR 1F27
ENCODING 7975
SWIDTH 540 0
DWIDTH 9 0
BBX 9 18 1 -3
BITMAP
0F00
0980
0600
0600
0200
0000
1F00
3F80
3380
7380
7380
6300
6300
6700
E700
0600
0600
0E00
ENDCHAR
STARTCHAR 1F28
ENCODING 7976
SWIDTH 840 0
DWIDTH 14 0
BBX 14 12 2 0
BITMAP
661C
6E1C
6E18
CC18
0C38
1FF8
1FF0
1830
1870
3870
3860
3060
ENDCHAR
STARTCHAR 1F29
ENCODING 7977
SWIDTH 900 0
DWIDTH 15 0
BBX 14 12 2 0
BITMAP
661C
EE1C
4E18
6C18
0C38
1FF8
1FF0
1C30
1870
3870
3870
3860
ENDCHAR
STARTCHAR 1F2A
ENCODING 7978
SWIDTH 1080 0
DWIDTH 18 0
BBX 18 12 2 0
BITMAP
64E1C0
6CE180
64C180
C6C380
01C380
01FF00
01FF00
018700
038700
038600
038600
030E00
ENDCHAR
STARTCHAR 1F2B
ENCODING 7979
SWIDTH 1080 0
DWIDTH 18 0
BBX 17 12 2 0
BITMAP
60E180
ECC380
4CC380
65C380
01C300
01FF00
01FF00
038700
038600
030600
030E00
070E00
ENDCHAR
STARTCHAR 1F2C
ENCODING 7980
SWIDTH 1080 0
DWIDTH 18 0
BBX 17 12 2 0
BITMAP
64E180
66E180
6CC380
D9C380
01C380
01FF00
01FF00
018700
038700
038600
030E00
030E00
ENDCHAR
STARTCHAR 1F2D
ENCODING 7981
SWIDTH 1080 0
DWIDTH 18 0
BBX 18 12 2 0
BITMAP
64E1C0
E6E180
4CE180
78C380
01C380
01FF80
01FF00
018700
038700
038700
038600
030E00
ENDCHAR
STARTCHAR 1F2E
ENCODING 7982
SWIDTH 1020 0
DWIDTH 17 0
BBX 15 13 3 0
BITMAP
F000
9B06
630E
670E
470C
060C
07FC
0FFC
0E18
0C18
0C38
1C38
1C30
ENDCHAR
STARTCHAR 1F2F
ENCODING 7983
SWIDTH 1020 0
DWIDTH 17 0
BBX 15 13 3 0
BITMAP
F000
9B86
630E
670E
670E
070C
07FC
07FC
0E1C
0E18
0C38
0C38
1C38
ENDCHAR
STARTCHAR 1F30
ENCODING 7984
SWIDTH 300 0
DWIDTH 5 0
BBX 5 14 2 0
BITMAP
10
38
10
20
00
70
70
60
60
E0
E0
C0
E0
E0
ENDCHAR
STARTCHAR 1F31
ENCODING 7985
SWIDTH 300 0
DWIDTH 5 0
BBX 4 14 2 0
BITMAP
30
30
30
10
00
70
70
60
60
E0
E0
C0
E0
E0
ENDCHAR
STARTCHAR 1F32
ENCODING 7986
SWIDTH 300 0
DWIDTH 5 0
BBX 6 14 2 0
BITMAP
60
EC
4C
C4
00
70
70
60
60
E0
E0
C0
E0
E0
ENDCHAR
STARTCHAR 1F33
ENCODING 7987
SWIDTH 300 0
DWIDTH 5 0
BBX 6 14 2 0
BITMAP
C8
D8
88
4C
00
70
70
60
60
E0
E0
C0
E0
E0
ENDCHAR
STARTCHAR 1F34
ENCODING 7988
SWIDTH 300 0
DWIDTH 5 0
BBX 7 14 2 0
BITMAP
60
66
6C
D8
00
70
70
60
60
E0
E0
C0
E0
E0
ENDCHAR
STARTCHAR 1F35
ENCODING 7989
SWIDTH 300 0
DWIDTH 5 0
BBX 7 14 2 0
BITMAP
44
EE
CC
78
00
70
70
60
60
E0
E0
C0
E0
E0
ENDCHAR
STARTCHAR 1F36
ENCODING 7990
SWIDTH 300 0
DWIDTH 5 0
BBX 6 15 2 0
BITMAP
3C
64
10
30
30
00
70
70
60
60
E0
E0
C0
E0
E0
ENDCHAR
STARTCHAR 1F37
ENCODING 7991
SWIDTH 300 0
DWIDTH 5 0
BBX 6 15 2 0
BITMAP
78
4C
30
30
10
00
70
70
60
60
E0
E0
C0
E0
E0
ENDCHAR
STARTCHAR 1F38
ENCODING 7992
SWIDTH 480 0
DWIDTH 8 0
BBX 7 12 2 0
BITMAP
66
6E
6E
CC
0C
1C
1C
18
18
38
38
30
ENDCHAR
STARTCHAR 1F39
ENCODING 7993
SWIDTH 480 0
DWIDTH 8 0
BBX 7 12 2 0
BITMAP
66
EE
4E
6C
0C
1C
1C
1C
18
38
38
38
ENDCHAR
STARTCHAR 1F3A
ENCODING 7994
SWIDTH 660 0
DWIDTH 11 0
BBX 11 12 2 0
BITMAP
64E0
6CC0
64C0
C7C0
01C0
01C0
0180
0380
0380
0380
0300
0700
ENDCHAR
STARTCHAR 1F3B
ENCODING 7995
SWIDTH 660 0
DWIDTH 11 0
BBX 11 12 2 0
BITMAP
60E0
ECC0
4DC0
65C0
01C0
0180
0180
0380
0380
0300
0300
0700
ENDCHAR
STARTCHAR 1F3C
ENCODING 7996
SWIDTH 660 0
DWIDTH 11 0
BBX 11 12 2 0
BITMAP
64E0
66E0
6CC0
D8C0
01C0
01C0
0180
0180
0380
0380
0300
0300
ENDCHAR
STARTCHAR 1F3D
ENCODING 7997
SWIDTH 720 0
DWIDTH 12 0
BBX 11 12 2 0
BITMAP
64E0
E6E0
4CC0
78C0
01C0
01C0
0180
0180
0380
0380
0380
0300
ENDCHAR
STARTCHAR 1F3E
ENCODING 7998
SWIDTH 600 0
DWIDTH 10 0
BBX 8 13 3 0
BITMAP
F0
9B
67
67
47
06
06
0E
0E
0C
0C
1C
1C
ENDCHAR
STARTCHAR 1F3F
ENCODING 7999
SWIDTH 600 0
DWIDTH 10 0
BBX 8 13 3 0
BITMAP
F0
9B
63
67
67
07
06
0E
0E
0E
0C
1C
1C
ENDCHAR
STARTCHAR 1F40
ENCODING 8000
SWIDTH 600 0
DWIDTH 10 0
BBX 8 14 2 0
BITMAP
06
06
06
0C
00
1E
7F
E7
E3
C3
C7
C6
FE
7C
ENDCHAR
STARTCHAR 1F41
ENCODING 8001
SWIDTH 600 0
DWIDTH 10 0
BBX 8 14 2 0
BITMAP
06
0E
04
06
00
1E
7F
E7
E3
C3
C7
C6
FE
7C
ENDCHAR
STARTCHAR 1F42
ENCODING 8002
SWIDTH 600 0
DWIDTH 10 0
BBX 9 14 2 0
BITMAP
1900
1B00
1900
3180
0000
1E00
7F00
E700
E300
C300
C700
C600
FE00
7C00
ENDCHAR
STARTCHAR 1F43
ENCODING 8003
SWIDTH 600 0
DWIDTH 10 0
BBX 8 14 2 0
BITMAP
12
3A
33
19
00
1E
7F
E7
E3
C3
C7
C6
FE
7C
ENDCHAR
STARTCHAR 1F44
ENCODING 8004
SWIDTH 600 0
DWIDTH 10 0
BBX 9 14 2 0
BITMAP
1800
1980
1B00
3600
0000
1E00
7F00
E700
E300
C300
C700
C600
FE00
7C00
ENDCHAR
STARTCHAR 1F45
ENCODING 8005
SWIDTH 600 0
DWIDTH 10 0
BBX 9 14 2 0
BITMAP
1800
3980
1300
1E00
0000
1E00
7F00
E700
E300
C300
C700
C600
FE00
7C00
ENDCHAR
STARTCHAR 1F48
ENCODING 8008
SWIDTH 900 0
DWIDTH 15 0
BBX 14 12 2 0
BITMAP
61E0
67F0
6F78
DC18
1C1C
181C
3818
3838
1838
1C70
1FE0
0FC0
ENDCHAR
STARTCHAR 1F49
ENCODING 8009
SWIDTH 960 0
DWIDTH 16 0
BBX 14 12 2 0
BITMAP
60E0
E3F8
47BC
6E1C
0C0C
1C0C
1C1C
1C1C
1C18
1C38
0FF0
07E0
ENDCHAR
STARTCHAR 1F4A
ENCODING 8010
SWIDTH 1140 0
DWIDTH 19 0
BBX 18 12 2 0
BITMAP
641E00
6C3F80
647BC0
C6E1C0
01C1C0
01C1C0
01C1C0
01C1C0
01C380
01C780
00FF00
007E00
ENDCHAR
STARTCHAR 1F4B
ENCODING 8011
SWIDTH 1140 0
DWIDTH 19 0
BBX 18 12 2 0
BITMAP
601E00
EC7F00
4CF780
65C180
01C1C0
0181C0
038180
038380
018380
01C700
01FE00
00FC00
ENDCHAR
STARTCHAR 1F4C
ENCODING 8012
SWIDTH 1080 0
DWIDTH 18 0
BBX 17 12 2 0
BITMAP
643C00
667F00
6CF780
D9C380
038380
038380
038380
038380
038700
038F00
01FE00
00F800
ENDCHAR
STARTCHAR 1F4D
ENCODING 8013
SWIDTH 1080 0
DWIDTH 18 0
BBX 17 12 2 0
BITMAP
643C00
E67F00
4CE700
79C380
038380
038380
038380
038380
038700
038F00
01FE00
00F800
ENDCHAR
STARTCHAR 1F50
ENCODING 8016
SWIDTH 540 0
DWIDTH 9 0
BBX 8 14 2 0
BITMAP
06
06
06
0C
00
73
63
67
E7
E6
C6
CE
FC
7C
ENDCHAR
STARTCHAR 1F51
ENCODING 8017
SWIDTH 540 0
DWIDTH 9 0
BBX 8 14 2 0
BITMAP
0C
0C
08
04
00
73
63
67
E7
E6
C6
CE
FC
7C
ENDCHAR
STARTCHAR 1F52
ENCODING 8018
SWIDTH 540 0
DWIDTH 9 0
BBX 9 14 2 0
BITMAP
1900
1B00
1900
3180
0000
7300
6300
6700
E700
E600
C600
CE00
FC00
7C00
ENDCHAR
STARTCHAR 1F53
ENCODING 8019
SWIDTH 540 0
DWIDTH 9 0
BBX 8 14 2 0
BITMAP
32
36
22
13
00
73
63
67
E7
E6
C6
CE
FC
7C
ENDCHAR
STARTCHAR 1F54
ENCODING 8020
SWIDTH 540 0
DWIDTH 9 0
BBX 9 14 2 0
BITMAP
1900
1980
1B00
3600
0000
7300
6300
6700
E700
E600
C600
CE00
FC00
7C00
ENDCHAR
STARTCHAR 1F55
ENCODING 8021
SWIDTH 540 0
DWIDTH 9 0
BBX 8 14 2 0
BITMAP
31
33
36
16
00
73
63
67
E7
E6
C6
CE
FC
7C
ENDCHAR
STARTCHAR 1F56
ENCODING 8022
SWIDTH 540 0
DWIDTH 9 0
BBX 8 15 2 0
BITMAP
0F
19
04
06
0C
00
73
63
67
E7
E6
C6
CE
FC
7C
ENDCHAR
STARTCHAR 1F57
ENCODING 8023
SWIDTH 540 0
DWIDTH 9 0
BBX 8 15 2 0
BITMAP
1E
13
0C
0C
0C
00
73
63
67
E7
E6
C6
CE
FC
7C
ENDCHAR
STARTCHAR 1F59
ENCODING 8025
SWIDTH 840 0
DWIDTH 14 0
BBX 14 12 2 0
BITMAP
6C1C
EE38
4E38
6670
06E0
07C0
0380
0380
0300
0700
0700
0700
ENDCHAR
STARTCHAR 1F5B
ENCODING 8027
SWIDTH 1020 0
DWIDTH 17 0
BBX 17 12 2 0
BITMAP
618380
EDC700
4DC700
64CE00
00FC00
00F800
007000
007000
006000
006000
00E000
00E000
ENDCHAR
STARTCHAR 1F5D
ENCODING 8029
SWIDTH 1020 0
DWIDTH 17 0
BBX 18 12 2 0
BITMAP
65C1C0
E6C380
4CE300
78E700
006E00
007C00
007800
003000
007000
007000
007000
006000
ENDCHAR
STARTCHAR 1F5F
ENCODING 8031
SWIDTH 1020 0
DWIDTH 17 0
BBX 16 13 3 0
BITMAP
F000
9F07
630E
638C
639C
01B8
01F0
01E0
00C0
00C0
01C0
01C0
0180
ENDCHAR
STARTCHAR 1F60
ENCODING 8032
SWIDTH 840 0
DWIDTH 14 0
BBX 12 14 2 0
BITMAP
0180
0180
0180
0300
0000
2030
7070
6730
E730
C630
C630
CE70
FFE0
7BC0
ENDCHAR
STARTCHAR 1F61
ENCODING 8033
SWIDTH 840 0
DWIDTH 14 0
BBX 12 14 2 0
BITMAP
0300
0300
0200
0100
0000
2030
7070
6730
E730
C630
C630
CE70
FFE0
7BC0
ENDCHAR
STARTCHAR 1F62
ENCODING 8034
SWIDTH 840 0
DWIDTH 14 0
BBX 12 14 2 0
BITMAP
0480
0EC0
04C0
0840
0000
2030
7070
6730
E730
C630
C630
CE70
FFE0
7BC0
ENDCHAR
STARTCHAR 1F63
ENCODING 8035
SWIDTH 840 0
DWIDTH 14 0
BBX 12 14 2 0
BITMAP
0480
0E80
0CC0
0640
0000
2030
7070
6730
E730
C630
C630
CE70
FFE0
7BC0
ENDCHAR
STARTCHAR 1F64
ENCODING 8036
SWIDTH 840 0
DWIDTH 14 0
BBX 12 14 2 0
BITMAP
0600
0660
06C0
0D80
0000
2030
7070
6730
E730
C630
C630
CE70
FFE0
7BC0
ENDCHAR
STARTCHAR 1F65
ENCODING 8037
SWIDTH 840 0
DWIDTH 14 0
BBX 12 14 2 0
BITMAP
0640
0E60
04C0
0780
0000
2030
7070
6730
E730
C630
C630
CE70
FFE0
7BC0
ENDCHAR
STARTCHAR 1F66
ENCODING 8038
SWIDTH 840 0
DWIDTH 14 0
BBX 12 15 2 0
BITMAP
03C0
0640
0100
0100
0300
0000
2030
7070
6730
E730
C630
C630
CE70
FFE0
7BC0
ENDCHAR
STARTCHAR 1F67
ENCODING 8039
SWIDTH 840 0
DWIDTH 14 0
BBX 12 15 2 0
BITMAP
03C0
0440
0100
0300
0100
0000
2030
7070
6730
E730
C630
C630
CE70
FFE0
7BC0
ENDCHAR
STARTCHAR 1F68
ENCODING 8040
SWIDTH 960 0
DWIDTH 16 0
BBX 14 12 2 0
BITMAP
61E0
67F8
6F3C
DC1C
1C1C
181C
181C
1818
1C38
0C70
3CF8
7CF8
ENDCHAR
STARTCHAR 1F69
ENCODING 8041
SWIDTH 960 0
DWIDTH 16 0
BBX 15 12 2 0
BITMAP
61F0
E7F8
4F3C
6E0C
1C0E
1C0C
1C0C
1C1C
0C38
0E30
3E7C
3EF8
ENDCHAR
STARTCHAR 1F6A
ENCODING 8042
SWIDTH 1200 0
DWIDTH 20 0
BBX 18 12 2 0
BITMAP
641E00
6C7F80
64F3C0
C6E1C0
01C0C0
01C0C0
01C1C0
01C1C0
01C380
00C700
03EF80
03CF80
ENDCHAR
STARTCHAR 1F6B
ENCODING 8043
SWIDTH 1200 0
DWIDTH 20 0
BBX 18 12 2 0
BITMAP
601E00
EC7F80
4CF780
65C1C0
0181C0
0181C0
0181C0
018180
018380
01C700
07CF80
07CF80
ENDCHAR
STARTCHAR 1F6C
ENCODING 8044
SWIDTH 1140 0
DWIDTH 19 0
BBX 17 12 2 0
BITMAP
643C00
66FF00
6DE780
D9C380
038180
038180
030380
038380
038700
018E00
07DF00
079F00
ENDCHAR
STARTCHAR 1F6D
ENCODING 8045
SWIDTH 1140 0
DWIDTH 19 0
BBX 17 12 2 0
BITMAP
643C00
E6FF00
4DE780
79C380
038180
038180
030380
038380
038700
018E00
07DF00
079F00
ENDCHAR
STARTCHAR 1F6E
ENCODING 8046
SWIDTH 1020 0
DWIDTH 17 0
BBX 15 13 3 0
BITMAP
F000
99F0
63F8
67BC
4E0E
0C0E
1C0E
1C0C
1C1C
0C18
0E30
3E7C
3EF8
ENDCHAR
STARTCHAR 1F6F
ENCODING 8047
SWIDTH 1080 0
DWIDTH 18 0
BBX 15 13 3 0
BITMAP
F000
98F0
63FC
67BC
6E0E
0C0E
0C0E
1C0E
0C1C
0C18
0E38
3E7C
3E7C
ENDCHAR
STARTCHAR 1F70
ENCODING 8048
SWIDTH 600 0
DWIDTH 10 0
BBX 8 13 2 0
BITMAP
18
1C
0E
00
1F
7F
73
E7
C7
C6
C6
FF
7F
ENDCHAR
STARTCHAR 1F71
ENCODING 8049
SWIDTH 600 0
DWIDTH 10 0
BBX 8 13 2 0
BITMAP
03
07
0E
00
1F
7F
73
E7
C7
C6
C6
FF
7F
ENDCHAR
STARTCHAR 1F72
ENCODING 8050
SWIDTH 480 0
DWIDTH 8 0
BBX 7 13 2 0
BITMAP
18
1C
0E
00
3E
7E
60
60
78
E0
C0
FC
FC
ENDCHAR
STARTCHAR 1F73
ENCODING 8051
SWIDTH 480 0
DWIDTH 8 0
BBX 7 13 2 0
BITMAP
06
0E
1C
00
3E
7E
60
60
78
E0
C0
FC
FC
ENDCHAR
STARTCHAR 1F74
ENCODING 8052
SWIDTH 540 0
DWIDTH 9 0
BBX 9 16 1 -3
BITMAP
0800
1E00
0600
0000
1F00
3F80
3380
7380
7380
6300
6300
6700
E700
0600
0600
0E00
ENDCHAR
STARTCHAR 1F75
ENCODING 8053
SWIDTH 540 0
DWIDTH 9 0
BBX 9 16 1 -3
BITMAP
0100
0380
0600
0000
1F00
3F80
3380
7380
7380
6300
6300
6700
E700
0600
0600
0E00
ENDCHAR
STARTCHAR 1F76
ENCODING 8054
SWIDTH 300 0
DWIDTH 5 0
BBX 5 13 2 0
BITMAP
60
70
38
00
70
70
60
60
E0
E0
C0
E0
E0
ENDCHAR
STARTCHAR 1F77
ENCODING 8055
SWIDTH 300 0
DWIDTH 5 0
BBX 5 13 2 0
BITMAP
18
38
70
00
70
70
60
60
E0
E0
C0
E0
E0
ENDCHAR
STARTCHAR 1F78
ENCODING 8056
SWIDTH 600 0
DWIDTH 10 0
BBX 8 13 2 0
BITMAP
18
1C
0E
00
1E
7F
E7
E3
C3
C7
C6
FE
7C
ENDCHAR
STARTCHAR 1F79
ENCODING 8057
SWIDTH 600 0
DWIDTH 10 0
BBX 8 13 2 0
BITMAP
02
0F
0C
00
1E
7F
E7
E3
C3
C7
C6
FE
7C
ENDCHAR
STARTCHAR 1F7A
ENCODING 8058
SWIDTH 540 0
DWIDTH 9 0
BBX 8 13 2 0
BITMAP
18
1C
06
00
73
63
67
E7
E6
C6
CE
FC
7C
ENDCHAR
STARTCHAR 1F7B
ENCODING 8059
SWIDTH 540 0
DWIDTH 9 0
BBX 8 13 2 0
BITMAP
02
0F
0C
00
73
63
67
E7
E6
C6
CE
FC
7C
ENDCHAR
STARTCHAR 1F7C
ENCODING 8060
SWIDTH 840 0
DWIDTH 14 0
BBX 12 13 2 0
BITMAP
0600
0700
0180
0000
2030
7070
6730
E730
C630
C630
CE70
FFE0
7BC0
ENDCHAR
STARTCHAR 1F7D
ENCODING 8061
SWIDTH 840 0
DWIDTH 14 0
BBX 12 13 2 0
BITMAP
0080
03C0
0300
0000
2030
7070
6730
E730
C630
C630
CE70
FFE0
7BC0
ENDCHAR
STARTCHAR 1F80
ENCODING 8064
SWIDTH 600 0
DWIDTH 10 0
BBX 8 18 2 -4
BITMAP
06
07
02
04
00
1F
7F
73
E7
C7
C6
C6
FF
7F
00
60
70
30
ENDCHAR
STARTCHAR 1F81
ENCODING 8065
SWIDTH 600 0
DWIDTH 10 0
BBX 8 18 2 -4
BITMAP
0C
0C
08
04
00
1F
7F
73
E7
C7
C6
C6
FF
7F
00
60
70
30
ENDCHAR
STARTCHAR 1F82
ENCODING 8066
SWIDTH 600 0
DWIDTH 10 0
BBX 9 18 2 -4
BITMAP
1900
1B00
1900
3180
0000
1F00
7F00
7300
E700
C700
C600
C600
FF00
7F00
0000
6000
7000
3000
ENDCHAR
STARTCHAR 1F83
ENCODING 8067
SWIDTH 600 0
DWIDTH 10 0
BBX 8 18 2 -4
BITMAP
1A
3B
13
19
00
1F
7F
73
E7
C7
C6
C6
FF
7F
00
60
70
30
ENDCHAR
STARTCHAR 1F84
ENCODING 8068
SWIDTH 600 0
DWIDTH 10 0
BBX 10 18 2 -4
BITMAP
0C80
0CC0
0D80
1B00
0000
1F00
7F00
7300
E700
C700
C600
C600
FF00
7F00
0000
6000
7000
3000
ENDCHAR
STARTCHAR 1F85
ENCODING 8069
SWIDTH 600 0
DWIDTH 10 0
BBX 9 18 2 -4
BITMAP
1800
1980
1300
0A00
0000
1F00
7F00
7300
E700
C700
C600
C600
FF00
7F00
0000
6000
7000
3000
ENDCHAR
STARTCHAR 1F86
ENCODING 8070
SWIDTH 600 0
DWIDTH 10 0
BBX 9 19 2 -4
BITMAP
0F00
0980
0600
0600
0400
0000
1F00
7F00
7300
E700
C700
C600
C600
FF00
7F00
0000
6000
7000
3000
ENDCHAR
STARTCHAR 1F87
ENCODING 8071
SWIDTH 600 0
DWIDTH 10 0
BBX 9 19 2 -4
BITMAP
0F00
1980
0600
0600
0600
0000
1F00
7F00
7300
E700
C700
C600
C600
FF00
7F00
0000
6000
7000
3000
ENDCHAR
STARTCHAR 1F88
ENCODING 8072
SWIDTH 1020 0
DWIDTH 17 0
BBX 16 12 1 0
BITMAP
3180
3B80
3780
67C3
0CC3
1CC3
18C7
3FC7
3FC6
70C6
E0E7
C0E7
ENDCHAR
STARTCHAR 1F89
ENCODING 8073
SWIDTH 1080 0
DWIDTH 18 0
BBX 17 12 1 0
BITMAP
318000
33C000
23C000
16C380
0EC380
0CC300
1CC300
3FE700
3FE700
70E600
60E700
E0E700
ENDCHAR
STARTCHAR 1F8A
ENCODING 8074
SWIDTH 1260 0
DWIDTH 21 0
BBX 20 12 2 0
BITMAP
643000
6C7000
64F000
C6F870
019860
039860
0318E0
07F8E0
07F8C0
0E18C0
1C1CE0
181CE0
ENDCHAR
STARTCHAR 1F8B
ENCODING 8075
SWIDTH 1260 0
DWIDTH 21 0
BBX 19 12 2 0
BITMAP
607000
EC7000
4CF000
65F060
01B0E0
0338E0
0738C0
07F8C0
0FF9C0
0C19C0
1C19E0
3818C0
ENDCHAR
STARTCHAR 1F8C
ENCODING 8076
SWIDTH 1200 0
DWIDTH 20 0
BBX 19 12 2 0
BITMAP
646000
66E000
6DF000
D9B0E0
03B0C0
0330C0
0631C0
0FF1C0
0FF180
1C3980
1839C0
3839C0
ENDCHAR
STARTCHAR 1F8D
ENCODING 8077
SWIDTH 1260 0
DWIDTH 21 0
BBX 19 12 2 0
BITMAP
646000
E6F000
4CF000
79B0E0
03B0E0
0330C0
0730C0
0FF9C0
0FF9C0
1C3980
1839C0
3839C0
ENDCHAR
STARTCHAR 1F8E
ENCODING 8078
SWIDTH 1140 0
DWIDTH 19 0
BBX 17 13 2 0
BITMAP
780000
4DC000
31C000
33C000
27C180
06C380
0CE380
1CE300
1FE300
3FE700
306700
706700
E06300
ENDCHAR
STARTCHAR 1F8F
ENCODING 8079
SWIDTH 1140 0
DWIDTH 19 0
BBX 17 13 2 0
BITMAP
780000
CDC000
31C000
33C000
37C180
06C380
0CE380
1CE300
1FE300
3FE700
306700
706700
E06300
ENDCHAR
STARTCHAR 1F90
ENCODING 8080
SWIDTH 540 0
DWIDTH 9 0
BBX 9 18 1 -4
BITMAP
0200
0700
0200
0400
0000
1F00
3F80
3380
7380
7380
6300
6300
6700
E700
0600
C600
EE00
6000
ENDCHAR
STARTCHAR 1F91
ENCODING 8081
SWIDTH 540 0
DWIDTH 9 0
BBX 9 18 1 -4
BITMAP
0600
0600
0400
0200
0000
1F00
3F80
3380
7380
7380
6300
6300
6700
E700
0600
C600
EE00
6000
ENDCHAR
STARTCHAR 1F92
ENCODING 8082
SWIDTH 540 0
DWIDTH 9 0
BBX 9 18 1 -4
BITMAP
0C00
0D80
0D80
1880
0000
1F00
3F80
3380
7380
7380
6300
6300
6700
E700
0600
C600
EE00
6000
ENDCHAR
STARTCHAR 1F93
ENCODING 8083
SWIDTH 540 0
DWIDTH 9 0
BBX 9 18 1 -4
BITMAP
1900
1B00
1980
0980
0000
1F00
3F80
3380
7380
7380
6300
6300
6700
E700
0600
C600
EE00
6000
ENDCHAR
STARTCHAR 1F94
ENCODING 8084
SWIDTH 540 0
DWIDTH 9 0
BBX 10 18 1 -4
BITMAP
0C00
0CC0
0D80
1B00
0000
1F00
3F80
3380
7380
7380
6300
6300
6700
E700
0600
C600
EE00
6000
ENDCHAR
STARTCHAR 1F95
ENCODING 8085
SWIDTH 540 0
DWIDTH 9 0
BBX 10 18 1 -4
BITMAP
0880
1DC0
1980
0B00
0000
1F00
3F80
3380
7380
7380
6300
6300
6700
E700
0600
C600
EE00
6000
ENDCHAR
STARTCHAR 1F96
ENCODING 8086
SWIDTH 540 0
DWIDTH 9 0
BBX 9 19 1 -4
BITMAP
0780
0C80
0200
0300
0600
0000
1F00
3F80
3380
7380
7380
6300
6300
6700
E700
0600
C600
EE00
6000
ENDCHAR
STARTCHAR 1F97
ENCODING 8087
SWIDTH 540 0
DWIDTH 9 0
BBX 9 19 1 -4
BITMAP
0F00
0980
0600
0600
0200
0000
1F00
3F80
3380
7380
7380
6300
6300
6700
E700
0600
C600
EE00
6000
ENDCHAR
STARTCHAR 1F98
ENCODING 8088
SWIDTH 1200 0
DWIDTH 20 0
BBX 18 12 2 0
BITMAP
661C00
6E1C00
6E1800
CC18C0
0C39C0
1FF9C0
1FF180
183180
187380
387380
386380
306180
ENDCHAR
STARTCHAR 1F99
ENCODING 8089
SWIDTH 1200 0
DWIDTH 20 0
BBX 18 12 2 0
BITMAP
661C00
EE1C00
4E1800
6C18C0
0C39C0
1FF9C0
1FF180
1C3180
187380
387380
3873C0
386180
ENDCHAR
STARTCHAR 1F9A
ENCODING 8090
SWIDTH 1440 0
DWIDTH 24 0
BBX 22 12 2 0
BITMAP
64E1C0
6CE180
64C180
C6C39C
01C39C
01FF18
01FF18
018738
038738
038730
038638
030E38
ENDCHAR
STARTCHAR 1F9B
ENCODING 8091
SWIDTH 1380 0
DWIDTH 23 0
BBX 22 12 2 0
BITMAP
60E180
ECC380
4CC380
65C39C
01C318
01FF18
01FF38
038738
038630
030630
030E38
070E38
ENDCHAR
STARTCHAR 1F9C
ENCODING 8092
SWIDTH 1380 0
DWIDTH 23 0
BBX 21 12 2 0
BITMAP
64C180
66C380
6DC380
D9C318
01C318
01FF38
03FF38
038630
038630
030E70
070E78
070E38
ENDCHAR
STARTCHAR 1F9D
ENCODING 8093
SWIDTH 1380 0
DWIDTH 23 0
BBX 22 12 2 0
BITMAP
64E180
E6C180
4CC380
79C39C
01C318
01FF18
01FF38
038738
038630
038630
030E38
070E38
ENDCHAR
STARTCHAR 1F9E
ENCODING 8094
SWIDTH 1320 0
DWIDTH 22 0
BBX 19 13 3 0
BITMAP
F00000
9B0E00
670E00
670C00
470C60
061CE0
0FFCE0
0FFCC0
0E18C0
0C39C0
1C39C0
1C39E0
1C30C0
ENDCHAR
STARTCHAR 1F9F
ENCODING 8095
SWIDTH 1320 0
DWIDTH 22 0
BBX 20 13 2 0
BITMAP
780000
CD8700
338700
338600
338630
030E70
07FE70
07FC60
070C60
061CE0
0E1CE0
0E1CF0
0E1860
ENDCHAR
STARTCHAR 1FA0
ENCODING 8096
SWIDTH 840 0
DWIDTH 14 0
BBX 12 18 2 -4
BITMAP
0180
0180
0180
0300
0000
2030
7070
6730
E730
C630
C630
CE70
FFE0
7BC0
0000
0C00
0E00
0600
ENDCHAR
STARTCHAR 1FA1
ENCODING 8097
SWIDTH 840 0
DWIDTH 14 0
BBX 12 18 2 -4
BITMAP
0300
0300
0200
0100
0000
2030
7070
6730
E730
C630
C630
CE70
FFE0
7BC0
0000
0C00
0E00
0600
ENDCHAR
STARTCHAR 1FA2
ENCODING 8098
SWIDTH 840 0
DWIDTH 14 0
BBX 12 18 2 -4
BITMAP
0480
0EC0
04C0
0840
0000
2030
7070
6730
E730
C630
C630
CE70
FFE0
7BC0
0000
0C00
0E00
0600
ENDCHAR
STARTCHAR 1FA3
ENCODING 8099
SWIDTH 840 0
DWIDTH 14 0
BBX 12 18 2 -4
BITMAP
0480
0E80
0CC0
0640
0000
2030
7070
6730
E730
C630
C630
CE70
FFE0
7BC0
0000
0C00
0E00
0600
ENDCHAR
STARTCHAR 1FA4
ENCODING 8100
SWIDTH 840 0
DWIDTH 14 0
BBX 12 18 2 -4
BITMAP
0600
0660
06C0
0D80
0000
2030
7070
6730
E730
C630
C630
CE70
FFE0
7BC0
0000
0C00
0E00
0600
ENDCHAR
STARTCHAR 1FA5
ENCODING 8101
SWIDTH 840 0
DWIDTH 14 0
BBX 12 18 2 -4
BITMAP
0640
0E60
04C0
0780
0000
2030
7070
6730
E730
C630
C630
CE70
FFE0
7BC0
0000
0C00
0E00
0600
ENDCHAR
STARTCHAR 1FA6
ENCODING 8102
SWIDTH 840 0
DWIDTH 14 0
BBX 12 19 2 -4
BITMAP
03C0
0640
0100
0100
0300
0000
2030
7070
6730
E730
C630
C630
CE70
FFE0
7BC0
0000
0C00
0E00
0600
ENDCHAR
STARTCHAR 1FA7
ENCODING 8103
SWIDTH 840 0
DWIDTH 14 0
BBX 12 19 2 -4
BITMAP
03C0
0440
0100
0300
0100
0000
2030
7070
6730
E730
C630
C630
CE70
FFE0
7BC0
0000
0C00
0E00
0600
ENDCHAR
STARTCHAR 1FA8
ENCODING 8104
SWIDTH 1260 0
DWIDTH 21 0
BBX 19 12 2 0
BITMAP
61E000
67F800
6F3C00
DC1C60
1C1CE0
181CE0
181CC0
1818C0
1C39C0
0C71C0
3CF9E0
7CF8C0
ENDCHAR
STARTCHAR 1FA9
ENCODING 8105
SWIDTH 1260 0
DWIDTH 21 0
BBX 20 12 2 0
BITMAP
61F000
E7F800
4F3C00
6E0C70
1C0E60
1C0C60
1C0CE0
1C1CE0
0C38C0
0E30C0
3E7CE0
3EF8E0
ENDCHAR
STARTCHAR 1FAA
ENCODING 8106
SWIDTH 1500 0
DWIDTH 25 0
BBX 23 12 2 0
BITMAP
641E00
6C7F80
64F3C0
C6C1C6
01C0C6
01C0CE
0181CE
0181CC
01C38C
00C71C
03EF9E
03CF8E
ENDCHAR
STARTCHAR 1FAB
ENCODING 8107
SWIDTH 1500 0
DWIDTH 25 0
BBX 23 12 2 0
BITMAP
601E00
EC7F80
4CF380
65C1C6
01C1CE
0181CE
0181CC
01818C
01839C
01C71C
07CF9C
07CF9C
ENDCHAR
STARTCHAR 1FAC
ENCODING 8108
SWIDTH 1440 0
DWIDTH 24 0
BBX 22 12 2 0
BITMAP
643C00
66FF00
6DE780
D9C38C
03818C
03819C
03039C
038398
038718
018E38
07DF3C
079F1C
ENDCHAR
STARTCHAR 1FAD
ENCODING 8109
SWIDTH 1440 0
DWIDTH 24 0
BBX 22 12 2 0
BITMAP
643C00
E6FF00
4DE780
79C38C
03818C
03819C
03039C
038398
038718
018E38
07DF3C
079F1C
ENDCHAR
STARTCHAR 1FAE
ENCODING 8110
SWIDTH 1320 0
DWIDTH 22 0
BBX 20 13 3 0
BITMAP
F00000
99F000
67F800
6F3C00
4E0C70
1C0E60
1C0E60
1C0C60
1C1CE0
0C18E0
0E30C0
3E7CE0
3EF8E0
ENDCHAR
STARTCHAR 1FAF
ENCODING 8111
SWIDTH 1320 0
DWIDTH 22 0
BBX 21 13 2 0
BITMAP
780000
CCF800
31FC00
33DE00
370738
060738
0E0730
0E0630
0E0E70
060C70
071860
1F3E70
1F7C70
ENDCHAR
STARTCHAR 1FB0
ENCODING 8112
SWIDTH 600 0
DWIDTH 10 0
BBX 8 13 2 0
BITMAP
19
1F
0E
00
1F
7F
73
E7
C7
C6
C6
FF
7F
ENDCHAR
STARTCHAR 1FB1
ENCODING 8113
SWIDTH 600 0
DWIDTH 10 0
BBX 9 12 2 0
BITMAP
1F80
1F00
0000
1F00
7F00
7300
E700
C700
C600
C600
FF00
7F00
ENDCHAR
STARTCHAR 1FB2
ENCODING 8114
SWIDTH 600 0
DWIDTH 10 0
BBX 8 17 2 -4
BITMAP
08
1E
06
00
1F
7F
73
E7
C7
C6
C6
FF
7F
00
60
70
30
ENDCHAR
STARTCHAR 1FB3
ENCODING 8115
SWIDTH 600 0
DWIDTH 10 0
BBX 8 13 2 -4
BITMAP
1F
7F
73
E7
C7
C6
C6
FF
7F
00
60
70
30
ENDCHAR
STARTCHAR 1FB4
ENCODING 8116
SWIDTH 600 0
DWIDTH 10 0
BBX 8 17 2 -4
BITMAP
02
0F
0C
00
1F
7F
73
E7
C7
C6
C6
FF
7F
00
60
70
30
ENDCHAR
STARTCHAR 1FB6
ENCODING 8118
SWIDTH 600 0
DWIDTH 10 0
BBX 8 13 2 0
BITMAP
06
1F
19
00
1F
7F
73
E7
C7
C6
C6
FF
7F
ENDCHAR
STARTCHAR 1FB7
ENCODING 8119
SWIDTH 600 0
DWIDTH 10 0
BBX 8 17 2 -4
BITMAP
06
1F
19
00
1F
7F
73
E7
C7
C6
C6
FF
7F
00
60
70
30
ENDCHAR
STARTCHAR 1FB8
ENCODING 8120
SWIDTH 720 0
DWIDTH 12 0
BBX 11 16 1 0
BITMAP
0260
0360
03C0
0000
0380
0380
0780
0F80
0DC0
1DC0
19C0
3FC0
7FC0
60C0
E0C0
C0C0
ENDCHAR
STARTCHAR 1FB9
ENCODING 8121
SWIDTH 720 0
DWIDTH 12 0
BBX 11 15 1 0
BITMAP
07E0
07E0
0000
0380
0380
0780
0F80
0DC0
1DC0
19C0
3FC0
7FC0
60C0
E0C0
C0C0
ENDCHAR
STARTCHAR 1FBA
ENCODING 8122
SWIDTH 840 0
DWIDTH 14 0
BBX 11 12 2 0
BITMAP
4180
E3C0
73C0
06C0
0EC0
0CC0
1CC0
1FE0
3FE0
70E0
60E0
E0E0
ENDCHAR
STARTCHAR 1FBB
ENCODING 8123
SWIDTH 720 0
DWIDTH 12 0
BBX 11 12 1 0
BITMAP
1180
3BC0
73C0
06C0
0EC0
0CC0
18C0
3FC0
3FE0
70E0
60E0
E0E0
ENDCHAR
STARTCHAR 1FBC
ENCODING 8124
SWIDTH 1020 0
DWIDTH 17 0
BBX 16 12 1 0
BITMAP
0380
0380
0780
0F83
0DC3
1DC7
19C7
3FC6
7FC6
60CE
E0CF
C0C6
ENDCHAR
STARTCHAR 1FBD
ENCODING 8125
SWIDTH 360 0
DWIDTH 6 0
BBX 3 4 4 10
BITMAP
60
60
60
C0
ENDCHAR
STARTCHAR 1FBE
ENCODING 8126
SWIDTH 300 0
DWIDTH 5 0
BBX 3 3 1 -4
BITMAP
C0
E0
60
ENDCHAR
STARTCHAR 1FBF
ENCODING 8127
SWIDTH 360 0
DWIDTH 6 0
BBX 3 4 4 10
BITMAP
60
60
60
C0
ENDCHAR
STARTCHAR 1FC0
ENCODING 8128
SWIDTH 360 0
DWIDTH 6 0
BBX 5 3 3 10
BITMAP
30
F8
C8
ENDCHAR
STARTCHAR 1FC1
ENCODING 8129
SWIDTH 540 0
DWIDTH 9 0
BBX 6 5 4 10
BITMAP
7C
4C
00
CC
CC
ENDCHAR
STARTCHAR 1FC2
ENCODING 8130
SWIDTH 540 0
DWIDTH 9 0
BBX 9 17 1 -4
BITMAP
0800
1E00
0600
0000
1F00
3F80
3380
7380
7380
6300
6300
6700
E700
0600
C600
EE00
6000
ENDCHAR
STARTCHAR 1FC3
ENCODING 8131
SWIDTH 540 0
DWIDTH 9 0
BBX 9 13 1 -4
BITMAP
1F00
3F80
3380
7380
7380
6300
6300
6700
E700
0600
C600
EE00
6000
ENDCHAR
STARTCHAR 1FC4
ENCODING 8132
SWIDTH 540 0
DWIDTH 9 0
BBX 9 17 1 -4
BITMAP
0100
0780
0600
0000
1F00
3F80
3380
7380
7380
6300
6300
6700
E700
0600
C600
EE00
6000
ENDCHAR
STARTCHAR 1FC6
ENCODING 8134
SWIDTH 540 0
DWIDTH 9 0
BBX 9 16 1 -3
BITMAP
0700
0F80
1980
0000
1F00
3F80
3380
7380
7380
6300
6300
6700
E700
0600
0600
0E00
ENDCHAR
STARTCHAR 1FC7
ENCODING 8135
SWIDTH 540 0
DWIDTH 9 0
BBX 9 17 1 -4
BITMAP
0700
0F80
1980
0000
1F00
3F80
3380
7380
7380
6300
6300
6700
E700
0600
C600
EE00
6000
ENDCHAR
STARTCHAR 1FC8
ENCODING 8136
SWIDTH 780 0
DWIDTH 13 0
BBX 13 12 2 0
BITMAP
47F8
E7F8
77F0
0600
0E00
0FE0
0FE0
0C00
1C00
1C00
1FE0
1FE0
ENDCHAR
STARTCHAR 1FC9
ENCODING 8137
SWIDTH 780 0
DWIDTH 13 0
BBX 13 12 2 0
BITMAP
27F8
77F0
E7F0
4E00
0E00
0FE0
0FE0
0C00
1C00
1C00
1FE0
1FC0
ENDCHAR
STARTCHAR 1FCA
ENCODING 8138
SWIDTH 900 0
DWIDTH 15 0
BBX 15 12 2 0
BITMAP
470E
E70C
770C
061C
0E1C
0FFC
0FF8
0C38
1C38
1C38
1C30
1870
ENDCHAR
STARTCHAR 1FCB
ENCODING 8139
SWIDTH 900 0
DWIDTH 15 0
BBX 15 12 2 0
BITMAP
270E
770C
E61C
461C
0E1C
0FF8
0FF8
0C38
1C38
1C30
1830
1870
ENDCHAR
STARTCHAR 1FCC
ENCODING 8140
SWIDTH 1020 0
DWIDTH 17 0
BBX 17 12 1 0
BITMAP
1C3000
187000
187000
387380
386300
3FE300
3FE700
70E700
70C600
60C600
61C700
E1C700
ENDCHAR
STARTCHAR 1FCD
ENCODING 8141
SWIDTH 660 0
DWIDTH 11 0
BBX 7 4 4 10
BITMAP
64
6C
64
C6
ENDCHAR
STARTCHAR 1FCE
ENCODING 8142
SWIDTH 540 0
DWIDTH 9 0
BBX 7 4 4 10
BITMAP
64
66
6C
D8
ENDCHAR
STARTCHAR 1FCF
ENCODING 8143
SWIDTH 360 0
DWIDTH 6 0
BBX 6 5 3 10
BITMAP
78
CC
30
30
20
ENDCHAR
STARTCHAR 1FD0
ENCODING 8144
SWIDTH 300 0
DWIDTH 5 0
BBX 6 13 2 0
BITMAP
4C
7C
78
00
70
70
60
60
E0
E0
C0
E0
E0
ENDCHAR
STARTCHAR 1FD1
ENCODING 8145
SWIDTH 300 0
DWIDTH 5 0
BBX 6 12 2 0
BITMAP
FC
FC
00
70
70
60
60
E0
E0
C0
E0
E0
ENDCHAR
STARTCHAR 1FD2
ENCODING 8146
SWIDTH 300 0
DWIDTH 5 0
BBX 7 13 2 1
BITMAP
30
D6
DE
00
70
70
60
60
E0
E0
C0
E0
E0
ENDCHAR
STARTCHAR 1FD3
ENCODING 8147
SWIDTH 300 0
DWIDTH 5 0
BBX 7 13 2 0
BITMAP
18
D6
F6
00
70
70
60
60
E0
E0
C0
E0
E0
ENDCHAR
STARTCHAR 1FD6
ENCODING 8150
SWIDTH 300 0
DWIDTH 5 0
BBX 6 13 2 0
BITMAP
38
7C
CC
00
70
70
60
60
E0
E0
C0
E0
E0
ENDCHAR
STARTCHAR 1FD7
ENCODING 8151
SWIDTH 300 0
DWIDTH 5 0
BBX 6 15 2 0
BITMAP
3C
64
00
EC
CC
00
70
70
60
60
E0
E0
C0
E0
E0
ENDCHAR
STARTCHAR 1FD8
ENCODING 8152
SWIDTH 300 0
DWIDTH 5 0
BBX 8 16 1 0
BITMAP
33
36
1E
00
1C
18
18
38
38
30
30
70
70
60
60
E0
ENDCHAR
STARTCHAR 1FD9
ENCODING 8153
SWIDTH 300 0
DWIDTH 5 0
BBX 8 15 1 0
BITMAP
3F
3E
00
1C
18
18
38
38
30
30
70
70
60
60
E0
ENDCHAR
STARTCHAR 1FDA
ENCODING 8154
SWIDTH 540 0
DWIDTH 9 0
BBX 8 12 2 0
BITMAP
43
E7
77
06
06
0E
0E
0E
0C
1C
1C
1C
ENDCHAR
STARTCHAR 1FDB
ENCODING 8155
SWIDTH 540 0
DWIDTH 9 0
BBX 8 12 2 0
BITMAP
27
77
E7
46
0E
0E
0E
0C
1C
1C
1C
18
ENDCHAR
STARTCHAR 1FDD
ENCODING 8157
SWIDTH 840 0
DWIDTH 14 0
BBX 6 4 6 10
BITMAP
48
E8
CC
64
ENDCHAR
STARTCHAR 1FDE
ENCODING 8158
SWIDTH 840 0
DWIDTH 14 0
BBX 7 4 6 10
BITMAP
44
E6
CC
78
ENDCHAR
STARTCHAR 1FDF
ENCODING 8159
SWIDTH 420 0
DWIDTH 7 0
BBX 6 5 3 10
BITMAP
78
CC
30
30
30
ENDCHAR
STARTCHAR 1FE0
ENCODING 8160
SWIDTH 540 0
DWIDTH 9 0
BBX 8 13 2 0
BITMAP
13
1F
1E
00
73
63
67
E7
E6
C6
CE
FC
7C
ENDCHAR
STARTCHAR 1FE1
ENCODING 8161
SWIDTH 540 0
DWIDTH 9 0
BBX 8 12 2 0
BITMAP
1F
3F
00
73
63
67
E7
E6
C6
CE
FC
7C
ENDCHAR
STARTCHAR 1FE2
ENCODING 8162
SWIDTH 540 0
DWIDTH 9 0
BBX 9 13 2 1
BITMAP
2C00
7D80
6580
0000
7300
6300
6700
E700
E600
C600
CE00
FC00
7C00
ENDCHAR
STARTCHAR 1FE3
ENCODING 8163
SWIDTH 540 0
DWIDTH 9 0
BBX 9 13 2 0
BITMAP
0600
7580
2980
0000
7300
6300
6700
E700
E600
C600
CE00
FC00
7C00
ENDCHAR
STARTCHAR 1FE4
ENCODING 8164
SWIDTH 600 0
DWIDTH 10 0
BBX 9 17 1 -3
BITMAP
0300
0300
0300
0600
0000
0F00
1F80
3980
3180
7180
7380
6380
7F00
FE00
E000
C000
C000
ENDCHAR
STARTCHAR 1FE5
ENCODING 8165
SWIDTH 600 0
DWIDTH 10 0
BBX 9 17 1 -3
BITMAP
0200
0700
0600
0300
0000
0F00
1F80
3980
3180
7180
7380
6380
7F00
FE00
E000
C000
C000
ENDCHAR
STARTCHAR 1FE6
ENCODING 8166
SWIDTH 540 0
DWIDTH 9 0
BBX 8 13 2 0
BITMAP
0E
1F
33
00
73
63
67
E7
E6
C6
CE
FC
7C
ENDCHAR
STARTCHAR 1FE7
ENCODING 8167
SWIDTH 540 0
DWIDTH 9 0
BBX 8 15 2 0
BITMAP
0F
19
00
3B
33
00
73
63
67
E7
E6
C6
CE
FC
7C
ENDCHAR
STARTCHAR 1FE8
ENCODING 8168
SWIDTH 660 0
DWIDTH 11 0
BBX 10 16 3 0
BITMAP
1900
1B00
0E00
0000
E1C0
E180
E380
6700
7E00
7C00
3C00
3800
3800
3000
7000
7000
ENDCHAR
STARTCHAR 1FE9
ENCODING 8169
SWIDTH 660 0
DWIDTH 11 0
BBX 10 15 3 0
BITMAP
1F00
1F00
0000
E1C0
E180
E380
6700
7E00
7C00
3C00
3800
3800
3000
7000
7000
ENDCHAR
STARTCHAR 1FEA
ENCODING 8170
SWIDTH 900 0
DWIDTH 15 0
BBX 15 12 2 0
BITMAP
460E
E70C
771C
0338
03F0
03E0
01C0
01C0
0180
0180
0380
0380
ENDCHAR
STARTCHAR 1FEB
ENCODING 8171
SWIDTH 900 0
DWIDTH 15 0
BBX 15 12 2 0
BITMAP
270E
770E
E31C
43B8
03B0
01F0
01E0
01C0
01C0
0180
0180
0380
ENDCHAR
STARTCHAR 1FEC
ENCODING 8172
SWIDTH 780 0
DWIDTH 13 0
BBX 12 12 2 0
BITMAP
C780
CFE0
CFF0
5C70
1C70
1CF0
1FE0
3F80
3800
3800
3000
3000
ENDCHAR
STARTCHAR 1FED
ENCODING 8173
SWIDTH 540 0
DWIDTH 9 0
BBX 8 3 3 11
BITMAP
50
DB
CB
ENDCHAR
STARTCHAR 1FEE
ENCODING 8174
SWIDTH 540 0
DWIDTH 9 0
BBX 8 3 3 10
BITMAP
4C
FB
D3
ENDCHAR
STARTCHAR 1FEF
ENCODING 8175
SWIDTH 300 0
DWIDTH 5 0
BBX 4 3 3 10
BITMAP
C0
E0
30
ENDCHAR
STARTCHAR 1FF2
ENCODING 8178
SWIDTH 840 0
DWIDTH 14 0
BBX 12 17 2 -4
BITMAP
0600
0700
0180
0000
2030
7070
6730
E730
C630
C630
CE70
FFE0
7BC0
0000
0C00
0E00
0600
ENDCHAR
STARTCHAR 1FF3
ENCODING 8179
SWIDTH 840 0
DWIDTH 14 0
BBX 12 13 2 -4
BITMAP
2030
7070
6730
E730
C630
C630
CE70
FFE0
7BC0
0000
0C00
0E00
0600
ENDCHAR
STARTCHAR 1FF4
ENCODING 8180
SWIDTH 840 0
DWIDTH 14 0
BBX 12 17 2 -4
BITMAP
0080
03C0
0300
0000
2030
7070
6730
E730
C630
C630
CE70
FFE0
7BC0
0000
0C00
0E00
0600
ENDCHAR
STARTCHAR 1FF6
ENCODING 8182
SWIDTH 840 0
DWIDTH 14 0
BBX 12 13 2 0
BITMAP
0380
07C0
04C0
0000
2030
7070
6730
E730
C630
C630
CE70
FFE0
7BC0
ENDCHAR
STARTCHAR 1FF7
ENCODING 8183
SWIDTH 840 0
DWIDTH 14 0
BBX 12 17 2 -4
BITMAP
0380
07C0
04C0
0000
2030
7070
6730
E730
C630
C630
CE70
FFE0
7BC0
0000
0C00
0E00
0600
ENDCHAR
STARTCHAR 1FF8
ENCODING 8184
SWIDTH 1020 0
DWIDTH 17 0
BBX 15 12 2 0
BITMAP
4070
E1FC
73DE
070E
0606
0E06
0E0E
0E0E
0E0C
0E1C
07F8
03F0
ENDCHAR
STARTCHAR 1FF9
ENCODING 8185
SWIDTH 960 0
DWIDTH 16 0
BBX 14 12 2 0
BITMAP
20F0
73F8
E7BC
4E1C
0C0C
1C0C
1C0C
1C1C
1C1C
1E38
0FF0
07E0
ENDCHAR
STARTCHAR 1FFA
ENCODING 8186
SWIDTH 1020 0
DWIDTH 17 0
BBX 15 12 2 0
BITMAP
40F0
E3FC
779E
060E
0E06
0E06
0C0E
0C0E
0E1C
0638
1F7C
1E7C
ENDCHAR
STARTCHAR 1FFB
ENCODING 8187
SWIDTH 960 0
DWIDTH 16 0
BBX 14 12 2 0
BITMAP
21E0
77F8
EF3C
4E1C
1C0C
1C0C
181C
1C1C
1C38
0C70
3EF8
3CF8
ENDCHAR
STARTCHAR 1FFC
ENCODING 8188
SWIDTH 1140 0
DWIDTH 19 0
BBX 18 12 1 0
BITMAP
03C000
0FF000
1EF000
3839C0
3039C0
703980
703180
307380
306380
38C300
F9F380
F9F380
ENDCHAR
STARTCHAR 1FFD
ENCODING 8189
SWIDTH 300 0
DWIDTH 5 0
BBX 4 3 3 10
BITMAP
20
F0
C0
ENDCHAR
STARTCHAR 1FFE
ENCODING 8190
SWIDTH 360 0
DWIDTH 6 0
BBX 3 4 4 10
BITMAP
40
E0
C0
60
ENDCHAR
STARTCHAR 2013
ENCODING 8211
SWIDTH 480 0
DWIDTH 8 0
BBX 9 2 1 4
BITMAP
FF80
FF00
ENDCHAR
STARTCHAR 2014
ENCODING 8212
SWIDTH 1020 0
DWIDTH 17 0
BBX 17 2 1 4
BITMAP
FFFF80
FFFF80
ENDCHAR
STARTCHAR 2015
ENCODING 8213
SWIDTH 960 0
DWIDTH 16 0
BBX 17 2 1 4
BITMAP
FFFF80
FFFF80
ENDCHAR
STARTCHAR 2018
ENCODING 8216
SWIDTH 240 0
DWIDTH 4 0
BBX 4 5 2 8
BITMAP
30
70
60
E0
E0
ENDCHAR
STARTCHAR 2019
ENCODING 8217
SWIDTH 240 0
DWIDTH 4 0
BBX 4 5 2 8
BITMAP
70
70
60
E0
40
ENDCHAR
STARTCHAR 201A
ENCODING 8218
SWIDTH 240 0
DWIDTH 4 0
BBX 4 5 0 -2
BITMAP
70
70
60
60
C0
ENDCHAR
STARTCHAR 201C
ENCODING 8220
SWIDTH 480 0
DWIDTH 8 0
BBX 7 5 2 8
BITMAP
32
76
6E
EC
EC
ENDCHAR
STARTCHAR 201D
ENCODING 8221
SWIDTH 480 0
DWIDTH 8 0
BBX 7 5 2 8
BITMAP
76
76
66
EC
48
ENDCHAR
STARTCHAR 201E
ENCODING 8222
SWIDTH 480 0
DWIDTH 8 0
BBX 7 5 0 -2
BITMAP
76
76
66
6C
CC
ENDCHAR
STARTCHAR 2020
ENCODING 8224
SWIDTH 480 0
DWIDTH 8 0
BBX 7 14 2 -2
BITMAP
0C
18
18
18
FE
FE
30
30
30
30
60
60
60
40
ENDCHAR
STARTCHAR 2021
ENCODING 8225
SWIDTH 480 0
DWIDTH 8 0
BBX 8 14 1 -2
BITMAP
06
0C
0C
0C
7F
7F
18
18
FE
FE
30
30
30
20
ENDCHAR
STARTCHAR 2022
ENCODING 8226
SWIDTH 360 0
DWIDTH 6 0
BBX 5 4 2 4
BITMAP
70
F8
F8
F0
ENDCHAR
STARTCHAR 2026
ENCODING 8230
SWIDTH 960 0
DWIDTH 16 0
BBX 15 3 1 0
BITMAP
630C
E38E
E38C
ENDCHAR
STARTCHAR 2030
ENCODING 8240
SWIDTH 1260 0
DWIDTH 21 0
BBX 19 12 2 0
BITMAP
383000
7C6000
CCE000
CDC000
CD8000
FB0000
66F1E0
0EDB60
1D9B20
199E60
31B360
61E3C0
ENDCHAR
STARTCHAR 2039
ENCODING 8249
SWIDTH 360 0
DWIDTH 6 0
BBX 5 8 2 1
BITMAP
10
38
70
E0
C0
E0
60
60
ENDCHAR
STARTCHAR 203A
ENCODING 8250
SWIDTH 360 0
DWIDTH 6 0
BBX 5 7 1 2
BITMAP
30
30
38
38
70
60
C0
ENDCHAR
STARTCHAR 2044
ENCODING 8260
SWIDTH 180 0
DWIDTH 3 0
BBX 11 12 -4 0
BITMAP
00E0
00C0
0180
0300
0700
0600
0C00
1800
3800
3000
6000
C000
ENDCHAR
STARTCHAR 2070
ENCODING 8304
SWIDTH 360 0
DWIDTH 6 0
BBX 6 7 2 5
BITMAP
38
78
CC
C8
D8
F8
F0
ENDCHAR
STARTCHAR 2074
ENCODING 8308
SWIDTH 360 0
DWIDTH 6 0
BBX 6 7 1 5
BITMAP
04
1C
3C
6C
7C
FC
18
ENDCHAR
STARTCHAR 2075
ENCODING 8309
SWIDTH 360 0
DWIDTH 6 0
BBX 7 7 1 5
BITMAP
1E
3C
20
38
0C
5C
F8
ENDCHAR
STARTCHAR 2076
ENCODING 8310
SWIDTH 360 0
DWIDTH 6 0
BBX 5 7 2 5
BITMAP
18
78
C0
F8
98
D8
F0
ENDCHAR
STARTCHAR 2077
ENCODING 8311
SWIDTH 360 0
DWIDTH 6 0
BBX 5 7 3 5
BITMAP
F8
F8
30
60
40
C0
C0
ENDCHAR
STARTCHAR 2078
ENCODING 8312
SWIDTH 360 0
DWIDTH 6 0
BBX 6 7 2 5
BITMAP
38
6C
48
70
D8
98
F0
ENDCHAR
STARTCHAR 2079
ENCODING 8313
SWIDTH 360 0
DWIDTH 6 0
BBX 6 7 2 5
BITMAP
38
78
4C
78
38
70
E0
ENDCHAR
STARTCHAR 2080
ENCODING 8320
SWIDTH 360 0
DWIDTH 6 0
BBX 6 7 1 0
BITMAP
38
7C
CC
CC
CC
D8
70
ENDCHAR
STARTCHAR 2081
ENCODING 8321
SWIDTH 360 0
DWIDTH 6 0
BBX 4 7 2 0
BITMAP
30
F0
F0
60
60
60
60
ENDCHAR
STARTCHAR 2082
ENCODING 8322
SWIDTH 360 0
DWIDTH 6 0
BBX 5 7 1 0
BITMAP
70
F8
18
30
60
F8
F0
ENDCHAR
STARTCHAR 2083
ENCODING 8323
SWIDTH 360 0
DWIDTH 6 0
BBX 5 7 1 0
BITMAP
38
78
08
30
18
98
F0
ENDCHAR
STARTCHAR 2084
ENCODING 8324
SWIDTH 360 0
DWIDTH 6 0
BBX 6 7 1 0
BITMAP
0C
18
28
58
F8
F8
10
ENDCHAR
STARTCHAR 2085
ENCODING 8325
SWIDTH 360 0
DWIDTH 6 0
BBX 6 7 1 0
BITMAP
3C
7C
60
78
18
B8
F0
ENDCHAR
STARTCHAR 2086
ENCODING 8326
SWIDTH 360 0
DWIDTH 6 0
BBX 6 7 1 0
BITMAP
0C
3C
60
F8
D8
D8
70
ENDCHAR
STARTCHAR 2087
ENCODING 8327
SWIDTH 360 0
DWIDTH 6 0
BBX 5 7 2 0
BITMAP
F8
F8
30
60
C0
C0
80
ENDCHAR
STARTCHAR 2088
ENCODING 8328
SWIDTH 360 0
DWIDTH 6 0
BBX 6 7 1 0
BITMAP
38
6C
48
70
D8
98
F0
ENDCHAR
STARTCHAR 2089
ENCODING 8329
SWIDTH 360 0
DWIDTH 6 0
BBX 6 7 1 0
BITMAP
38
78
4C
7C
38
70
E0
ENDCHAR
STARTCHAR 20AC
ENCODING 8364
SWIDTH 540 0
DWIDTH 9 0
BBX 9 12 2 0
BITMAP
0780
1F80
3C00
3000
FF00
FE00
6000
FC00
6000
7000
7E00
3E00
ENDCHAR
STARTCHAR 20AE
ENCODING 8366
SWIDTH 540 0
DWIDTH 9 0
BBX 10 12 2 0
BITMAP
7FC0
7F80
FF80
1C00
1F00
3C00
7800
7E00
3C00
F000
B000
7000
ENDCHAR
STARTCHAR 20B4
ENCODING 8372
SWIDTH 540 0
DWIDTH 9 0
BBX 10 12 1 0
BITMAP
0F00
1F80
1380
0180
7FC0
7F80
1C00
FF80
FF80
6000
7E00
7F00
ENDCHAR
STARTCHAR 20B9
ENCODING 8377
SWIDTH 540 0
DWIDTH 9 0
BBX 10 12 2 0
BITMAP
3FC0
3FC0
0600
7F80
7F00
0E00
FC00
F000
6000
7000
3800
3800
ENDCHAR
STARTCHAR 2113
ENCODING 8467
SWIDTH 540 0
DWIDTH 9 0
BBX 7 13 2 0
BITMAP
1C
3E
66
66
66
6C
6C
78
70
E0
E0
7E
3E
ENDCHAR
STARTCHAR 2116
ENCODING 8470
SWIDTH 1080 0
DWIDTH 18 0
BBX 19 12 1 0
BITMAP
1831C0
1C77E0
1C7660
3E7460
3E66C0
36E7C0
37E100
73E000
73CFC0
61DF80
61C000
E1C000
ENDCHAR
STARTCHAR 2122
ENCODING 8482
SWIDTH 840 0
DWIDTH 14 0
BBX 13 6 2 6
BITMAP
F918
FBB8
33B8
33F8
33F8
3358
ENDCHAR
STARTCHAR 2126
ENCODING 8486
SWIDTH 780 0
DWIDTH 13 0
BBX 13 12 1 0
BITMAP
03C0
0FF0
1EF0
3838
3838
3038
3030
3070
3060
38C0
F9F0
F9F0
ENDCHAR
STARTCHAR 212E
ENCODING 8494
SWIDTH 960 0
DWIDTH 16 0
BBX 14 12 2 0
BITMAP
0780
1860
2010
6018
601C
601C
FFE0
6000
6000
2000
2010
1FE0
ENDCHAR
STARTCHAR 2153
ENCODING 8531
SWIDTH 900 0
DWIDTH 15 0
BBX 12 12 3 0
BITMAP
3060
F0C0
E180
6380
6300
66E0
4CF0
1C30
18E0
3020
6020
E3E0
ENDCHAR
STARTCHAR 2154
ENCODING 8532
SWIDTH 900 0
DWIDTH 15 0
BBX 14 12 1 0
BITMAP
3818
7C30
0C70
1860
70C0
7998
FBBC
030C
0638
0C0C
1C0C
18F8
ENDCHAR
STARTCHAR 2155
ENCODING 8533
SWIDTH 900 0
DWIDTH 15 0
BBX 12 12 3 0
BITMAP
30E0
F0C0
E180
6300
6700
66F0
4CF0
1980
39C0
3060
6260
C3C0
ENDCHAR
STARTCHAR 2156
ENCODING 8534
SWIDTH 900 0
DWIDTH 15 0
BBX 13 12 2 0
BITMAP
7030
F870
1860
30C0
6180
FBF8
F378
0640
0CF0
1C10
3830
31F0
ENDCHAR
STARTCHAR 2157
ENCODING 8535
SWIDTH 900 0
DWIDTH 15 0
BBX 13 12 2 0
BITMAP
7830
7870
1860
30C0
1980
9BB8
F378
0640
0C70
1C18
3838
31F0
ENDCHAR
STARTCHAR 2158
ENCODING 8536
SWIDTH 900 0
DWIDTH 15 0
BBX 13 12 2 0
BITMAP
0C30
1870
2860
58C0
F980
FBF8
1378
0640
0CF0
1C10
3830
31F0
ENDCHAR
STARTCHAR 2159
ENCODING 8537
SWIDTH 900 0
DWIDTH 15 0
BBX 12 12 3 0
BITMAP
3060
F0C0
F180
6380
6300
6630
6CF0
1D80
1BE0
3320
6360
E1C0
ENDCHAR
STARTCHAR 215A
ENCODING 8538
SWIDTH 900 0
DWIDTH 15 0
BBX 13 12 2 0
BITMAP
3C30
7C70
6060
78C0
1980
FB98
F378
06C0
0CF0
1C98
3890
30F0
ENDCHAR
STARTCHAR 215B
ENCODING 8539
SWIDTH 900 0
DWIDTH 15 0
BBX 12 12 3 0
BITMAP
30E0
E0C0
E180
6300
6700
46E0
CDB0
19B0
38E0
3320
6320
C1E0
ENDCHAR
STARTCHAR 215C
ENCODING 8540
SWIDTH 900 0
DWIDTH 15 0
BBX 14 12 1 0
BITMAP
3818
3C30
0C60
38E0
0CC0
5D9C
FB3C
0764
0638
0C4C
18CC
3878
ENDCHAR
STARTCHAR 215D
ENCODING 8541
SWIDTH 900 0
DWIDTH 15 0
BBX 14 12 1 0
BITMAP
1C18
3C30
2060
38E0
0CC0
5DB8
FB6C
076C
0638
0C4C
18CC
3878
ENDCHAR
STARTCHAR 215E
ENCODING 8542
SWIDTH 900 0
DWIDTH 15 0
BBX 12 12 3 0
BITMAP
F8E0
F8C0
3180
6300
6700
C6E0
CDB0
19B0
38E0
3320
6320
C1E0
ENDCHAR
STARTCHAR 2202
ENCODING 8706
SWIDTH 600 0
DWIDTH 10 0
BBX 9 13 2 0
BITMAP
3E00
3F00
2380
0180
0980
3F80
7780
E380
C300
C300
C600
FE00
7800
ENDCHAR
STARTCHAR 2206
ENCODING 8710
SWIDTH 720 0
DWIDTH 12 0
BBX 11 12 0 0
BITMAP
01C0
01C0
03C0
07C0
06C0
0CE0
1CE0
18E0
38E0
3060
7FE0
FFE0
ENDCHAR
STARTCHAR 220F
ENCODING 8719
SWIDTH 720 0
DWIDTH 12 0
BBX 12 14 1 -2
BITMAP
1FF0
1FF0
1FF0
3870
3860
3860
30E0
30E0
70C0
70C0
61C0
61C0
E180
E180
ENDCHAR
STARTCHAR 2211
ENCODING 8721
SWIDTH 600 0
DWIDTH 10 0
BBX 12 14 0 -2
BITMAP
1FF0
1FE0
1FE0
0C00
0E00
0E00
0700
0600
0C00
1800
3800
7000
FF80
FF80
ENDCHAR
STARTCHAR 2212
ENCODING 8722
SWIDTH 540 0
DWIDTH 9 0
BBX 8 2 2 4
BITMAP
FF
FE
ENDCHAR
STARTCHAR 2215
ENCODING 8725
SWIDTH 180 0
DWIDTH 3 0
BBX 11 12 -4 0
BITMAP
00E0
00C0
0180
0300
0700
0600
0C00
1800
3800
3000
6000
C000
ENDCHAR
STARTCHAR 2219
ENCODING 8729
SWIDTH 240 0
DWIDTH 4 0
BBX 3 3 2 3
BITMAP
E0
E0
C0
ENDCHAR
STARTCHAR 221A
ENCODING 8730
SWIDTH 600 0
DWIDTH 10 0
BBX 12 13 1 0
BITMAP
0030
0060
0060
00C0
00C0
0180
3180
F300
7B00
3E00
1E00
1C00
1C00
ENDCHAR
STARTCHAR 221E
ENCODING 8734
SWIDTH 600 0
DWIDTH 10 0
BBX 10 6 1 2
BITMAP
1180
7BC0
4CC0
CCC0
7F80
6300
ENDCHAR
STARTCHAR 222B
ENCODING 8747
SWIDTH 420 0
DWIDTH 7 0
BBX 11 16 -1 -3
BITMAP
01E0
03C0
0380
0700
0700
0600
0600
0E00
0E00
0C00
0C00
1C00
1C00
1800
7800
F000
ENDCHAR
STARTCHAR 2248
ENCODING 8776
SWIDTH 540 0
DWIDTH 9 0
BBX 10 8 1 1
BITMAP
1800
3CC0
7F80
2300
3000
7980
FF00
4E00
ENDCHAR
STARTCHAR 2260
ENCODING 8800
SWIDTH 540 0
DWIDTH 9 0
BBX 9 10 1 0
BITMAP
0180
0100
3F80
7F80
0C00
0800
7F00
FF00
6000
4000
ENDCHAR
STARTCHAR 2264
ENCODING 8804
SWIDTH 540 0
DWIDTH 9 0
BBX 10 10 1 0
BITMAP
01C0
0FC0
3E00
7000
7C00
0F80
0300
0000
FF00
FF00
ENDCHAR
STARTCHAR 2265
ENCODING 8805
SWIDTH 540 0
DWIDTH 9 0
BBX 9 10 1 0
BITMAP
3800
3E00
0F80
0180
1F80
7C00
6000
0000
FF00
FF00
ENDCHAR
STARTCHAR 25CA
ENCODING 9674
SWIDTH 600 0
DWIDTH 10 0
BBX 8 12 2 0
BITMAP
04
0C
1E
3E
76
63
C7
66
6C
78
30
20
ENDCHAR
STARTCHAR E0FF
ENCODING 57599
SWIDTH 780 0
DWIDTH 13 0
BBX 12 12 2 0
BITMAP
0F00
3FC0
7E60
79F0
E770
EF30
AFF0
EF70
7A70
79E0
3F40
1F80
ENDCHAR
STARTCHAR EFFD
ENCODING 61437
SWIDTH 1680 0
DWIDTH 28 0
BBX 28 7 1 0
BITMAP
380E38E0
7C1B3DF0
CC1B0DB0
CC0E3B30
C9B20B30
DBB21B60
F39EF9C0
ENDCHAR
STARTCHAR F000
ENCODING 61440
SWIDTH 960 0
DWIDTH 16 0
BBX 14 12 1 0
BITMAP
7CFC
8000
8504
8504
8504
8000
3878
8000
8504
8504
8000
3878
ENDCHAR
STARTCHAR F001
ENCODING 61441
SWIDTH 720 0
DWIDTH 12 0
BBX 14 16 0 -3
BITMAP
03D8
0F9C
0E18
1C00
1FB8
1F30
1830
1870
3870
3860
3060
30E0
70E0
6000
E000
C000
ENDCHAR
STARTCHAR F002
ENCODING 61442
SWIDTH 720 0
DWIDTH 12 0
BBX 13 16 0 -3
BITMAP
03D8
0FB8
0E38
1C30
1FB0
1F70
1870
1860
3860
38E0
30E0
30F0
7070
6000
E000
C000
ENDCHAR
STARTCHAR F0FF
ENCODING 61695
SWIDTH 480 0
DWIDTH 8 0
BBX 7 7 2 6
BITMAP
38
76
DE
BA
DE
6E
3C
ENDCHAR
STARTCHAR F200
ENCODING 61952
SWIDTH 3540 0
DWIDTH 59 0
BBX 58 13 1 0
BITMAP
0060000000000F00
0060000000001E80
006000000C0017C0
006000000C0037C0
C27E308F8FB096C0
C27F309FCFB09B80
C2613098CC308F00
C261B0984C308000
C261B0984C308000
C261B0984C308000
C261B0984C308000
626318984C188000
7E7E1F98478F8000
ENDCHAR
STARTCHAR F506
ENCODING 62726
SWIDTH 900 0
DWIDTH 15 0
BBX 12 12 3 0
BITMAP
30C0
E1C0
E180
6300
6600
4FF0
CDF0
1860
30C0
70C0
E180
C180
ENDCHAR
STARTCHAR F507
ENCODING 62727
SWIDTH 900 0
DWIDTH 15 0
BBX 15 12 1 0
BITMAP
3838
7C30
4C60
18C0
71C0
F9BE
FB7E
060C
0E18
0C30
1830
3060
ENDCHAR
STARTCHAR F508
ENCODING 62728
SWIDTH 900 0
DWIDTH 15 0
BBX 15 12 1 0
BITMAP
3818
3C30
0C60
38E0
0CC0
5DBE
FB3E
070C
0618
0C30
1830
3860
ENDCHAR
STARTCHAR F509
ENCODING 62729
SWIDTH 900 0
DWIDTH 15 0
BBX 15 12 1 0
BITMAP
0C38
1C30
3C60
68C0
FDC0
FDBE
1B7E
060C
0E18
0C30
1830
3060
ENDCHAR
STARTCHAR F50A
ENCODING 62730
SWIDTH 900 0
DWIDTH 15 0
BBX 15 12 1 0
BITMAP
3C30
3C70
2060
78C0
0980
5BBE
FB7E
060C
0C18
1C30
1830
3060
ENDCHAR
STARTCHAR F50B
ENCODING 62731
SWIDTH 900 0
DWIDTH 15 0
BBX 14 12 2 0
BITMAP
1830
7860
C0C0
F9C0
9980
DB7C
F67C
0E18
0C30
1860
3060
7040
ENDCHAR
STARTCHAR F50C
ENCODING 62732
SWIDTH 900 0
DWIDTH 15 0
BBX 12 12 3 0
BITMAP
3060
E0C0
E180
6380
6300
4660
CDF0
1D90
19F0
30F0
60E0
E180
ENDCHAR
STARTCHAR F50D
ENCODING 62733
SWIDTH 900 0
DWIDTH 15 0
BBX 13 12 2 0
BITMAP
7030
F870
1860
30C0
6180
FBB0
F378
06C8
0C78
1C38
3870
30E0
ENDCHAR
STARTCHAR F50E
ENCODING 62734
SWIDTH 900 0
DWIDTH 15 0
BBX 14 12 1 0
BITMAP
0418
1C30
3C60
6CE0
7CC0
FD98
1B7C
0764
067C
0C3C
1838
3860
ENDCHAR
STARTCHAR F50F
ENCODING 62735
SWIDTH 900 0
DWIDTH 15 0
BBX 14 12 1 0
BITMAP
1E18
3C30
3060
38E0
0CC0
5D98
FB3C
0764
067C
0C3C
1838
3870
ENDCHAR
STARTCHAR F510
ENCODING 62736
SWIDTH 900 0
DWIDTH 15 0
BBX 12 12 3 0
BITMAP
F8C0
F9C0
3180
6300
6600
CE60
CCF0
1990
31F0
70F0
60E0
C1C0
ENDCHAR
STARTCHAR F511
ENCODING 62737
SWIDTH 900 0
DWIDTH 15 0
BBX 13 12 2 0
BITMAP
3830
6C60
48C0
71C0
D980
9B30
F678
0EC8
0CF8
1878
3070
70E0
ENDCHAR
STARTCHAR F800
ENCODING 63488
SWIDTH 540 0
DWIDTH 9 0
BBX 8 12 2 0
BITMAP
0E
3F
73
63
E3
C3
C3
C3
C7
CE
FC
78
ENDCHAR
STARTCHAR F801
ENCODING 63489
SWIDTH 420 0
DWIDTH 7 0
BBX 6 12 2 0
BITMAP
04
1C
7C
FC
1C
18
18
38
38
30
30
70
ENDCHAR
STARTCHAR F802
ENCODING 63490
SWIDTH 540 0
DWIDTH 9 0
BBX 9 12 1 0
BITMAP
0F00
3F80
3B80
0180
0380
0700
0E00
1C00
3800
6000
FF00
FF00
ENDCHAR
STARTCHAR F803
ENCODING 63491
SWIDTH 540 0
DWIDTH 9 0
BBX 9 12 1 0
BITMAP
1E00
3F00
3380
0380
0300
1E00
3E00
0700
0300
0700
FE00
FC00
ENDCHAR
STARTCHAR F804
ENCODING 63492
SWIDTH 540 0
DWIDTH 9 0
BBX 10 12 1 0
BITMAP
01C0
0380
0780
0D80
1B80
3B00
7300
7F80
FF80
0600
0600
0600
ENDCHAR
STARTCHAR F805
ENCODING 63493
SWIDTH 480 0
DWIDTH 8 0
BBX 10 12 0 0
BITMAP
0FC0
0FC0
1FC0
1800
1800
3E00
3F00
0380
0380
0380
7F00
FE00
ENDCHAR
STARTCHAR F806
ENCODING 63494
SWIDTH 540 0
DWIDTH 9 0
BBX 9 12 2 0
BITMAP
0380
1F80
3C00
7000
6000
FE00
FF00
C700
C700
C600
FE00
7C00
ENDCHAR
STARTCHAR F807
ENCODING 63495
SWIDTH 480 0
DWIDTH 8 0
BBX 9 12 2 0
BITMAP
7F80
FF00
FF00
0E00
0C00
1800
3800
3000
7000
6000
E000
C000
ENDCHAR
STARTCHAR F808
ENCODING 63496
SWIDTH 540 0
DWIDTH 9 0
BBX 9 12 1 0
BITMAP
0E00
1F80
3980
3180
3380
3F00
3E00
6700
E300
E300
FF00
7E00
ENDCHAR
STARTCHAR F809
ENCODING 63497
SWIDTH 540 0
DWIDTH 9 0
BBX 9 12 1 0
BITMAP
0E00
3F00
3380
7180
7180
7180
3F80
1F80
0300
0E00
FC00
F000
ENDCHAR
STARTCHAR F80A
ENCODING 63498
SWIDTH 360 0
DWIDTH 6 0
BBX 6 7 2 7
BITMAP
38
7C
6C
CC
CC
D8
70
ENDCHAR
STARTCHAR F80B
ENCODING 63499
SWIDTH 360 0
DWIDTH 6 0
BBX 4 7 4 7
BITMAP
30
E0
E0
60
60
40
C0
ENDCHAR
STARTCHAR F80C
ENCODING 63500
SWIDTH 360 0
DWIDTH 6 0
BBX 6 7 2 7
BITMAP
38
7C
08
18
70
F8
F8
ENDCHAR
STARTCHAR F80D
ENCODING 63501
SWIDTH 360 0
DWIDTH 6 0
BBX 6 7 2 7
BITMAP
38
3C
0C
38
08
58
F8
ENDCHAR
STARTCHAR F80E
ENCODING 63502
SWIDTH 360 0
DWIDTH 6 0
BBX 6 7 2 7
BITMAP
0C
1C
28
48
FC
F8
10
ENDCHAR
STARTCHAR F80F
ENCODING 63503
SWIDTH 360 0
DWIDTH 6 0
BBX 6 7 2 7
BITMAP
3C
3C
60
78
18
D8
F0
ENDCHAR
STARTCHAR F810
ENCODING 63504
SWIDTH 360 0
DWIDTH 6 0
BBX 6 7 2 7
BITMAP
0C
3C
60
F8
C8
D8
70
ENDCHAR
STARTCHAR F811
ENCODING 63505
SWIDTH 360 0
DWIDTH 6 0
BBX 5 7 3 7
BITMAP
F8
F8
30
60
60
C0
C0
ENDCHAR
STARTCHAR F812
ENCODING 63506
SWIDTH 360 0
DWIDTH 6 0
BBX 6 7 2 7
BITMAP
38
6C
6C
38
C8
C8
78
ENDCHAR
STARTCHAR F813
ENCODING 63507
SWIDTH 360 0
DWIDTH 6 0
BBX 6 7 2 7
BITMAP
38
7C
6C
7C
38
38
E0
ENDCHAR
STARTCHAR F814
ENCODING 63508
SWIDTH 360 0
DWIDTH 6 0
BBX 6 7 0 -2
BITMAP
38
7C
4C
CC
CC
D8
70
ENDCHAR
STARTCHAR F815
ENCODING 63509
SWIDTH 360 0
DWIDTH 6 0
BBX 5 7 1 -2
BITMAP
18
70
F0
30
30
60
60
ENDCHAR
STARTCHAR F816
ENCODING 63510
SWIDTH 360 0
DWIDTH 6 0
BBX 6 7 0 -2
BITMAP
38
7C
0C
18
70
7C
F8
ENDCHAR
STARTCHAR F817
ENCODING 63511
SWIDTH 360 0
DWIDTH 6 0
BBX 6 7 0 -2
BITMAP
38
3C
0C
38
08
58
F8
ENDCHAR
STARTCHAR F818
ENCODING 63512
SWIDTH 360 0
DWIDTH 6 0
BBX 6 7 0 -2
BITMAP
0C
1C
3C
68
FC
FC
18
ENDCHAR
STARTCHAR F819
ENCODING 63513
SWIDTH 360 0
DWIDTH 6 0
BBX 6 7 0 -2
BITMAP
3C
3C
20
78
08
58
F0
ENDCHAR
STARTCHAR F81A
ENCODING 63514
SWIDTH 360 0
DWIDTH 6 0
BBX 6 7 0 -2
BITMAP
0C
3C
60
78
C8
D8
70
ENDCHAR
STARTCHAR F81B
ENCODING 63515
SWIDTH 360 0
DWIDTH 6 0
BBX 6 7 1 -2
BITMAP
FC
F8
30
30
60
C0
C0
ENDCHAR
STARTCHAR F81C
ENCODING 63516
SWIDTH 360 0
DWIDTH 6 0
BBX 6 7 0 -2
BITMAP
18
7C
64
38
4C
CC
78
ENDCHAR
STARTCHAR F81D
ENCODING 63517
SWIDTH 360 0
DWIDTH 6 0
BBX 5 7 1 -2
BITMAP
30
78
C8
F8
78
70
E0
ENDCHAR
STARTCHAR FB00
ENCODING 64256
SWIDTH 840 0
DWIDTH 14 0
BBX 17 16 0 -3
BITMAP
03C780
0FDF80
0E1C00
1C3800
1FBF00
1F3E00
183000
187000
387000
386000
306000
306000
70E000
60C000
E1C000
C18000
ENDCHAR
STARTCHAR FB01
ENCODING 64257
SWIDTH 720 0
DWIDTH 12 0
BBX 14 16 0 -3
BITMAP
03D8
0F9C
0E18
1C00
1FB8
1F30
1830
1870
3870
3860
3060
30E0
70E0
6000
E000
C000
ENDCHAR
STARTCHAR FB02
ENCODING 64258
SWIDTH 720 0
DWIDTH 12 0
BBX 13 16 0 -3
BITMAP
03D8
0FB8
0E38
1C30
1FB0
1F70
1870
1860
3860
38E0
30E0
30F0
7070
6000
E000
C000
ENDCHAR
STARTCHAR FB03
ENCODING 64259
SWIDTH 1140 0
DWIDTH 19 0
BBX 20 16 0 -3
BITMAP
03C7B0
0FDF70
0E1C30
1C3800
1FBF70
1F3E60
183060
1830E0
3870E0
3870C0
3060C0
3061C0
70E1C0
60C000
E1C000
C18000
ENDCHAR
STARTCHAR FB04
ENCODING 64260
SWIDTH 1140 0
DWIDTH 19 0
BBX 20 16 0 -3
BITMAP
03C7B0
0FDF70
0E1C70
1C3860
1FBF60
1F3EE0
1830E0
1830C0
3870C0
3871C0
3061C0
3061E0
70E0E0
60C000
E1C000
C18000
ENDCHAR
ENDFONT
